<svg width="1115" height="377" viewBox="0 0 1115 377" fill="none" xmlns="http://www.w3.org/2000/svg">
<path d="M1043.13 237.457C1045.28 244.357 1053.24 244.314 1053.24 244.314C1053.24 244.314 1032.26 190.301 1028.06 178.225C1023.86 166.149 1011.63 126.77 1003.17 103.938C992.356 74.7584 982.98 28.2806 978.679 19.9736C974.377 11.6667 971.678 -2.46263 966.294 0.369088C960.91 3.20081 981.174 60.835 988.278 83.6019C995.383 106.369 1009.6 142.814 1015.16 156.978C1020.72 171.141 1028.07 189.204 1031.3 199.553C1034.53 209.902 1040.97 230.558 1043.13 237.457Z" fill="#E6E3EC"/>
<path d="M918.051 213.053C918.051 213.053 919.181 162.499 933.442 116.215C947.704 69.9319 968.603 47.3978 977.616 21.6633C969.947 48.1496 963.762 77.7818 951.502 117.569C939.242 157.357 918.051 213.053 918.051 213.053Z" fill="#E6E3EC"/>
<path d="M935.916 243.56C935.916 243.56 938.133 194.902 950.384 148.603C962.636 102.304 979.385 77.9155 987.034 52.0292C980.404 78.4589 972.798 120.38 962.266 160.18C951.734 199.981 935.916 243.56 935.916 243.56Z" fill="#E6E3EC"/>
<path d="M954.471 269.642C954.471 269.642 953.645 221.373 964.492 175.831C975.339 130.289 992.861 106.692 999.842 81.2599C994.068 107.271 991.276 131.233 981.952 170.383C972.627 209.533 954.471 269.642 954.471 269.642Z" fill="#E6E3EC"/>
<path d="M975.673 285.804C975.673 285.804 973.452 243.433 982.041 203.384C990.631 163.334 1006.02 142.507 1011.67 120.136C1007.15 143.008 1008.35 170.371 1000.96 204.8C993.579 239.228 975.673 285.804 975.673 285.804Z" fill="#E6E3EC"/>
<path d="M994.788 305.246C994.788 305.246 991.479 268.505 998.171 233.749C1004.86 198.994 1018.38 180.891 1022.9 161.475C1019.43 181.323 1021.35 205.051 1015.6 234.928C1009.84 264.806 994.788 305.246 994.788 305.246Z" fill="#E6E3EC"/>
<path d="M1015.38 324.602C1015.38 324.602 1011.53 291.324 1016.39 259.299C1021.25 227.273 1032.46 210.037 1035.85 192.103C1033.38 210.372 1035.68 231.876 1031.5 259.406C1027.32 286.937 1015.38 324.602 1015.38 324.602Z" fill="#E6E3EC"/>
<path d="M1043.87 336.601C1043.87 336.601 1033.72 305.555 1033.16 274.061C1032.61 242.567 1041.54 223.993 1041.95 206.231C1042.59 224.139 1048.95 244.236 1049.43 271.31C1049.91 298.384 1043.87 336.601 1043.87 336.601Z" fill="#E6E3EC"/>
<path d="M1085.32 376.183C1085.32 376.183 1066.4 343.439 1056.34 307.222C1046.28 271.006 1049.06 246.791 1044.06 226.143C1050.09 246.636 1062.14 267.898 1070.78 299.032C1079.43 330.165 1085.32 376.183 1085.32 376.183Z" fill="#E6E3EC"/>
<path d="M1112.25 150.416C1112.25 150.416 1083.74 114.489 1051.27 86.6827C1018.8 58.8762 996.273 50.7028 977.698 35.6581C996.042 51.7602 1007.81 67.6281 1035.73 91.5319C1063.64 115.436 1112.25 150.416 1112.25 150.416Z" fill="#E6E3EC"/>
<path d="M1114.34 180.686C1114.34 180.686 1087.65 143.145 1056.34 115.035C1025.04 86.9264 1002.55 79.8463 984.583 64.7297C1002.24 81.0488 1013.57 95.821 1040.48 119.985C1067.39 144.149 1114.34 180.686 1114.34 180.686Z" fill="#E6E3EC"/>
<path d="M1112.59 207.24C1112.59 207.24 1089.94 173.345 1062.91 148.029C1035.88 122.712 1016.08 116.417 1000.53 102.808C1015.77 117.509 1023.45 131.329 1046.69 153.092C1069.92 174.855 1112.59 207.24 1112.59 207.24Z" fill="#E6E3EC"/>
<path d="M1109.91 230.849C1109.91 230.849 1091.01 200.588 1067.95 178.139C1044.89 155.69 1027.6 150.306 1014.31 138.254C1027.29 151.296 1033.37 163.446 1053.19 182.744C1073.01 202.042 1109.91 230.849 1109.91 230.849Z" fill="#E6E3EC"/>
<path d="M1111.59 264.142C1111.59 264.142 1097.48 231.835 1076.92 210.328C1056.37 188.82 1036.09 176.993 1024.22 165.368C1035.79 177.828 1046.67 195.766 1064.34 214.255C1082.01 232.743 1111.59 264.142 1111.59 264.142Z" fill="#E6E3EC"/>
<path d="M1108.81 296.318C1108.81 296.318 1096.71 266.126 1079.3 241.618C1061.89 217.11 1046.75 208.485 1036.55 195.115C1046.28 209.256 1054.23 228.666 1069.19 249.734C1084.16 270.802 1108.81 296.318 1108.81 296.318Z" fill="#E6E3EC"/>
<path d="M1097.86 324.957C1097.86 324.957 1090 293.961 1075.89 266.794C1061.79 239.627 1047.63 227.677 1039.23 212.671C1047.04 228.263 1052.27 248.234 1064.39 271.588C1076.52 294.942 1097.86 324.957 1097.86 324.957Z" fill="#E6E3EC"/>
<path d="M217.117 101.857C217.117 101.857 132.952 161.145 95.3954 165.554C57.8388 169.963 -1.32238 159.146 0.169903 147.247C1.66219 135.347 47.1465 158.054 54.4339 130.359C61.7213 102.665 82.8137 90.7016 108.08 96.4664C133.346 102.231 86.2633 76.0237 122.401 69.1147C158.538 62.2057 217.81 79.5562 217.81 79.5562L217.117 101.857Z" fill="#DAD5E5"/>
<path fill-rule="evenodd" clip-rule="evenodd" d="M261.256 65.3044C237.283 78.8931 215.84 94.0222 199.935 108.248C142.125 159.955 100.225 248.591 96.3934 309.319C111.694 282.261 133.819 279.67 164.89 217.898C195.96 156.125 214.948 110.368 260.641 80.2243C260.785 76.7273 261.012 71.232 261.256 65.3044Z" fill="#E6E3EC"/>
<path fill-rule="evenodd" clip-rule="evenodd" d="M159.713 185.657C147.755 200.254 129.225 220.413 107.617 270.401C137.525 215.453 215.392 133.906 215.392 133.906C215.392 133.906 171.671 171.06 159.713 185.657Z" fill="#EFEDF4"/>
<path fill-rule="evenodd" clip-rule="evenodd" d="M206.978 114.342C195.373 124.281 186.255 134.637 180.766 143.799C144.512 204.31 186.237 255.619 209.155 270.174C202.059 239.898 212.077 232.352 208.386 197.709C204.695 163.066 192.542 142.813 212.861 121.777C211.482 120.034 209.315 117.296 206.978 114.342Z" fill="#E6E3EC"/>
<path fill-rule="evenodd" clip-rule="evenodd" d="M184.368 185.196C182.653 192.969 180.309 215.375 198.571 245.632C182.721 209.7 193.218 154.888 193.218 154.888C193.218 154.888 186.084 177.423 184.368 185.196Z" fill="#EFEDF4"/>
<path fill-rule="evenodd" clip-rule="evenodd" d="M223.837 68.1548C207.63 72.8582 83.3488 109.201 47.715 180.565C12.0812 251.929 25.6155 264.763 31.3084 295.709C43.4405 261.885 117.335 219.927 152.957 184.903C195.534 143.04 223.085 102.592 256.648 70.8056C251.9 64.6049 240.045 63.4513 223.837 68.1548Z" fill="#E6E3EC"/>
<path fill-rule="evenodd" clip-rule="evenodd" d="M255.543 61.1442C176.02 103.471 102.293 156.541 90.9909 168.28C70.6014 189.458 48.8161 208.077 29.2771 269.324C57.3212 203.423 84.9602 181.043 117.525 155.862C136.687 141.046 185.935 102.519 255.297 67.1106C257.528 65.9714 258.54 61.2678 255.543 61.1442Z" fill="#EFEDF4"/>
<path fill-rule="evenodd" clip-rule="evenodd" d="M48.6621 236.094C49.9336 231.643 51.3715 226.279 53.8264 219.076L51.9334 218.431C49.4546 225.704 44.2337 244.067 43.1995 259.363C43.1995 259.363 47.3906 240.546 48.6621 236.094Z" fill="#EFEDF4"/>
<path fill-rule="evenodd" clip-rule="evenodd" d="M48.7882 218.78C51.2572 218.633 53.5401 217.881 54.9154 217.218L54.0477 215.416C52.8703 215.983 50.8409 216.654 48.6696 216.783C45.4259 216.976 43.9063 217.927 41.3359 216.557C43.5371 218.472 46.3196 218.927 48.7882 218.78ZM59.6589 221.989C61.6902 213.463 64.5318 205.962 66.5181 201.684L64.704 200.842C62.6629 205.238 59.7766 212.865 57.7133 221.526C55.6527 230.175 54.3921 239.942 55.6715 248.581C56.2558 234.406 57.5961 230.648 59.6589 221.989ZM58.4621 180.451C58.0221 191.125 62.6384 196.061 65.4421 197.194L66.1918 195.34C59.613 192.68 59.2607 183.987 58.4621 180.451ZM75.2401 171.583C78.136 174.629 81.6551 176.864 84.035 178.002L84.8979 176.198C82.6974 175.145 79.3892 173.045 76.6895 170.205C73.8922 167.263 71.0137 163.534 70.1587 159.996C69.9699 164.576 72.352 168.546 75.2401 171.583ZM77.66 203.948C79.562 194.729 82.1146 186.527 83.878 181.81L82.0047 181.11C80.206 185.921 77.6245 194.222 75.7013 203.544C73.7803 212.855 72.5007 223.258 73.3509 232.243C75.1397 217.169 76.6607 208.792 77.66 203.948ZM91.1484 159.869C93.6856 161.915 96.5082 163.063 98.3755 163.499L98.8303 161.551C97.228 161.177 94.6855 160.152 92.4037 158.312C89.461 155.94 86.9868 152.964 85.6009 150.685C86.2938 154.813 88.5989 157.814 91.1484 159.869ZM106.89 158.909L108.497 159.952C95.004 178.363 89.5323 205.556 89.8683 219.822C88.4886 204.708 89.5661 182.191 106.89 158.909ZM104.121 134.739C105.853 144.135 113.622 148.19 117.331 149.056L117.786 147.108C111.304 145.595 105.96 138.096 104.121 134.739ZM123.998 149.549C124.436 148.489 124.76 147.706 124.85 147.399L122.931 146.835C122.878 147.015 122.607 147.677 122.117 148.863L122.067 148.985C121.6 150.115 120.976 151.624 120.255 153.429C118.759 157.172 116.84 162.197 115.006 167.81C111.352 178.99 107.978 192.667 109.079 203.199C108.886 197.542 115.194 173.674 116.907 168.431C118.723 162.873 120.626 157.89 122.112 154.171C122.829 152.376 123.449 150.876 123.916 149.746L123.998 149.549ZM137.326 155.471C141.051 144.907 146.02 135.805 149.443 130.676L147.78 129.566C144.269 134.826 139.223 144.077 135.44 154.806C131.661 165.523 129.106 177.813 130.683 189.111C130.232 180.407 135.47 160.736 137.326 155.471ZM134.645 129.024C137.135 131.209 140.17 132.217 142.238 132.483L142.493 130.499C140.744 130.274 138.102 129.397 135.964 127.521C132.808 124.753 131.246 122.025 130.391 118.487C130.188 123.404 132.118 126.807 134.645 129.024ZM160.875 136.486C165.121 126.154 170.5 117.778 174.133 113.251L172.573 111.999C168.82 116.676 163.344 125.217 159.025 135.725C154.706 146.232 151.517 158.773 152.42 171.425C152.754 163.32 158.66 141.874 160.875 136.486ZM156.642 103.919C159.669 111.563 165.311 114.486 167.969 114.978L168.333 113.012C162.855 111.997 159.541 107.635 156.642 103.919ZM176.86 92.223C180.313 99.4518 185.741 101.931 188.264 102.23L188.5 100.244C183.092 99.6033 179.637 94.8717 176.86 92.223ZM187.897 111.151C190.807 105.006 194.396 99.953 196.789 97.2018L195.28 95.8891C192.77 98.7741 189.08 103.98 186.089 110.295C183.101 116.603 180.772 124.101 181.084 131.542C182.33 125.506 185.921 115.322 187.897 111.151Z" fill="#EFEDF4"/>
<path fill-rule="evenodd" clip-rule="evenodd" d="M41.8063 215.675L40.6795 217.311C43.1499 219.46 46.2309 219.934 48.8476 219.778C49.4075 219.745 49.9579 219.682 50.4917 219.598C47.8591 227.7 43.1796 244.833 42.2018 259.295L44.1756 259.58L43.1995 259.363C44.1756 259.58 44.1756 259.58 44.1756 259.58L44.358 258.764C44.475 258.241 44.6435 257.489 44.8498 256.573C45.2624 254.74 45.8257 252.25 46.4287 249.621C47.6382 244.349 48.997 238.563 49.6237 236.369C49.8219 235.675 50.0239 234.96 50.2329 234.22C51.3678 230.202 52.7083 225.456 54.773 219.399L55.0955 218.452L54.8221 218.359C55.0088 218.279 55.1848 218.198 55.3493 218.119L56.2503 217.685L54.5149 214.081L53.6139 214.515C52.5355 215.035 50.6327 215.665 48.6102 215.785C47.7551 215.836 47.0178 215.937 46.3698 216.033C46.259 216.049 46.1519 216.065 46.048 216.081C45.5313 216.159 45.0941 216.225 44.6687 216.26C43.7174 216.337 42.8932 216.254 41.8063 215.675ZM56.7405 221.294C54.6666 230 53.3761 239.908 54.6823 248.727L56.6706 248.622C57.177 236.338 58.2471 231.975 59.882 225.309C60.1199 224.339 60.3698 223.32 60.6316 222.221C62.6471 213.761 65.4662 206.324 67.4251 202.105L67.8462 201.198L64.2181 199.514L63.797 200.421C61.7285 204.876 58.8198 212.566 56.7405 221.294ZM59.4375 180.23L57.463 180.41C57.0113 191.366 61.7558 196.782 65.0673 198.121L65.9944 198.496L67.4937 194.788L66.5666 194.413C63.6624 193.239 62.0719 190.72 61.1053 187.9C60.6237 186.494 60.3098 185.049 60.0652 183.715C59.9768 183.232 59.8952 182.749 59.817 182.286C59.6865 181.513 59.5654 180.797 59.4375 180.23ZM71.1307 159.761L69.1595 159.955C68.9549 164.92 71.5373 169.14 74.5153 172.272C77.5094 175.422 81.1339 177.723 83.6035 178.904L84.5057 179.335L86.2314 175.727L85.3293 175.295C83.2186 174.286 80.0159 172.253 77.4142 169.516C74.6313 166.589 71.9192 163.024 71.1307 159.761ZM74.7219 203.342C72.7925 212.694 71.4916 223.208 72.3553 232.337L74.3439 232.361C76.1299 217.311 77.6466 208.962 78.6394 204.15C80.5308 194.982 83.0689 186.83 84.8147 182.16L85.1649 181.223L81.4181 179.823L81.068 180.759C79.2516 185.618 76.6557 193.968 74.7219 203.342ZM86.4553 150.166L84.6147 150.851C85.3577 155.278 87.8314 158.48 90.5208 160.648C93.1856 162.796 96.1483 164.005 98.1481 164.472L99.1219 164.7L100.032 160.805L99.0577 160.577C97.5879 160.234 95.1855 159.27 93.0313 157.534C90.1792 155.234 87.7815 152.346 86.4553 150.166ZM104.918 163.434C99.5356 171.934 95.6384 181.762 93.033 191.174C92.4212 193.385 91.8798 195.575 91.4067 197.723C92.9983 187.245 96.8383 175.499 104.918 163.434ZM106.088 158.312C88.5692 181.856 87.4788 204.647 88.8724 219.913L90.868 219.798C90.7028 212.783 91.9682 202.518 94.9605 191.708C97.9523 180.9 102.65 169.621 109.304 160.543L109.929 159.69L106.648 157.56L106.088 158.312ZM104.998 134.259L103.138 134.92C104.966 144.838 113.156 149.108 117.103 150.03L118.077 150.257L118.987 146.362L118.013 146.134C115.048 145.442 112.256 143.349 109.935 140.924C107.628 138.512 105.882 135.872 104.998 134.259ZM113.344 146.304C112.362 145.707 111.431 145.014 110.56 144.27C111.475 145.082 112.423 145.756 113.344 146.304ZM114.055 167.499C110.399 178.687 106.96 192.542 108.084 203.303L110.078 203.165C110.034 201.879 110.368 199.433 110.962 196.304C111.549 193.211 112.369 189.551 113.25 185.894C115.015 178.573 117.013 171.325 117.857 168.742C119.665 163.21 121.559 158.249 123.04 154.543C123.756 152.753 124.373 151.258 124.84 150.128L124.922 149.931L124.97 149.814C125.371 148.846 125.704 148.04 125.809 147.682L126.091 146.722L122.254 145.593L121.972 146.552C121.972 146.552 121.972 146.553 121.971 146.555C121.969 146.561 121.965 146.571 121.959 146.589C121.949 146.618 121.935 146.655 121.916 146.704C121.879 146.802 121.827 146.932 121.761 147.098C121.627 147.43 121.438 147.888 121.193 148.481L121.141 148.606C120.674 149.736 120.049 151.248 119.326 153.058C117.826 156.813 115.898 161.859 114.055 167.499ZM115.956 168.121C114.26 173.311 112.638 179.004 111.495 184.646C113.216 177.576 115.118 170.686 115.956 168.121ZM131.363 118.252L129.391 118.446C129.176 123.683 131.245 127.372 133.985 129.776C136.651 132.115 139.883 133.188 142.11 133.475L143.102 133.602L143.612 129.635L142.62 129.507C141.031 129.303 138.586 128.491 136.623 126.769C133.621 124.135 132.169 121.588 131.363 118.252ZM134.497 154.473C130.693 165.261 128.084 177.726 129.692 189.25L131.681 189.06C131.464 184.861 132.628 177.891 134.115 171.219C135.596 164.577 137.359 158.385 138.269 155.804C141.965 145.322 146.896 136.295 150.275 131.231L150.83 130.399L147.503 128.179L146.948 129.011C143.393 134.337 138.309 143.662 134.497 154.473ZM136.383 155.138C134.771 159.711 133.389 164.555 132.461 169.471C133.884 163.288 135.499 157.646 136.383 155.138ZM158.1 135.345C153.746 145.938 150.505 158.639 151.422 171.496L153.419 171.466C153.581 167.533 155.113 160.242 156.911 153.183C158.705 146.138 160.721 139.489 161.799 136.866C166.01 126.622 171.34 118.329 174.913 113.877L175.539 113.097L172.419 110.593L171.793 111.373C170.92 112.461 169.958 113.751 168.941 115.221L169.498 112.211L168.515 112.028C163.512 111.102 160.429 107.148 157.5 103.393L157.431 103.304L155.712 104.287C158.866 112.25 164.79 115.407 167.787 115.962L168.362 116.068C165.063 120.959 161.271 127.629 158.1 135.345ZM154.27 155.52C155.431 148.651 157.5 142.068 159.943 136.123C158.805 138.898 156.765 145.653 154.973 152.689C154.734 153.628 154.499 154.574 154.27 155.52ZM177.55 91.4993L175.957 92.654C179.548 100.169 185.258 102.881 188.147 103.223L188.74 103.294C187.522 105.291 186.305 107.503 185.185 109.866C182.16 116.254 179.763 123.919 180.085 131.584L182.063 131.745C183.292 125.792 186.856 115.684 188.8 111.579C191.671 105.519 195.208 100.542 197.543 97.8581L198.2 97.1036L195.182 94.4783L194.526 95.2328C193.036 96.9447 191.152 99.4405 189.241 102.483L189.61 99.3689L188.617 99.2512C186.185 98.9629 184.148 97.7516 182.339 96.2226C181.434 95.4586 180.601 94.6277 179.808 93.8084C179.604 93.5972 179.401 93.3848 179.199 93.174C178.631 92.5812 178.076 92.0015 177.55 91.4993ZM186.993 110.723C185.993 112.833 185.073 115.07 184.304 117.385C185.287 114.683 186.25 112.291 186.993 110.723Z" fill="#EFEDF4"/>
</svg>
