<svg width="600" height="350" viewBox="0 0 600 350" fill="none" xmlns="http://www.w3.org/2000/svg">
<rect width="600" height="350" fill="#300886"/>
<mask id="mask0" mask-type="alpha" maskUnits="userSpaceOnUse" x="0" y="0" width="600" height="350">
<rect width="600" height="350" fill="#300886"/>
</mask>
<g mask="url(#mask0)">
<g opacity="0.5">
<path d="M233.233 219.147C233.308 214.504 228.44 212.922 228.44 212.922C228.44 212.922 230.369 250.108 230.502 258.323C230.635 266.539 230.169 293.03 230.736 308.666C231.462 328.651 227.827 358.897 228.779 364.833C229.732 370.769 228.535 379.934 232.39 379.293C236.245 378.653 235.482 339.402 235.73 324.079C235.978 308.756 234.636 283.652 234.095 273.889C233.554 264.126 232.708 251.624 232.82 244.659C232.933 237.694 233.158 223.791 233.233 219.147Z" fill="#341EA3"/>
<path d="M304.639 259.287C304.639 259.287 293.774 289.899 275.755 315.255C257.736 340.61 240.448 350.138 229.768 364.017C239.779 349.408 249.518 332.579 265.008 310.783C280.498 288.986 304.639 259.287 304.639 259.287Z" fill="#341EA3"/>
<path d="M299.88 237.07C299.88 237.07 288.732 266.306 271.937 292.076C255.141 317.847 240.012 329.344 230.134 343.591C239.5 328.806 252.579 304.769 267.017 282.615C281.455 260.461 299.88 237.07 299.88 237.07Z" fill="#341EA3"/>
<path d="M293.808 217.413C293.808 217.413 284.595 247.026 268.809 272.618C253.023 298.21 237.582 309.068 228.203 323.173C236.962 308.471 243.489 294.417 257.059 272.417C270.629 250.416 293.808 217.413 293.808 217.413Z" fill="#341EA3"/>
<path d="M284.124 203.273C284.124 203.273 276.95 229.569 263.647 252.267C250.344 274.965 236.761 284.562 228.813 297.07C236.175 284.03 240.951 267.095 252.387 247.583C263.823 228.071 284.124 203.273 284.124 203.273Z" fill="#341EA3"/>
<path d="M276.374 187.553C276.374 187.553 270.998 210.635 259.918 230.486C248.838 250.337 236.946 258.651 230.282 269.584C236.393 258.176 239.997 243.313 249.522 226.248C259.047 209.183 276.374 187.553 276.374 187.553Z" fill="#341EA3"/>
<path d="M267.708 171.588C267.708 171.588 263.356 192.666 253.945 211.222C244.533 229.777 234.223 238.029 228.546 248.285C233.729 237.639 236.656 224.057 244.747 208.106C252.838 192.154 267.708 171.588 267.708 171.588Z" fill="#341EA3"/>
<path d="M252.736 158.516C252.736 158.516 252.678 179.503 246.68 198.829C240.682 218.155 231.489 227.681 227.668 238.435C230.879 227.38 231.047 213.837 236.203 197.224C241.359 180.611 252.736 158.516 252.736 158.516Z" fill="#341EA3"/>
<path d="M235.411 126C235.411 126 240.368 149.796 239.215 173.92C238.061 198.044 231.493 212.256 230.386 225.861C230.834 212.143 227.761 196.739 228.753 176.001C229.744 155.263 235.411 126 235.411 126Z" fill="#341EA3"/>
<path d="M173.532 258.29C173.532 258.29 183.699 285.964 197.915 309.482C212.131 333.001 224.229 342.535 232.535 355.463C224.583 341.936 220.594 329.88 208.373 309.662C196.153 289.444 173.532 258.29 173.532 258.29Z" fill="#341EA3"/>
<path d="M178.35 239.402C178.35 239.402 187.082 267.693 200.526 291.162C213.97 314.63 226.265 323.489 234.186 336.338C226.696 322.818 222.757 311.519 211.2 291.344C199.643 271.17 178.35 239.402 178.35 239.402Z" fill="#341EA3"/>
<path d="M184.766 223.557C184.766 223.557 191.76 248.806 203.158 269.708C214.555 290.609 225.374 298.449 232.12 309.889C225.783 297.845 223.876 287.863 214.078 269.895C204.28 251.927 184.766 223.557 184.766 223.557Z" fill="#341EA3"/>
<path d="M191.151 209.695C191.151 209.695 196.597 231.973 206.147 250.323C215.697 268.673 225.163 275.448 230.846 285.483C225.551 274.906 224.289 266.267 216.079 250.493C207.869 234.719 191.151 209.695 191.151 209.695Z" fill="#341EA3"/>
<path d="M196.827 189.046C196.827 189.046 198.935 211.604 207.149 228.874C215.364 246.145 225.358 257.455 230.257 266.941C225.707 257.005 222.681 243.866 215.619 229.019C208.557 214.173 196.827 189.046 196.827 189.046Z" fill="#341EA3"/>
<path d="M205.001 169.978C205.001 169.978 206.311 190.842 211.999 209.307C217.687 227.772 225.191 236.091 228.721 246.306C225.633 235.715 224.689 222.269 219.8 206.396C214.91 190.522 205.001 169.978 205.001 169.978Z" fill="#341EA3"/>
<path d="M217.45 154.719C217.45 154.719 216.008 175.215 219.146 194.636C222.283 214.057 228.514 224.203 230.623 235.055C228.994 223.966 229.826 210.728 227.128 194.034C224.431 177.339 217.45 154.719 217.45 154.719Z" fill="#341EA3"/>
</g>
<path fill-rule="evenodd" clip-rule="evenodd" d="M352.006 332.24C355.297 322.415 371.015 246.529 415.638 226.47C460.262 206.411 466.184 210.087 485 214.363C463.97 220.952 437.997 270.183 415.638 291.154C388.915 316.22 363.437 332.101 343.115 351.891C339.436 348.821 348.715 342.066 352.006 332.24Z" fill="#321394"/>
<path fill-rule="evenodd" clip-rule="evenodd" d="M316 377.989C324.931 363.623 334.742 350.849 343.859 341.45C376.999 307.287 432.363 283.819 469.667 283.004C452.702 291.708 450.556 305.218 411.925 322.72C373.293 340.222 344.779 350.715 325.157 377.989C323.01 377.989 319.638 377.989 316 377.989Z" fill="#321394"/>
<path fill-rule="evenodd" clip-rule="evenodd" d="M316 377.989C322.809 367.494 330.619 358.369 338.15 351.864C387.889 308.903 447.525 316.567 467.113 325.483C436.146 331.624 431.268 340.326 396.901 350.047C362.535 359.769 340.034 359.37 324.602 379C322.586 378.763 319.418 378.391 316 377.989Z" fill="#321394"/>
<path d="M358.119 357.785C358.119 357.785 367.666 255.278 388.695 223.85C409.723 192.422 456.359 154.446 464.441 163.306C472.523 172.167 425.723 192.021 442.057 215.544C458.39 239.066 453.796 262.876 433.008 278.351C412.22 293.826 462.721 275.029 444.515 307C426.309 338.972 374.632 372.79 374.632 372.79L358.119 357.785Z" fill="#290773"/>
<path d="M338.635 379.553C338.635 379.553 195.25 382.176 155.648 360.948C116.045 339.72 73.303 288.234 87.8415 277.166C102.38 266.098 119.328 320.301 156.691 297.153C194.054 274.004 226.787 276.288 243.775 299.44C260.762 322.591 246.207 263.737 287.262 281.454C328.317 299.171 363.936 357.37 363.936 357.37L338.635 379.553Z" fill="#290773"/>
<path d="M128.332 325.754C128.332 325.754 137.107 264.478 127.272 244.612C117.438 224.746 90.8671 199.477 83.9456 204.243C77.024 209.008 98.2374 219.157 87.936 228.157C77.6346 237.157 84.8743 240.253 96.9361 250.657C108.998 261.06 65.136 250.637 72.9361 270.657C80.7361 290.676 114.655 333.657 114.655 333.657L128.332 325.754Z" fill="#290773"/>
<path d="M107.175 274.158C87.8468 266.622 86.0021 232.51 45.832 234.956C34.5566 235.643 13.6059 241.48 5.77929 247.668C14.6267 244.526 48.8208 234.78 58.7075 238.733C68.5941 242.686 78.306 252.505 82.9871 263.282C87.6682 274.059 97.0917 273.595 111.083 285.647C125.075 297.699 132.779 317.655 148.312 323.289C163.846 328.922 194.453 327.636 206.556 331.816C218.659 335.995 229.622 355.137 235.443 350.951C241.265 346.764 234.554 339.767 232.319 335.493C230.084 331.218 212.516 324.398 201.222 321.037C189.929 317.676 180.916 318.141 158.086 310.72C135.256 303.299 126.504 281.695 107.175 274.158Z" fill="#341EA3"/>
<path d="M115.879 239.387C103.761 205.464 102.077 174.523 60.5904 161.771C48.9454 158.192 20.6571 149.857 8.09614 150.08C28.8913 157.041 57.2512 165.882 66.4804 173.884C75.7097 181.885 92.8498 208.538 95.3007 221.834C97.7517 235.13 99.2894 240.804 110.959 259.023C122.629 277.241 143.099 301.214 157.724 313.17C172.349 325.125 192.953 327.475 204.394 336.566C215.834 345.657 222.887 370.287 229.726 368.044C236.564 365.801 248.883 354.05 247.525 348.632C246.168 343.214 231.147 332.995 220.355 325.087C209.564 317.18 172.576 315.028 164.909 306.933C157.242 298.838 127.997 273.31 115.879 239.387Z" fill="#341EA3"/>
<path d="M466.769 332.87C482.44 333.826 494.448 311.032 521.316 325.43C528.857 329.472 541.434 340.107 544.871 346.827C539.773 341.872 519.315 324.363 511.268 323.941C503.222 323.519 493.448 327.173 486.835 333.076C480.221 338.98 473.884 335.677 460.463 339.506C447.042 343.335 435.459 354.573 422.998 353.514C410.538 352.455 389.884 341.881 380.241 340.912C370.598 339.943 357.029 349.591 354.342 344.878C351.655 340.165 358.475 337.495 361.358 335.273C364.242 333.052 378.476 333.941 387.304 335.215C396.133 336.488 402.188 339.66 420.231 341.805C438.275 343.949 451.098 331.914 466.769 332.87Z" fill="#341EA3"/>
<path d="M471.727 306.283C490.745 286.871 501.644 266.199 534.203 270.598C543.341 271.833 565.428 275.079 574 279.211C557.501 277.395 535.206 274.473 526.337 277.034C517.468 279.595 497.284 292.434 491.412 300.77C485.54 309.106 482.695 312.508 468.93 321.298C455.166 330.089 433.535 340.036 419.709 343.598C405.883 347.16 390.967 342.245 380.234 344.853C369.5 347.46 356.893 362.106 352.895 358.404C348.896 354.701 344.12 342.746 346.76 339.462C349.399 336.179 362.951 333.933 372.865 331.931C382.78 329.929 408.905 340.168 416.729 337.049C424.552 333.929 452.71 325.695 471.727 306.283Z" fill="#341EA3"/>
<path d="M509.597 264.29L499.166 268.479C498.014 268.942 497.343 270.144 497.553 271.366L501.252 292.875C501.468 294.138 502.564 295.061 503.847 295.061H515.535C515.953 295.061 516.365 294.962 516.737 294.771L527.462 289.272C528.335 288.824 529.385 288.899 530.186 289.466L536.662 294.049C537.529 294.662 538.678 294.696 539.579 294.134L540.709 293.429C542.062 292.585 543.85 293.128 544.505 294.582L548.072 302.503C548.497 303.447 549.438 304.054 550.474 304.054H557.771C558.134 304.054 558.494 303.979 558.826 303.834L565.071 301.104C565.577 300.883 566 300.509 566.281 300.035L573.008 288.694C573.249 288.288 573.376 287.824 573.376 287.352V274.669C573.376 273.926 573.062 273.218 572.511 272.719L560.484 261.838C560.298 261.669 560.137 261.475 560.006 261.261L554.259 251.883C553.083 249.965 550.197 250.309 549.506 252.45L547.764 257.853C547.19 259.633 544.992 260.263 543.56 259.057L540.59 256.556C539.912 255.985 539.567 255.111 539.673 254.231L540.091 250.743C540.279 249.177 539.055 247.799 537.476 247.799H533.004C532.343 247.799 531.707 248.047 531.221 248.494L524.365 254.798C523.515 255.579 522.257 255.717 521.259 255.137C520.11 254.47 518.643 254.764 517.839 255.822L515.552 258.831C515.468 258.943 515.374 259.048 515.272 259.145L510.432 263.753C510.19 263.983 509.907 264.165 509.597 264.29ZM542.789 229.263L538.237 231.2C537.915 231.338 537.542 231.255 537.308 230.996L536.885 230.528C536.749 230.378 536.674 230.183 536.674 229.98V227.485C536.674 227.123 536.437 226.805 536.09 226.701L531.458 225.318C531.382 225.295 531.303 225.284 531.223 225.284H529.702C529.25 225.284 528.883 225.65 528.883 226.102V226.377C528.883 226.684 529.054 226.964 529.326 227.104L531.554 228.254C531.685 228.321 531.794 228.423 531.873 228.547L532.563 229.651C532.699 229.868 532.928 230.009 533.183 230.032L534.289 230.133C534.711 230.171 535.034 230.524 535.034 230.947V231.225C535.034 231.359 535.001 231.491 534.938 231.61L534.343 232.725C533.998 233.373 534.617 234.113 535.317 233.889L535.751 233.748C535.886 233.705 536.029 233.697 536.168 233.726L539.818 234.478C539.909 234.497 539.995 234.531 540.074 234.579L544.773 237.399C545.237 237.678 545.308 238.321 544.916 238.693L543.696 239.851C543.16 240.36 543.52 241.262 544.26 241.262H547.815C548.034 241.262 548.243 241.349 548.396 241.503L550.738 243.857C551.022 244.143 551.472 244.179 551.798 243.943L555.929 240.957C556.19 240.768 556.536 240.75 556.816 240.909L558.815 242.051C559.07 242.197 559.228 242.467 559.228 242.761V243.733C559.228 244.099 559.472 244.421 559.825 244.52L565.804 246.197C566.604 246.422 567.191 245.45 566.62 244.847L561.834 239.8C561.619 239.574 561.552 239.244 561.662 238.951L562.3 237.246C562.5 236.711 562.104 236.141 561.533 236.141H559.645C559.277 236.141 558.954 235.896 558.856 235.542L558.129 232.928C558.048 232.636 557.812 232.413 557.516 232.348L543.286 229.217C543.12 229.18 542.946 229.196 542.789 229.263ZM510.494 223.738L507.237 230.828C507.18 230.953 507.159 231.092 507.176 231.229L507.951 237.308C507.998 237.677 508.312 237.953 508.684 237.953H509.327C509.735 237.953 510.066 237.622 510.066 237.214V233.788C510.066 233.054 511.021 232.769 511.423 233.383L512.745 235.402C512.946 235.708 513.342 235.821 513.676 235.666L515.398 234.866C515.806 234.676 515.951 234.17 515.705 233.793L513.387 230.237C513.213 229.971 513.23 229.623 513.429 229.373L514.467 228.075C514.853 227.591 514.508 226.876 513.889 226.876H512.25C512.15 226.876 512.051 226.896 511.96 226.935C511.322 227.207 510.695 226.531 511.013 225.916L511.418 225.136C511.563 224.857 511.869 224.699 512.18 224.745L516.908 225.428C517.171 225.465 517.434 225.359 517.597 225.151L519.842 222.273C520.154 221.874 519.981 221.288 519.502 221.122L517.98 220.592C517.615 220.466 517.214 220.641 517.059 220.995L516.353 222.613C516.241 222.869 515.995 223.04 515.716 223.056L511.125 223.308C510.851 223.324 510.608 223.489 510.494 223.738ZM513.731 199.938L515.221 201.421C515.355 201.554 515.454 201.718 515.51 201.899L516.534 205.213C516.684 205.698 517.132 206.028 517.639 206.028H518.09C518.728 206.028 519.246 205.511 519.246 204.873V202.806C519.246 202.507 519.131 202.221 518.924 202.005L515.382 198.319C514.852 197.767 513.94 197.873 513.551 198.533C513.283 198.987 513.357 199.566 513.731 199.938ZM511.977 209.519C511.856 210.616 512.855 211.505 513.932 211.257L514.224 211.19C514.932 211.027 515.662 211.36 516.002 212.001L517.097 214.066C517.572 214.962 518.749 215.198 519.533 214.555L522.152 212.408C522.631 212.015 522.841 211.38 522.691 210.78L521.892 207.589C521.677 206.728 520.802 206.206 519.941 206.425L513.177 208.14C512.528 208.305 512.05 208.854 511.977 209.519ZM509.706 190.446L508.247 194.953C508.11 195.374 508.154 195.833 508.368 196.22L509.084 197.522C509.585 198.432 510.804 198.635 511.573 197.936C511.908 197.632 512.099 197.201 512.099 196.749V194.806C512.099 194.49 512.193 194.179 512.368 193.916L513.76 191.831C514.471 190.764 513.706 189.335 512.423 189.335H511.234C510.538 189.335 509.921 189.785 509.706 190.446ZM510.077 176.957L508.773 178.023C508.337 178.379 508.197 178.984 508.431 179.495L509.735 182.337C509.936 182.777 510.376 183.059 510.86 183.059C511.544 183.059 512.099 182.504 512.099 181.821V177.915C512.099 176.871 510.885 176.296 510.077 176.957ZM488.606 225.81L492.294 230.912C492.596 231.328 493.02 231.64 493.508 231.803L499.673 233.856C500.803 234.232 502.041 233.743 502.608 232.697L507.424 223.814C507.806 223.11 507.819 222.265 507.461 221.549L505.375 217.38C504.903 216.436 505.088 215.295 505.835 214.549C506.956 213.428 506.736 211.555 505.386 210.725L504.006 209.877C502.745 209.101 501.089 209.61 500.481 210.96L497.462 217.662C497.285 218.054 497.009 218.393 496.66 218.644L493.198 221.142C492.908 221.352 492.576 221.495 492.224 221.563L490.133 221.965C488.37 222.303 487.555 224.356 488.606 225.81ZM485.418 236.559C484.587 238.386 485.46 240.537 487.332 241.268L493.377 243.632C494.522 244.08 495.817 243.895 496.791 243.146L498.016 242.205C499.84 240.803 499.84 238.056 498.016 236.655L496.166 235.233C495.553 234.762 494.802 234.507 494.03 234.507H488.608C487.234 234.507 485.987 235.309 485.418 236.559ZM467.216 224.026L470.889 230.72C471.013 230.945 471.181 231.142 471.383 231.298L478.238 236.625C479.14 237.326 480.453 237.066 481.02 236.075L483.026 232.568C483.512 231.717 483.262 230.636 482.45 230.086L470.152 221.748C470.111 221.72 470.072 221.691 470.033 221.661C468.431 220.38 466.229 222.229 467.216 224.026ZM368.662 253.621L364.058 258.639C363.475 259.275 363.092 260.069 362.959 260.923L361.49 270.311C361.075 272.968 363.131 275.369 365.822 275.369H367.341C369.254 275.369 370.946 274.129 371.522 272.307L376.076 257.9C376.332 257.091 376.347 256.225 376.119 255.409C375.198 252.095 370.989 251.085 368.662 253.621ZM380.902 140.638V148.9C380.902 150.773 379.383 152.29 377.51 152.29H375.919C374.045 152.29 372.525 150.773 372.525 148.9V144.229C372.525 143.703 372.403 143.183 372.167 142.713L368.742 135.867C367.859 134.103 368.664 131.961 370.492 131.214L374.302 129.656C376.221 128.872 378.389 129.975 378.883 131.987L380.805 139.831C380.87 140.095 380.902 140.366 380.902 140.638ZM351.39 130.892L351.497 131.428C351.707 132.474 352.397 133.361 353.361 133.821L359.308 136.664C361.279 137.605 361.858 140.135 360.494 141.839C359.711 142.817 358.451 143.284 357.219 143.054L343.763 140.533C343.557 140.494 343.348 140.475 343.138 140.475H336.723C334.177 140.475 332.538 137.778 333.712 135.521L336.59 129.993C337.173 128.871 338.334 128.167 339.6 128.167H348.063C349.68 128.167 351.073 129.307 351.39 130.892ZM259.584 161.261L256.447 164.913C256.346 165.031 256.248 165.153 256.154 165.277L246.046 178.589C244.303 180.884 243.978 183.955 245.2 186.564L245.779 187.798C246.782 189.937 246.754 192.416 245.704 194.532C244.216 197.528 244.82 201.14 247.201 203.492L258.896 215.037C260.349 216.472 262.309 217.276 264.351 217.276H271.018H274.201C275.35 217.276 276.484 217.021 277.523 216.529L284.543 213.207C285.01 212.986 285.563 213.053 285.964 213.381L290.358 216.973C290.598 217.169 290.897 217.276 291.206 217.276H294.81C295.549 217.276 296.149 217.874 296.149 218.613V228.149C296.149 228.769 296.293 229.379 296.57 229.934L303.304 243.389C303.771 244.323 303.854 245.401 303.534 246.395L300.082 257.127C299.771 258.092 299.84 259.14 300.275 260.057L303.648 267.173C303.901 267.707 304.033 268.291 304.033 268.881V276.13C304.033 276.918 304.266 277.687 304.703 278.343L314.673 293.284C315.414 294.394 316.661 295.061 317.997 295.061H329.581C330.866 295.061 332.072 294.444 332.822 293.402L339.744 283.798C340.233 283.119 340.496 282.303 340.496 281.466V278.379C340.496 276.597 341.679 275.031 343.394 274.542L344.498 274.226C346.213 273.737 347.395 272.171 347.395 270.389V266.191C347.395 265.132 347.816 264.117 348.565 263.369L356.081 255.861C356.829 255.112 357.25 254.097 357.25 253.038V242.951C357.25 242.256 357.069 241.574 356.724 240.971L354.843 237.682C353.939 236.103 354.22 234.112 355.525 232.843L371.228 217.566C371.754 217.054 372.129 216.407 372.311 215.696L373.885 209.551C374.833 205.849 371.497 202.469 367.779 203.364C364.971 204.04 362.029 203.003 360.269 200.716L358.236 198.075L352.816 195.121L344.28 171.783C344.119 171.341 344.695 171.01 344.996 171.371L355.772 184.291L361.238 195.448C362.89 198.821 366.833 200.394 370.356 199.085L385.53 193.447C386.041 193.257 386.468 192.89 386.73 192.412L391.028 184.604C391.463 183.815 391.39 182.844 390.843 182.129L386.614 176.605C385.893 175.663 384.568 175.433 383.572 176.077L379.064 178.992C377.937 179.721 376.426 179.32 375.809 178.129L371.285 169.391C370.503 167.878 371.601 166.075 373.305 166.075C374.051 166.075 374.75 166.441 375.175 167.054L378.207 171.429C378.657 172.079 379.413 172.448 380.202 172.405L386.786 172.039C387.432 172.003 388.062 172.244 388.52 172.701L391.077 175.256C391.503 175.682 392.082 175.921 392.685 175.921H404.539C405.177 175.921 405.784 176.191 406.212 176.663L414.665 185.997C414.822 186.172 414.952 186.369 415.048 186.583L424.401 207.304C425.162 208.989 427.516 209.093 428.423 207.482L434.882 196.011C435.029 195.749 435.228 195.519 435.466 195.335L452.331 182.276C453.551 181.331 455.339 181.863 455.844 183.321L458.635 191.376C458.992 192.405 460.032 193.032 461.109 192.866L463.552 192.491C464.733 192.309 465.851 193.08 466.101 194.248L467.578 201.158C467.61 201.313 467.627 201.471 467.627 201.629V207.443C467.627 207.759 467.693 208.07 467.821 208.359L471.399 216.401C471.511 216.654 471.669 216.884 471.865 217.079L473.172 218.385C474.826 220.037 477.594 218.392 476.93 216.151L475.64 211.803C475.555 211.516 475.413 211.249 475.224 211.017L471.586 206.575C471.256 206.173 471.076 205.668 471.076 205.148C471.076 202.908 473.993 202.04 475.22 203.915L478.002 208.166C478.763 209.328 480.385 209.534 481.411 208.597L488.295 202.316C488.941 201.727 489.308 200.893 489.308 200.019V195.956C489.308 194.832 488.702 193.796 487.722 193.245L484.418 191.389C482.815 190.487 482.339 188.401 483.394 186.895L483.568 186.646C484.346 185.537 485.752 185.057 487.047 185.462L491.29 186.786C492.215 187.075 493.222 186.917 494.014 186.359L508.533 176.118C509.163 175.675 509.605 175.014 509.775 174.263L512.744 161.127C512.885 160.502 512.83 159.849 512.586 159.257L510.073 153.16C509.717 152.298 509.768 151.322 510.21 150.501L511.764 147.619C512.461 146.325 513.971 145.695 515.383 146.11L519.777 147.401C520.754 147.688 521.529 148.435 521.851 149.401L522.852 152.398C523.545 154.476 526.113 155.206 527.797 153.804C529.125 152.699 529.297 150.724 528.181 149.406L526.372 147.269C525.442 146.172 525.387 144.581 526.238 143.421L529.274 139.284C529.86 138.485 530.793 138.013 531.784 138.013H538.21C539.351 138.013 540.401 137.389 540.946 136.387L549.088 121.401C549.309 120.995 549.424 120.54 549.424 120.078V112.723C549.424 111.192 548.183 109.952 546.651 109.952C544.127 109.952 542.915 106.859 544.767 105.146L554.047 96.5657C554.56 96.0916 555.233 95.8286 555.931 95.8286H570.731C571.296 95.8286 571.847 95.6564 572.311 95.3357L583.205 87.7979C583.669 87.4767 584.22 87.3051 584.784 87.3051H588.612C591.142 87.3051 592.352 90.4113 590.486 92.1192L579.082 102.563C578.408 103.182 578.081 104.093 578.211 104.998L579.62 114.853C579.954 117.191 582.875 118.067 584.442 116.299L595.046 104.338C595.495 103.831 595.743 103.177 595.743 102.5V97.881C595.743 96.662 596.541 95.5855 597.708 95.2305L607.569 92.2283L619.395 87.3051H624.323L638.058 74.2941C639.678 72.7595 639.126 70.0597 637.035 69.2817L611.378 59.743C610.527 59.4268 609.579 59.5099 608.796 59.9701L602.447 63.7016C601.932 64.0045 601.337 64.1474 600.74 64.1125L586.044 63.2486C585.309 63.2054 584.614 62.8947 584.093 62.3758L574.452 52.7845C573.886 52.2219 573.121 51.9062 572.323 51.9062H549.133C548.371 51.9062 547.636 52.1947 547.077 52.7148L541.218 58.1669C540.494 58.8409 539.485 59.1172 538.519 58.9062L526.667 56.3205C525.281 56.0182 524.294 54.7926 524.294 53.376V51.281C524.294 49.887 523.337 48.6753 521.981 48.3497L514.03 46.4435C512.796 46.1478 511.509 46.6545 510.809 47.7117L509.312 49.9734C508.558 51.1132 507.131 51.6033 505.835 51.168L496.563 48.0556C494.112 47.2321 493.765 43.9104 495.995 42.6001L497.023 41.996C498.029 41.4045 498.603 40.2864 498.498 39.1251L498.406 38.1238C498.274 36.6701 497.119 35.5199 495.663 35.3936L465.039 32.7331C464.476 32.6844 463.911 32.794 463.408 33.0505L440.694 44.6199C439.684 45.1344 439.047 46.1716 439.047 47.3052V47.4736C439.047 48.6466 438.366 49.7132 437.302 50.2072L426.936 55.0202C425.902 55.4998 424.686 55.3569 423.793 54.6497L421.715 53.0072C420.856 52.3276 419.695 52.167 418.683 52.5879L407.205 57.3611C405.935 57.8895 405.183 59.2092 405.378 60.5704C405.686 62.7269 403.673 64.488 401.574 63.8982L393.119 61.5224C391.535 61.0771 389.886 61.9826 389.412 63.5576L389.373 63.6922C389.018 64.8707 387.982 65.7163 386.756 65.8276L373.265 67.0532C372.779 67.0969 372.311 67.2581 371.902 67.5228L351.073 80.9635C350.352 81.4292 349.41 81.3694 348.753 80.8167L346.196 78.6652C345.012 77.6695 345.401 75.7589 346.881 75.3042L354.001 73.1178C354.195 73.058 354.378 72.9689 354.545 72.8531C355.763 72.0042 355.627 70.1617 354.296 69.5015L327.661 56.2801C327.062 55.9827 326.353 56.0121 325.78 56.3576L301.831 70.8096C301.658 70.9143 301.501 71.0455 301.368 71.1984L285.289 89.6421C284.717 90.2989 284.649 91.2548 285.122 91.9858L288.919 97.8488C289.404 98.597 290.334 98.9227 291.181 98.6402L297.548 96.5131C298.645 96.147 299.82 96.8072 300.074 97.9347L301.171 102.778C301.396 103.771 302.346 104.425 303.354 104.281L307.407 103.703C308.068 103.608 308.634 103.184 308.911 102.577L313.088 93.3952C313.286 92.9604 313.318 92.4687 313.177 92.0124L311.787 87.4978C311.565 86.7784 311.777 85.9959 312.332 85.4858L321.704 76.8731C322.065 76.5414 322.537 76.3576 323.027 76.3576H324.479C326.216 76.3576 327.09 78.4509 325.869 79.6842L319.308 86.3099C318.719 86.9047 318.575 87.8085 318.949 88.5572L320.215 91.0869C320.562 91.7803 321.287 92.2029 322.062 92.1646L329.472 91.7942C330.192 91.7582 330.873 92.1209 331.245 92.7384L331.323 92.8685C332.107 94.1705 331.169 95.8286 329.648 95.8286H326.535C325.515 95.8286 324.666 96.6122 324.587 97.6284L324.329 100.893C324.272 101.619 323.814 102.253 323.144 102.537L308.374 108.797C308.111 108.909 307.827 108.961 307.541 108.951L294.721 108.494C294.366 108.481 294.013 108.565 293.702 108.738L285.397 113.348C285.338 113.381 285.281 113.418 285.228 113.46L276.054 120.556C272.772 123.094 272.27 127.855 274.952 131.021C275.261 131.387 275.352 131.891 275.188 132.342L273.803 136.148C273.61 136.677 273.107 137.028 272.544 137.028H268.101C264.362 137.028 261.418 140.215 261.716 143.938L262.078 148.454C262.121 148.989 262.479 149.447 262.989 149.616L270.546 152.133C270.85 152.235 271.182 152.223 271.479 152.101L278.566 149.185C279.068 148.979 279.395 148.49 279.395 147.948V145.708C279.395 142.225 281.443 139.067 284.626 137.644L291.859 134.412C294.895 133.055 298.354 135.136 298.576 138.451C298.599 138.801 298.76 139.128 299.022 139.362L306.71 146.189C307.164 146.593 307.835 146.64 308.342 146.302L309.408 145.592C309.99 145.205 310.175 144.435 309.833 143.826L303.899 133.239C303.676 132.84 303.671 132.354 303.889 131.951L305.481 128.996C306.043 127.953 307.585 128.101 307.938 129.231L309.382 133.847C309.429 133.998 309.502 134.139 309.598 134.264L314.331 140.41C314.364 140.453 314.395 140.498 314.422 140.545L320.088 150.125C320.471 150.772 321.312 150.977 321.95 150.579L323.962 149.322C324.425 149.033 324.666 148.493 324.572 147.955C324.311 146.481 326.301 145.758 327.05 147.054L329.674 151.599C330.259 152.612 331.4 153.17 332.559 153.009L340.924 151.848C344.469 151.356 347.372 154.628 346.458 158.085L345.497 161.722C345.164 162.982 344.022 163.86 342.718 163.86H334.355C334.179 163.86 334.003 163.843 333.831 163.811L319.641 161.179C317.951 160.865 316.24 161.608 315.318 163.057C314.209 164.797 312.002 165.478 310.104 164.666L297.233 159.154C296.613 158.889 296.288 158.205 296.473 157.557L297.597 153.626C297.851 152.736 297.145 151.863 296.22 151.925L275.946 153.275L274.791 153.385C268.893 153.946 263.442 156.769 259.584 161.261ZM230.129 74.8878L239.283 81.7471H250.726L256.295 73.2541L240.264 70.968L230.129 74.8878ZM146.71 39.8694L160.225 40.5001C160.962 40.5345 161.662 40.8363 162.192 41.3491L176.816 55.4738C177.29 55.9318 177.602 56.5316 177.704 57.1823L182.283 86.2423C182.373 86.8122 182.623 87.3449 183.005 87.7775L187.06 92.369C188.504 94.0044 191.153 93.6272 192.082 91.6535L197.504 80.1428C198.004 79.08 199.074 78.4016 200.25 78.4016H205.7C206.557 78.4016 207.373 78.04 207.948 77.4054L213.97 70.7664C214.307 70.3953 214.731 70.1129 215.205 69.9451L229.303 64.9471C230.002 64.6995 230.585 64.2044 230.944 63.5559L240.014 47.1596C240.418 46.428 240.503 45.5619 240.247 44.7655L235.997 31.5469C235.566 30.2056 236.116 28.7446 237.324 28.0197L249.748 20.5661C252.102 19.1534 251.518 15.5919 248.835 15.0044L237.685 12.5632C237.608 12.546 237.531 12.5322 237.452 12.5216L205.211 8.04917C204.897 8.00598 204.577 8.01149 204.265 8.06687L166.706 14.7197C166.244 14.8016 165.808 14.9894 165.431 15.2679L153.58 24.029C153.314 24.2262 153.017 24.3779 152.702 24.4793L141.722 27.997C139.771 28.6217 138.988 30.9588 140.168 32.6312L144.371 38.5873C144.911 39.3527 145.774 39.8256 146.71 39.8694ZM88.8519 29.8971L88.9373 30.1247C89.2516 30.9621 90.053 31.5164 90.9477 31.5164H91.1173C92.8839 31.5164 93.8949 29.5045 92.839 28.089L92.6693 27.8613C92.2641 27.318 91.6256 26.998 90.9477 26.998H90.8623C89.3629 26.998 88.3253 28.4943 88.8519 29.8971ZM75.3964 30.9299C75.7168 31.3093 76.1591 31.5657 76.6474 31.656L82.5612 32.7459C84.361 33.0776 85.7246 31.152 84.8122 29.567L84.4391 28.9191C84.0866 28.306 83.4542 27.9062 82.7485 27.8497L77.2084 27.4078C75.306 27.256 74.1658 29.4729 75.3964 30.9299ZM101.639 46.0132H124.415C124.843 46.0132 125.19 45.6666 125.19 45.2396V41.2494C125.19 40.854 124.891 40.5218 124.496 40.4802L118.186 39.8168C118.083 39.8057 117.978 39.8157 117.879 39.8461L108.43 42.7309C108.091 42.8344 107.725 42.6949 107.542 42.3919L106.405 40.5179C106.17 40.1313 106.316 39.6274 106.721 39.4252L109.907 37.833C110.043 37.7655 110.195 37.7389 110.345 37.7566L126.584 39.6966C127.046 39.752 127.451 39.3926 127.451 38.9285V35.4367C127.451 35.2185 127.543 35.0098 127.706 34.8636L133.875 29.2868C134.4 28.8117 134.064 27.9394 133.355 27.9394C132.503 27.9394 132.277 26.7643 133.068 26.4481L138.716 24.1907C138.743 24.1797 138.77 24.1675 138.796 24.1537L148.52 18.9219C148.543 18.9092 148.568 18.8975 148.592 18.8876L159.111 14.5602C159.809 14.2728 159.725 13.2582 158.988 13.091L136.654 8.01927C136.55 7.99545 136.442 7.99378 136.337 8.01371L102.662 14.4566C102.022 14.579 101.81 15.3864 102.307 15.8068L105.782 18.7441C105.904 18.8477 106.055 18.9103 106.214 18.9241L118.642 20.0201C118.735 20.0284 118.829 20.0195 118.919 19.9946L121.483 19.2769C122.373 19.0282 122.872 20.2654 122.059 20.7029L118.557 22.5869C118.457 22.6407 118.348 22.6717 118.235 22.6783L112.152 23.0355C112.051 23.0416 111.95 23.0278 111.855 22.9945L101.179 19.3173C101.107 19.2918 101.039 19.2564 100.977 19.2115L97.2783 16.5245C97.0588 16.3645 96.7717 16.3318 96.5217 16.4376L88.1557 19.9736C87.6574 20.184 87.5238 20.827 87.8963 21.2191L94.1648 27.812C94.2452 27.8957 94.3428 27.961 94.4514 28.002L103.398 31.3985C103.596 31.4738 103.816 31.4649 104.007 31.373L110.304 28.3531C111.033 28.0037 111.743 28.8637 111.261 29.5117L108.335 33.4464C108.267 33.5394 108.177 33.6153 108.075 33.6696L101.392 37.1835C101.188 37.2909 100.947 37.3014 100.734 37.2128L93.0973 34.034C92.5873 33.8213 92.0252 34.1957 92.0252 34.7478V37.1192C92.0252 37.477 92.2708 37.7882 92.6195 37.8713L98.5698 39.2929C98.8348 39.3566 99.0471 39.5543 99.1286 39.814L100.9 45.4705C101.002 45.7934 101.3 46.0132 101.639 46.0132ZM80.7171 38.7064L85.3122 43.6031C85.6331 43.9453 86.0571 44.1729 86.52 44.251L93.0568 45.3581C94.7297 45.6416 96.055 43.9658 95.3926 42.4052L94.8416 41.1077C94.5052 40.3152 93.7269 39.8001 92.865 39.8001H91.0225C90.2454 39.8001 89.5287 39.3809 89.149 38.7031L87.7411 36.1905C87.3614 35.5132 86.6447 35.0934 85.8676 35.0934H82.284C80.4039 35.0934 79.4317 37.3363 80.7171 38.7064ZM59.1306 33.5112L59.5734 34.0373C60.115 34.6808 60.9825 34.9489 61.7934 34.7235L66.3348 33.4597C67.2632 33.2016 67.9056 32.3565 67.9056 31.3929V30.7566C67.9056 29.3394 66.5548 28.3121 65.1874 28.6887L60.2031 30.0627C58.6949 30.4781 58.124 32.3144 59.1306 33.5112ZM44.3908 39.8173L58.3257 45.784C58.6738 45.9329 59.0602 45.9706 59.4304 45.8908L69.3496 43.7676C71.2608 43.3583 71.2868 40.6436 69.3845 40.1972L60.6676 38.1537C60.5313 38.1221 60.3994 38.0745 60.2741 38.0125L52.0683 33.9559C51.5949 33.7217 51.044 33.7034 50.5556 33.9049L44.4118 36.4447C42.9141 37.0644 42.9008 39.1793 44.3908 39.8173ZM59.7098 50.7371L41.785 46.6706C40.0833 46.2846 38.3384 47.1097 37.558 48.6687L36.4599 50.8623C35.6739 52.4334 36.073 54.3385 37.4233 55.4627L38.1627 56.0785C39.0917 56.8516 40.3339 57.1357 41.5068 56.8428L44.2561 56.1561C45.1662 55.9285 46.129 56.0469 46.9571 56.4883L50.8677 58.5723C51.1703 58.7334 51.4497 58.935 51.6975 59.171L57.685 64.8679C58.6483 65.785 60.0224 66.1294 61.3051 65.7761L69.0796 63.6329C69.7891 63.4374 70.5402 63.4529 71.2414 63.6767L77.9456 65.8204C78.9893 66.1538 80.1267 66.0198 81.064 65.4521C83.3444 64.0715 83.5213 60.8312 81.4038 59.2108L78.001 56.6069C77.3209 56.0863 76.8375 55.3508 76.6297 54.5201L75.9263 51.7085C75.4424 49.7752 73.5406 48.5474 71.5773 48.9018L61.2225 50.7709C60.7209 50.8612 60.2065 50.8496 59.7098 50.7371ZM89.0121 57.056L91.2143 54.4891C91.7159 53.9043 91.8651 53.0963 91.6062 52.3714L90.7958 50.1036C90.4239 49.0641 89.3241 48.476 88.2527 48.744L83.2679 49.9889C81.6488 50.3932 81.0901 52.408 82.2702 53.587L85.8631 57.1767C86.7478 58.0606 88.1978 58.0046 89.0121 57.056ZM98.9124 48.2722H96.4336C95.2479 48.2722 94.2868 49.2324 94.2868 50.4176V51.3984C94.2868 52.583 95.2479 53.5438 96.4336 53.5438H98.036C98.6474 53.5438 99.23 53.2829 99.6374 52.8272L100.514 51.8464C101.75 50.4641 100.768 48.2722 98.9124 48.2722ZM107.712 50.8291L107.298 52.0114C106.575 54.0738 107.728 56.32 109.826 56.9364L124.494 61.2466C124.954 61.3812 125.384 61.6016 125.762 61.8956L130.609 65.662C131.476 66.336 132.012 67.35 132.078 68.4454L132.602 77.093C132.68 78.3756 133.398 79.533 134.514 80.1732L146.652 87.14C148.658 88.2908 151.218 87.4131 152.094 85.2748L153.559 81.6967C153.739 81.2565 154 80.8533 154.329 80.5088L157.297 77.3943C159.209 75.389 158.415 72.0817 155.802 71.1602L151.105 69.5037C149.577 68.9649 148.556 67.5222 148.556 65.9029C148.556 64.545 147.833 63.289 146.659 62.6051L135.552 56.1311C135.179 55.9141 134.845 55.6349 134.566 55.306L129.726 49.6179C129 48.764 127.935 48.2722 126.814 48.2722H111.319C109.695 48.2722 108.248 49.2978 107.712 50.8291ZM58.0253 69.7568L68.3275 70.0996C68.5409 70.1068 68.7482 70.0321 68.9078 69.8903C70.8146 68.1968 73.5484 67.8025 75.857 68.8879L78.2898 70.0321C78.4006 70.0841 78.5215 70.1107 78.644 70.1107H93.4736C93.7469 70.1107 94.0024 69.9772 94.1576 69.7529L96.8404 65.8813C97.0971 65.5108 97.0122 65.0041 96.6486 64.7377L92.0829 61.3922C91.8185 61.199 91.6927 60.8684 91.7614 60.5483L92.6383 56.4601C92.7203 56.0769 93.0596 55.8027 93.4514 55.8027H98.1502C98.536 55.8027 98.8713 56.068 98.96 56.4435L100.285 62.0701C100.306 62.1587 100.341 62.2434 100.389 62.3204L103.419 67.1634C103.735 67.6684 104.464 67.6873 104.806 67.1994L105.661 65.9788C106.073 65.3912 106.986 65.5651 107.152 66.2629L108.213 70.7144C108.373 71.3878 109.239 71.5816 109.672 71.0411L112.822 67.1069C113.012 66.8693 113.057 66.5481 112.94 66.2679L111.948 63.8893C111.674 63.2314 112.302 62.5558 112.98 62.7812L119.871 65.0767C120.516 65.291 120.645 66.1466 120.091 66.5415L119.382 67.0471C119.04 67.2913 118.934 67.7526 119.136 68.1215L120.734 71.0499C120.917 71.3833 120.849 71.7981 120.57 72.0567L116.193 76.1178C115.938 76.3548 115.857 76.7253 115.991 77.0465L117.411 80.4523C117.554 80.7946 117.453 81.19 117.163 81.4215L114.358 83.6627C114.076 83.8892 113.679 83.9064 113.377 83.7054L110.928 82.0739C110.661 81.8967 110.52 81.5815 110.566 81.2648L110.814 79.527C110.934 78.6891 109.87 78.2294 109.341 78.8901L108.321 80.1644C108.261 80.2391 108.189 80.3028 108.108 80.3532L104.045 82.8509C103.652 83.0929 103.531 83.6079 103.775 83.9994L104.336 84.8949C104.699 85.4753 104.244 86.2207 103.561 86.1642L101.045 85.9543C100.82 85.9355 100.597 86.0092 100.428 86.157L95.0162 90.8881C94.7973 91.0798 94.6942 91.3716 94.7446 91.6579L95.5727 96.3447C95.6769 96.9356 96.3537 97.2247 96.8537 96.8919C97.3869 96.5363 98.1053 96.8924 98.1452 97.5315L98.3714 101.146C98.403 101.655 98.883 102.016 99.3824 101.905L101.608 101.411C101.75 101.379 101.897 101.385 102.035 101.428L117.167 106.108C117.465 106.2 117.686 106.45 117.741 106.757L118.723 112.318C118.761 112.536 118.885 112.731 119.066 112.858L123.694 116.123C124.281 116.537 125.084 116.072 125.016 115.357L124.436 109.27L129.548 104.843C129.859 104.574 129.927 104.118 129.707 103.771L125.922 97.7829C125.714 97.4545 125.762 97.0259 126.037 96.7512L128.099 94.6905C128.38 94.4103 128.423 93.9717 128.203 93.6416L124.671 88.3484C124.364 87.8888 124.583 87.2635 125.109 87.0957L133.152 84.5244C133.362 84.4569 133.591 84.4762 133.788 84.5776L143.825 89.765C144.168 89.9422 144.344 90.331 144.25 90.7048L143.369 94.2287C143.311 94.4557 143.354 94.6966 143.483 94.8916L145.157 97.3986C145.379 97.7325 145.808 97.8599 146.177 97.7015L150.494 95.853C150.7 95.7649 150.862 95.5971 150.942 95.3878L151.991 92.6653C152.255 91.978 153.217 91.9487 153.524 92.6182L158.599 103.71C158.684 103.896 158.834 104.044 159.022 104.126L164.761 106.634L173.402 112.905C173.855 113.234 173.866 113.905 173.425 114.248L168.455 118.11C168.374 118.173 168.282 118.22 168.184 118.25L160.812 120.492C160.736 120.515 160.664 120.549 160.597 120.592L153.632 125.13C153.3 125.347 153.164 125.766 153.306 126.136L154.474 129.168C154.619 129.543 155.008 129.763 155.403 129.695L161.373 128.657C161.886 128.568 162.358 128.964 162.358 129.485V131.479C162.358 131.864 162.095 132.2 161.72 132.294L155.93 133.74C155.791 133.775 155.663 133.844 155.559 133.942L151.365 137.871C150.917 138.29 150.186 138.105 149.992 137.524L149.526 136.127C149.452 135.908 149.474 135.667 149.583 135.463L150.73 133.336C151.09 132.667 150.446 131.901 149.723 132.141L143.162 134.326C142.916 134.408 142.722 134.599 142.635 134.844L140.909 139.731C140.827 139.961 140.649 140.145 140.421 140.234L135.22 142.255C134.961 142.355 134.768 142.579 134.705 142.851L132.233 153.656C132.18 153.89 132.029 154.09 131.818 154.206L122.394 159.369C122.075 159.544 121.905 159.904 121.972 160.261L124.124 171.625C124.162 171.824 124.126 172.03 124.024 172.205L122.687 174.496C122.341 175.088 121.47 175.04 121.192 174.414L118.066 167.387C117.947 167.121 117.7 166.935 117.411 166.895L105.066 165.214C104.356 165.117 103.858 165.894 104.242 166.497C104.676 167.177 103.994 168.018 103.238 167.734L98.0853 165.804C97.8015 165.698 97.4823 165.752 97.25 165.947L87.781 173.882C87.5127 174.106 87.4118 174.474 87.5277 174.803L91.8257 187.073C91.9233 187.352 92.1594 187.558 92.4482 187.618L99.439 189.073C99.7521 189.139 100.075 189.021 100.272 188.77L103.409 184.78C103.533 184.623 103.709 184.515 103.905 184.476L109.133 183.431C109.685 183.321 110.187 183.774 110.135 184.333L109.324 192.972C109.28 193.44 109.629 193.853 110.097 193.889L116.942 194.415C117.441 194.453 117.796 194.914 117.705 195.406L116.216 203.433L118.871 207.753L128.388 208.312C129.507 208.378 130.597 207.935 131.353 207.108L133.604 204.644C134.308 203.873 135.305 203.433 136.35 203.433H141.498C142.232 203.433 142.95 203.651 143.561 204.058L144.846 204.914C145.753 205.518 146.881 205.694 147.93 205.394L153.408 203.831C154.303 203.575 155.261 203.664 156.093 204.08L176.729 214.389C177.508 214.777 178.125 215.427 178.473 216.223L181.484 223.098C181.934 224.125 182.824 224.895 183.906 225.192L210.509 232.488C212.124 232.93 213.244 234.397 213.244 236.07V242.303C213.244 243.487 212.679 244.6 211.724 245.3L205.341 249.976C204.553 250.553 204.025 251.417 203.869 252.38L201.431 267.48C201.208 268.862 200.227 270.001 198.893 270.428L187.413 274.098C186.416 274.417 185.6 275.14 185.165 276.092L177.019 293.895C176.456 295.124 175.27 295.951 173.921 296.055L171.626 296.231C169.689 296.38 168.193 297.994 168.193 299.936C168.193 301.203 167.547 302.382 166.479 303.065L154.037 311.021C153.348 311.462 152.823 312.119 152.544 312.889L145.488 332.412C145.21 333.181 145.193 334.02 145.442 334.8L147.146 340.152C148.06 343.022 145.357 345.729 142.483 344.822L139.881 344.002C138.572 343.588 137.597 342.487 137.346 341.138L132.998 317.791C132.922 317.383 132.915 316.966 132.977 316.556L137.754 284.938L141.028 264.22C141.258 262.764 140.606 261.311 139.365 260.515L133.599 256.81C133.128 256.508 132.731 256.103 132.439 255.627L121.799 238.283C121.482 237.766 121.296 237.179 121.258 236.573L120.834 229.79C120.755 228.527 121.325 227.311 122.347 226.562L128.319 222.186C129.275 221.486 129.839 220.374 129.839 219.19V215.665C129.839 213.613 128.174 211.949 126.121 211.949H122.803C122.225 211.949 121.656 211.815 121.14 211.557L113.402 207.692L109.14 201.001H101.835L95.8643 196.229C95.7867 196.166 95.6991 196.119 95.6049 196.087L75.949 189.541C75.7606 189.478 75.6004 189.351 75.4967 189.181L64.4951 171.155C63.9707 170.296 62.6537 170.916 62.9824 171.866L64.2434 175.514C64.5543 176.413 63.3654 177.055 62.7834 176.302L51.3056 161.465L37.303 142.609L40.3472 123.145L22.6923 112.805L12.3431 98.2071L-5.35228 92.3142C-5.72145 92.1912 -6.1205 92.1896 -6.49132 92.3086L-24.5198 98.1191C-24.701 98.1778 -24.89 98.2071 -25.0807 98.2071H-30.9468C-31.301 98.2071 -31.648 98.1041 -31.9451 97.9109L-43.1708 90.5963C-44.2699 89.8802 -44.2777 88.2748 -43.1863 87.5476L-35.3867 82.3524C-34.2061 81.5666 -34.3336 79.7944 -35.6146 79.1853L-38.1898 77.9597C-39.948 77.1235 -39.3516 74.4857 -37.4044 74.4857C-35.476 74.4857 -34.8624 71.8889 -36.5874 71.0272L-41.448 68.5988C-42.918 67.8645 -42.7461 65.7163 -41.1786 65.224L-30.2036 61.7782C-26.2475 60.5355 -22.0526 60.2486 -17.9636 60.9398L7.97909 65.3259C12.8059 66.1422 17.7669 65.4887 22.2167 63.4512C27.2536 61.1447 32.9263 60.6197 38.3013 61.9621L56.2627 66.4484C56.5803 66.5276 56.8219 66.7857 56.8796 67.1075L57.2343 69.0734C57.3036 69.4589 57.6334 69.7435 58.0253 69.7568Z" fill="#492FB2"/>
<path d="M381.814 292.792C389.929 290.882 396.664 291.177 402.747 293.405C392.239 300.741 387.342 309.334 389.876 310.915C392.409 312.497 398.482 301.571 412.024 298.57C413.605 299.76 415.165 301.093 416.721 302.562C412.968 303.564 407.391 308.445 408.418 310.585C409.445 312.725 416.544 308.205 421.324 307.301C422.299 308.383 423.28 309.516 424.269 310.699C418.468 311.796 409.911 319.1 410.997 320.926C412.082 322.753 422.35 316.963 428.381 315.822C432.869 321.61 437.628 328.318 443 335.817C436.66 337.176 431.182 339.32 426.295 341.837C421.39 341.137 418.576 338.152 417.307 338.927C416.037 339.701 417.414 343.517 420.241 345.296C417.485 347.018 414.913 348.816 412.459 350.592C398.86 344.881 393.185 333.893 390.845 335.049C388.505 336.205 401.046 350.952 406.626 354.857C396.579 362.144 387.76 367.446 374.744 362.542C349.424 353.001 372.072 323.556 372.072 323.556C372.072 323.556 355.129 299.072 381.814 292.792Z" fill="#290773"/>
<path d="M363.782 354.555C368.824 356.093 404.781 356.534 416.02 351.283C427.259 346.033 433.232 330.308 425.042 325.596C416.852 320.885 420.694 333.983 406.867 326.867C393.04 319.752 394.667 324.242 392.872 331.438C391.077 338.634 374.065 310.98 361.49 314.913C348.914 318.846 326.714 330.422 332.081 338.339C337.448 346.257 358.74 353.018 363.782 354.555Z" fill="#01A64B"/>
<path d="M363.782 354.555C368.824 356.093 404.78 356.534 416.019 351.283C427.259 346.033 433.232 330.308 425.042 325.596C428.534 335.728 417.404 344.401 408.991 345.486C400.579 346.572 386.109 348.851 380.725 348.851C375.341 348.851 352.795 345.15 361.49 314.913C348.914 318.846 326.714 330.422 332.081 338.34C337.448 346.257 358.739 353.018 363.782 354.555Z" fill="#058A4A"/>
<path d="M343.72 288.222C342.686 286.837 339.378 288.612 339.378 288.612C339.378 288.612 349.185 298.537 351.174 300.864C353.164 303.191 359.039 311.106 363.015 315.391C368.098 320.868 372.931 331.329 374.886 332.617C376.841 333.906 378.247 337.119 380.428 335.163C382.608 333.207 373.025 322.147 369.614 317.579C366.203 313.011 359.558 306.329 356.962 303.739C354.367 301.15 350.95 297.904 349.399 295.827C347.849 293.751 344.754 289.606 343.72 288.222Z" fill="#1C6670"/>
<path fill-rule="evenodd" clip-rule="evenodd" d="M337.926 277.54C335.047 272.157 330.497 268 330.497 268C330.497 268 331.667 271.739 333.237 275.563C331.311 273.608 329.731 272.146 329.731 272.146C329.731 272.146 331.92 277.427 335.448 281.888C335.71 282.219 335.971 282.536 336.231 282.839C333.003 280.444 328.984 278.169 328.984 278.169C328.984 278.169 331.77 282.528 335.62 285.73C337.909 287.634 339.984 288.663 341.763 289.545L341.925 289.626C342.072 289.86 342.212 290.094 342.345 290.331C342.246 290.124 342.153 289.912 342.066 289.695C342.738 290.03 343.365 290.348 343.944 290.693C344.239 291.354 344.497 292.001 344.692 292.655C344.58 292.142 344.518 291.603 344.485 291.035C344.649 291.144 344.808 291.258 344.963 291.376C344.8 291.235 344.639 291.089 344.48 290.939C344.442 290.223 344.448 289.461 344.454 288.649C344.471 286.457 344.49 283.899 343.67 280.887C342.29 275.821 339.056 271.649 339.056 271.649C339.056 271.649 339.419 278.373 340.605 282.728C341.146 284.713 341.867 286.359 342.571 287.832C342.371 287.5 342.17 287.161 341.963 286.814C341.535 286.093 341.086 285.338 340.594 284.555C340.044 282.477 339.315 280.136 337.926 277.54ZM342.012 288.298C342.077 288.372 342.142 288.445 342.207 288.517C342.721 289.096 343.21 289.646 343.697 290.157C343.602 289.953 343.503 289.748 343.402 289.539C342.971 289.126 342.506 288.719 342.012 288.298Z" fill="#1C6670"/>
<path d="M347.541 281.846C347.198 276.229 345.104 271.155 345.104 271.155C345.104 271.155 344.292 278.295 344.587 283.124C344.754 285.866 345.251 288.113 345.696 290.125C346.034 291.657 346.343 293.052 346.453 294.426C346.428 293.127 346.658 291.737 346.919 290.168C347.3 287.868 347.745 285.185 347.541 281.846Z" fill="#1C6670"/>
<path d="M349.905 272.533C349.905 272.533 352.034 278.215 352.129 284.433C352.186 288.129 351.534 291.076 350.976 293.603C350.595 295.326 350.257 296.853 350.217 298.289C350.164 296.768 349.884 295.215 349.578 293.51C349.175 291.271 348.725 288.77 348.679 285.735C348.597 280.39 349.905 272.533 349.905 272.533Z" fill="#1C6670"/>
<path d="M356.504 287.981C356.566 280.741 354.422 274.051 354.422 274.051C354.422 274.051 352.805 283.149 352.752 289.373C352.722 292.907 353.141 295.834 353.515 298.454C353.8 300.449 354.06 302.266 354.078 304.039C354.159 302.37 354.563 300.604 355.019 298.612C355.688 295.692 356.467 292.285 356.504 287.981Z" fill="#1C6670"/>
<path d="M359.215 274.857C359.215 274.857 361.323 282.625 361.042 290.95C360.876 295.899 359.935 299.792 359.129 303.128C358.579 305.404 358.092 307.421 357.955 309.338C357.987 307.411 357.936 305.582 357.88 303.605C357.799 300.741 357.71 297.566 357.853 293.332C358.094 286.175 359.215 274.857 359.215 274.857Z" fill="#1C6670"/>
<path d="M364.896 294.162C365.42 285.593 363.89 277.502 363.89 277.502C363.89 277.502 362.559 285.935 362.108 293.301C361.842 297.649 361.805 302.029 361.772 305.888L361.772 305.89C361.75 308.568 361.729 310.996 361.635 312.987C361.818 311.016 362.302 308.957 362.848 306.634C363.649 303.229 364.584 299.256 364.896 294.162Z" fill="#1C6670"/>
<path d="M368.609 280.924C368.609 280.924 370.428 289.23 369.511 297.969C368.965 303.164 367.623 307.197 366.473 310.654C365.688 313.012 364.992 315.102 364.7 317.11C364.87 315.145 364.974 313.119 365.088 310.922C365.26 307.576 365.453 303.832 365.93 299.297C366.718 291.785 368.609 280.924 368.609 280.924Z" fill="#1C6670"/>
<path d="M374.546 303.612C375.559 293.968 373.461 284.805 373.461 284.805C373.461 284.805 371.234 296.542 370.363 304.833C369.846 309.76 369.678 313.93 369.529 317.651L369.529 317.652L369.529 317.656C369.499 318.387 369.471 319.101 369.44 319.8C367.523 319.394 365.978 318.888 364.305 318.34C362.036 317.597 359.532 316.777 355.545 316.026C348.526 314.705 335.807 313.565 335.807 313.565C335.807 313.565 343.537 317.359 351.702 318.896C356.556 319.81 360.335 319.724 363.574 319.65C365.713 319.601 367.617 319.557 369.44 319.811C369.378 321.226 369.309 322.579 369.211 323.89C368.453 323.697 367.71 323.496 366.943 323.289L366.942 323.288L366.941 323.288C364.57 322.648 361.966 321.944 357.977 321.193C351.118 319.901 339.084 318.441 339.084 318.441C339.084 318.441 346.635 322.201 354.614 323.704C359.357 324.597 363.052 324.495 366.218 324.407C367.254 324.378 368.233 324.351 369.174 324.36C369.164 324.488 369.154 324.615 369.143 324.742C369.161 324.615 369.181 324.488 369.203 324.361C370.214 324.372 371.181 324.426 372.127 324.568C371.113 324.359 370.188 324.139 369.285 323.909C369.665 321.946 370.362 319.894 371.136 317.615C372.432 313.798 373.944 309.346 374.546 303.612Z" fill="#1C6670"/>
<path d="M379.126 287.693C379.126 287.693 380.819 297.12 379.166 306.603C378.183 312.241 376.305 316.476 374.696 320.106C373.599 322.582 372.626 324.777 372.147 326.944C372.455 324.93 372.729 322.802 373.026 320.502C373.523 316.641 374.083 312.295 374.974 307.187C376.395 299.035 379.126 287.693 379.126 287.693Z" fill="#1C6670"/>
<path d="M385.13 294.463C385.13 294.463 385.074 305.858 382.619 314.526C381.169 319.645 379.285 322.535 377.65 325.043C376.783 326.374 375.986 327.597 375.36 328.989C375.64 329.043 375.924 329.095 376.213 329.143C375.916 329.115 375.617 329.097 375.316 329.09C375.141 329.487 374.98 329.898 374.835 330.329C374.945 329.905 375.047 329.492 375.143 329.086C373.613 329.064 372.016 329.275 370.258 329.508C367.073 329.929 363.357 330.421 358.549 329.724C350.462 328.551 342.728 324.411 342.728 324.411C342.728 324.411 354.491 324.826 361.442 325.834C365.443 326.414 368.211 327.168 370.715 327.85C372.226 328.262 373.642 328.647 375.174 328.953C375.525 327.447 375.791 326.038 376.072 324.547C376.588 321.812 377.156 318.806 378.392 314.441C380.503 306.989 385.13 294.463 385.13 294.463Z" fill="#1C6670"/>
<path d="M349.406 332.103C349.406 332.103 356.437 335.159 363.268 335.07C367.33 335.017 370.299 333.903 372.845 332.949C374.581 332.298 376.12 331.721 377.673 331.605C376.307 331.585 374.883 331.534 373.357 331.479C370.533 331.376 367.358 331.261 363.546 331.311C357.673 331.388 349.406 332.103 349.406 332.103Z" fill="#1C6670"/>
<path d="M333.215 307.746C333.215 307.746 340.232 311.135 347.695 312.867C352.131 313.896 355.601 314.1 358.575 314.275C360.604 314.394 362.402 314.5 364.119 314.845C362.292 314.395 360.706 313.847 358.978 313.25C356.702 312.464 354.179 311.593 350.533 310.747C344.118 309.259 333.215 307.746 333.215 307.746Z" fill="#1C6670"/>
<path d="M345.56 308.698C338.312 306.817 331.585 303.01 331.585 303.01C331.585 303.01 342.227 304.918 348.457 306.534C352.048 307.466 354.503 308.335 356.724 309.122C358.356 309.7 359.862 310.233 361.602 310.714C359.932 310.343 358.17 310.251 356.182 310.147C353.268 309.994 349.868 309.816 345.56 308.698Z" fill="#1C6670"/>
<path d="M330.856 298.548C330.856 298.548 336.646 302.11 342.945 303.904C346.69 304.97 349.666 305.163 352.216 305.329C353.956 305.442 355.498 305.543 356.951 305.898C355.406 305.43 354.143 304.867 352.769 304.254C350.97 303.452 348.979 302.564 345.91 301.69C340.494 300.148 330.856 298.548 330.856 298.548Z" fill="#1C6670"/>
<path d="M340.748 299.446C335.34 297.777 330.427 294.484 330.427 294.484C330.427 294.484 338.795 295.998 343.444 297.433C346.077 298.245 347.757 299.063 349.275 299.803C350.437 300.369 351.504 300.888 352.83 301.324C351.581 300.992 350.247 300.895 348.742 300.786C346.536 300.625 343.963 300.438 340.748 299.446Z" fill="#1C6670"/>
<path d="M328.755 289.222C328.755 289.222 332.814 293.258 337.696 294.988C340.633 296.029 343.408 296.509 345.76 296.916C347.318 297.186 348.691 297.424 349.801 297.771C348.608 297.325 347.398 296.702 346.07 296.018C344.326 295.119 342.378 294.116 339.995 293.272C335.798 291.785 328.755 289.222 328.755 289.222Z" fill="#1C6670"/>
<path d="M335.97 290.111C331.582 287.623 328 283.759 328 283.759C328 283.759 333.844 285.788 337.616 287.926C339.758 289.14 341.436 290.462 342.939 291.644C344.084 292.545 345.126 293.365 346.193 293.997C345.167 293.471 344.014 293.142 342.712 292.77C340.804 292.225 338.579 291.589 335.97 290.111Z" fill="#1C6670"/>
<circle r="9.08557" transform="matrix(-1 0 0 1 378.706 331.017)" fill="#EB3343"/>
<circle r="5.38404" transform="matrix(-1 0 0 1 377.023 330.007)" fill="#FF8F96"/>
<circle r="2.01902" transform="matrix(-1 0 0 1 377.023 330.007)" fill="#FB3646"/>
<path d="M425.906 322.677C430.644 326.819 432.102 329.608 435.353 334.675C436.471 336.415 437.401 338.276 438.129 339.946C438.857 341.615 438.454 341.904 437.758 341.714C429.588 331.592 418.424 335.107 411.275 336.905C403.471 338.867 390.827 342.182 385.31 341.113C379.794 340.044 379.747 326.549 391.053 320.598C402.359 314.647 419.243 316.852 425.906 322.677Z" fill="url(#paint0_linear)"/>
<path opacity="0.528" d="M385.568 327.808L385.351 327.934L385.828 328.756L385.995 328.659C391.853 325.264 397.366 322.07 404.883 321.054C408.714 320.536 413.902 320.012 419.6 322.378C423.807 324.124 428.333 327.463 432.796 333.625C428.781 329.299 424.888 326.838 421.177 325.47C416.07 323.587 411.352 323.796 407.278 323.977C406.982 323.99 406.689 324.003 406.4 324.015C397.72 324.376 390.68 327.439 385.079 330.367L385.519 331.209C391.073 328.306 397.966 325.317 406.439 324.964C406.723 324.953 407.009 324.94 407.297 324.927L407.298 324.927C411.386 324.747 415.927 324.547 420.848 326.361C424.183 327.59 427.715 329.756 431.389 333.524C424.981 328.749 418.061 327.431 412.228 328.017C411.037 328.137 409.818 328.252 408.577 328.37C401.52 329.039 393.718 329.779 385.835 331.782L386.069 332.702C393.874 330.719 401.594 329.987 408.653 329.317L408.654 329.317L408.656 329.317C409.9 329.199 411.124 329.083 412.323 328.962C418.081 328.383 424.977 329.726 431.336 334.678C424.211 330.605 415.914 330.804 409.915 331.319C406.896 331.579 403.85 332.162 400.858 332.735C399.825 332.933 398.798 333.13 397.781 333.311C393.798 334.023 389.947 334.508 386.301 334.008L386.172 334.949C389.975 335.471 393.951 334.961 397.948 334.247C398.991 334.06 400.035 333.861 401.077 333.661C404.055 333.091 407.031 332.521 409.997 332.266C415.077 331.83 421.619 331.646 427.666 333.986C422.779 332.836 417.663 333.413 413.387 334.047C411.654 334.303 409.539 334.72 407.253 335.17L407.245 335.172C406.988 335.222 406.729 335.273 406.468 335.325C403.877 335.834 401.094 336.369 398.386 336.763C395.675 337.157 393.055 337.407 390.788 337.351C388.507 337.295 386.651 336.93 385.418 336.151L384.911 336.955C386.366 337.873 388.433 338.243 390.764 338.301C393.109 338.358 395.79 338.1 398.522 337.703C401.257 337.305 404.06 336.766 406.651 336.257C406.913 336.205 407.173 336.154 407.43 336.104L407.434 336.103C409.726 335.652 411.817 335.24 413.526 334.986C421.204 333.848 430.984 333.019 437.527 341.328L437.564 341.299C437.663 341.448 437.763 341.598 437.862 341.75L438.657 341.229C438.615 341.166 438.574 341.103 438.532 341.04L438.673 340.935C438.362 340.515 438.047 340.106 437.728 339.709C431.912 329.081 425.718 323.888 419.964 321.5C414.021 319.033 408.619 319.59 404.756 320.112C397.051 321.153 391.397 324.43 385.568 327.808Z" fill="url(#paint1_linear)"/>
<path d="M457.214 168.328C467.795 160.722 482.934 166.064 490.127 163.532C490.629 170.47 489.096 182.651 480.124 188.396C474.091 192.26 449.497 191.417 442.554 197.418C438.324 198.261 436.464 196.652 436.128 193.86C453.566 180.93 446.633 175.933 457.214 168.328Z" fill="#FFAE16"/>
<path d="M457.214 168.328C467.795 160.722 482.934 166.064 490.127 163.532C485.094 181.46 473.088 173.075 460.055 178.309C447.022 183.544 449.497 191.417 442.554 197.418C438.324 198.261 436.464 196.652 436.128 193.86C453.566 180.93 446.633 175.933 457.214 168.328Z" fill="#FFE01A"/>
<path d="M402.755 192.398C401.401 182.216 394.469 174.493 394.469 174.493C394.469 174.493 399.711 187.273 398.144 199.722C396.578 212.172 392.509 221.757 395.393 234.155C398.276 246.553 402.718 256.37 405.094 265.939C407.471 275.508 406.372 289.286 406.372 289.286C406.372 289.286 413.535 292.094 415.26 288.799C416.985 285.503 421.658 266.911 419.108 258.217C416.558 249.523 402.099 231.258 401.432 223.849C400.766 216.439 404.108 202.58 402.755 192.398Z" fill="#118353"/>
<path d="M410.176 188.392C411.686 185.465 420.475 187.13 420.897 189.021C421.318 190.913 421.594 203.509 421.594 203.509C421.594 203.509 447.223 180.377 452.131 179.62C457.038 178.862 462.197 181.573 460.247 186.14C458.298 190.707 425.459 211.474 421.051 219.018C416.642 226.562 413.333 242.107 407.642 270.951C401.95 299.796 399.369 353.092 399.369 353.092L389.285 373.133C389.285 373.133 391.871 314.338 394.681 292.006C397.491 269.674 405.472 233.557 408.614 219.515C411.756 205.474 409.06 206.647 408.789 205.138C408.518 203.629 408.665 191.32 410.176 188.392Z" fill="#1B0054"/>
<path fill-rule="evenodd" clip-rule="evenodd" d="M419.65 260.193C427.044 253.951 434.249 250.831 441.872 250.165C435.065 263.58 434.834 275.504 438.381 275.943C439.791 276.117 440.661 273.84 441.979 270.392C443.977 265.163 447.005 257.24 454.503 251.086C456.833 251.583 459.221 252.246 461.683 253.063C458.331 256.079 455.278 264.282 457.569 266.103C458.967 267.215 461.319 264.448 463.958 261.343C465.641 259.362 467.442 257.243 469.187 255.905C470.822 256.593 472.491 257.335 474.197 258.126C468.759 262.294 463.972 274.675 466.145 276.124C467.387 276.952 470.352 273.513 473.719 269.607C476.24 266.683 478.987 263.496 481.408 261.641C488.54 265.262 496.316 269.578 504.938 274.363C505.965 274.933 507.004 275.51 508.055 276.092C502.203 280.823 497.698 285.973 494.023 291.232C491.11 292.149 488.443 292.072 486.443 292.015C484.651 291.963 483.394 291.927 482.976 292.635C482.089 294.133 485.699 297.613 489.663 298.118C487.763 301.415 486.098 304.702 484.544 307.903C474.052 308.317 465.467 305.179 459.898 303.143C456.201 301.791 453.833 300.926 453.119 301.909C451.331 304.373 472.823 314.131 480.875 315.56C474.52 328.686 468.32 339.008 451.93 340.283C420.046 342.764 426.966 298.903 426.966 298.903C426.966 298.903 395.338 280.718 419.65 260.193ZM456.356 269.318C457.177 269.745 456.97 271.959 456.788 273.914C456.713 274.717 456.642 275.476 456.648 276.05C456.669 278.022 455.893 279.213 453.884 278.666C451.875 278.119 451.209 276.344 451.818 274.287C452.428 272.23 455.198 268.715 456.356 269.318ZM424.074 269.846C424.352 267.887 424.612 266.051 423.588 265.72C421.856 265.159 417.992 270.605 418.109 272.702C418.114 272.795 418.12 272.895 418.125 272.999C418.243 275.232 418.482 279.755 421.146 279.516C423.936 279.265 424.407 276.122 423.892 273.635C423.681 272.618 423.882 271.202 424.074 269.846Z" fill="#01A64B"/>
<path fill-rule="evenodd" clip-rule="evenodd" d="M419.65 260.193C427.044 253.951 434.249 250.831 441.872 250.165C421.717 258.525 428.516 281.953 432.063 282.392C433.472 282.567 440.661 273.84 441.979 270.392C443.977 265.163 447.005 257.24 454.503 251.086C456.833 251.583 459.221 252.246 461.683 253.063C452.913 255.147 450.799 262.068 457.569 266.103C458.967 267.215 461.319 264.448 463.958 261.343C465.641 259.362 467.442 257.243 469.187 255.905C470.822 256.593 472.491 257.335 474.197 258.126C458.448 261.504 463.972 274.675 466.145 276.124C467.387 276.952 470.352 273.513 473.719 269.607C476.24 266.683 478.987 263.496 481.408 261.641C488.54 265.263 473.259 279.961 504.939 274.363C505.965 274.933 507.004 275.51 508.055 276.092C504.608 281.103 489.14 279.071 472.87 282.909C475.109 287.817 483.753 281.853 494.023 291.232C491.11 292.149 488.443 292.072 486.443 292.015C484.651 291.963 462.885 292.827 462.466 293.534C461.58 295.033 472.924 308.041 489.663 298.118C487.763 301.415 486.098 304.702 484.544 307.903C474.052 308.317 465.467 305.179 459.898 303.143C457.93 302.423 452.927 300.439 447.814 298.804C441.258 297.865 445.379 312.367 461.044 322.31C461.764 322.767 461.281 323.944 460.475 323.666C438.665 316.164 436.629 299.759 436.064 296.4C428.584 331.433 454.48 353.979 480.875 315.561C474.52 328.686 468.32 339.008 451.93 340.283C420.046 342.764 426.966 298.903 426.966 298.903C426.966 298.903 395.338 280.718 419.65 260.193ZM456.356 269.318C457.177 269.745 456.97 271.959 456.788 273.914C456.713 274.717 456.642 275.476 456.648 276.05C456.669 278.022 455.893 279.213 453.884 278.666C451.875 278.12 449.059 278.638 449.324 273.798C449.588 268.958 455.199 268.715 456.356 269.318ZM424.074 269.846C424.352 267.887 424.612 266.051 423.588 265.72C421.856 265.159 416.347 267.941 415.061 271.577C415.066 271.671 415.071 271.77 415.077 271.874C414.539 275.952 418.482 279.755 421.147 279.516C423.936 279.266 424.407 276.122 423.892 273.635C423.682 272.618 423.882 271.202 424.074 269.846Z" fill="#0A9150"/>
<path fill-rule="evenodd" clip-rule="evenodd" d="M435.291 294.857C460.048 283.428 487.374 278.514 501.447 277.217L501.578 278.639C487.704 279.918 460.805 284.75 436.362 295.937C436.801 299.187 438.407 304.252 441.917 309.35C445.576 314.664 451.295 320.005 459.906 323.368L459.386 324.699C450.972 321.413 445.206 316.288 441.387 311.071C439.955 314.251 439.695 322.207 449.761 333.947L448.676 334.877C437.809 322.202 438.317 313.257 440.466 309.756C437.168 304.832 435.544 299.949 435.01 296.564C433.875 297.096 432.746 297.643 431.625 298.203L430.986 296.925C432.411 296.213 433.847 295.524 435.291 294.857Z" fill="#077F40"/>
<path d="M431.732 278.907C436.317 272.269 440.477 266.334 446.66 262.772C452.843 259.211 461.032 253.597 463.406 251.575C465.779 249.553 468.049 244.204 468.987 241.698C470.072 246.578 468.857 257.171 466.412 264.718C463.966 272.264 452.627 284.999 445.785 292.194C438.944 299.39 438.667 307.478 432.192 314.703C425.716 321.927 393.884 365.098 389.737 366.242C385.591 367.385 379.539 364.69 385.077 359.971C390.615 355.252 398.54 343.72 404.282 336.437C410.025 329.153 411.898 314.926 415.164 306.339C418.43 297.752 427.146 285.545 431.732 278.907Z" fill="#1C6670"/>
<path d="M439.965 289.886C444.55 283.248 441.824 280.45 451.655 272.756C461.485 265.062 462.641 255.2 465.015 253.178C467.388 251.156 468.049 244.204 468.987 241.698C470.072 246.577 468.857 257.171 466.412 264.718C463.966 272.264 452.627 284.999 445.786 292.194C438.944 299.39 438.667 307.478 432.192 314.703C425.717 321.927 393.884 365.098 389.737 366.242C385.591 367.385 388.4 363.186 393.938 358.467C399.476 353.748 408.705 339.739 414.447 332.456C420.19 325.172 414.534 322.14 425.639 312.336C436.744 302.532 435.38 296.525 439.965 289.886Z" fill="#224A77"/>
<path d="M422.053 203.277C422.053 203.277 457.552 185.93 470.139 189.213C482.726 192.497 499.933 206.552 497.702 212.285C495.472 218.017 486.254 215.038 481.708 217.938C478.993 231.774 463.091 228.483 455.912 221.908C448.732 215.332 459.829 235.319 447.324 233.492C434.819 231.666 418.541 214.328 418.541 214.328L422.053 203.277Z" fill="#FF8F96"/>
<path d="M422.053 203.277C422.053 203.277 456.889 196.455 465.246 197.678C473.603 198.902 490.194 204.89 488.768 209.446C487.343 214.003 477.378 205.827 473.041 219.478C468.703 233.129 454.242 213.505 449.743 215.654C445.244 217.802 457.911 231.131 445.406 229.304C432.901 227.478 418.541 214.328 418.541 214.328L422.053 203.277Z" fill="#FF505F"/>
<path d="M421.031 206.688C421.031 206.688 455.749 200.115 462.521 201.106C469.294 202.098 475.81 203.897 473.787 206.833C471.764 209.768 466.854 204.63 464.376 212.431C461.897 220.231 449.807 208.517 445.308 210.666C440.809 212.815 451.99 225.671 439.485 223.845C426.98 222.019 419.172 212.538 419.172 212.538L421.031 206.688Z" fill="#FF8F96"/>
<path d="M419.921 209.788C419.921 209.788 438.211 205.548 447.373 204.166C456.536 202.783 463.181 204.178 461.158 207.114C456.617 213.703 449.529 206.129 443.038 209.229C438.539 211.378 447.988 219.39 435.483 217.564C422.978 215.737 419.094 212.388 419.094 212.388L419.921 209.788Z" fill="#FF505F"/>
<path d="M424.927 219.826C431.432 200.727 425.363 176.011 443.31 150.315C448.347 143.103 461.814 134.537 466.707 133.945C462.118 137.593 444.969 153.542 441.665 163.387C438.361 173.232 436.567 187.491 437.179 199.036C437.792 210.581 433.608 216.694 430.511 235.618C427.414 254.542 428.965 275.259 423.634 290.28C418.302 305.302 404.769 325.328 400.564 336.87C396.358 348.412 396.302 370.737 392.765 371.499C389.227 372.261 386.358 362.243 386.279 357.404C386.199 352.566 389.493 331.855 393.549 321.502C397.605 311.148 416.096 279.071 418.647 269.735C421.198 260.399 418.421 238.925 424.927 219.826Z" fill="#01A64B"/>
<path d="M427.208 228.339C433.706 209.238 428.421 177.33 446.338 151.63C451.368 144.417 461.824 134.538 466.707 133.945C462.126 137.594 445.007 153.547 441.707 163.393C438.407 173.238 436.613 187.498 437.221 199.043C437.83 210.587 433.653 216.701 430.558 235.626C427.462 254.551 429.004 275.266 423.68 290.289C418.355 305.312 404.844 325.341 400.644 336.884C396.443 348.427 396.382 370.751 392.851 371.514C389.321 372.277 390.509 362.259 390.431 357.421C390.353 352.582 396.266 335.245 400.316 324.89C404.367 314.535 420.143 290.313 422.692 280.976C425.24 271.64 420.711 247.439 427.208 228.339Z" fill="#118353" fill-opacity="0.592"/>
<path d="M176.907 295.322C164.236 296.552 158.554 299.42 147.238 303.921C143.35 305.468 139.628 307.432 136.464 309.32C133.3 311.207 133.623 312.157 134.991 312.664C160.35 305.643 174.568 324.575 184.206 335.953C194.727 348.373 211.616 368.719 221.947 373.46C232.277 378.2 248.252 356.064 236.67 332.959C225.087 309.854 194.726 293.592 176.907 295.322Z" fill="url(#paint2_linear)"/>
<path opacity="0.528" d="M236.98 351.391L237.182 351.839L235.874 352.43L235.707 352.059C230.076 339.585 224.757 327.799 213.557 317.24C207.86 311.869 199.907 304.858 187.684 302.02C177.876 299.742 165.242 300.136 148.733 306.353C162.31 302.968 172.801 303.373 181.329 305.719C191.897 308.625 199.373 314.499 205.862 319.598C206.332 319.967 206.797 320.332 207.257 320.692C221.063 331.477 229.013 344.77 234.768 356.171L233.487 356.818C227.769 345.489 219.934 332.416 206.374 321.823C205.92 321.468 205.463 321.109 205.002 320.747C198.494 315.636 191.228 309.93 180.949 307.102C173.292 304.996 163.921 304.48 151.916 307.084C169.517 305.868 183.512 312.091 192.948 320.397C194.768 321.999 196.636 323.625 198.539 325.282C209.357 334.696 221.299 345.089 231.89 357.654L230.792 358.579C220.28 346.107 208.432 335.794 197.613 326.378C195.705 324.718 193.83 323.086 191.999 321.474C182.518 313.128 168.25 306.896 150.163 308.67C168.276 309.108 182.932 320.064 192.864 328.555C197.512 332.528 201.822 337.064 206.064 341.527C207.532 343.072 208.992 344.608 210.454 346.109C216.17 351.975 221.952 357.333 228.573 360.823L227.904 362.093C221.07 358.491 215.156 352.991 209.426 347.111C207.936 345.581 206.458 344.026 204.98 342.471C200.753 338.023 196.518 333.567 191.931 329.646C183.363 322.321 171.528 313.398 157.147 310.822C168.06 314.228 176.884 322.124 183.931 328.94C186.473 331.399 189.457 334.572 192.686 338.005C193.053 338.395 193.422 338.788 193.795 339.184C197.456 343.074 201.406 347.236 205.401 351.078C209.398 354.924 213.423 358.432 217.234 361.022C221.061 363.623 224.588 365.24 227.6 365.417L227.516 366.85C224.109 366.649 220.317 364.853 216.427 362.209C212.519 359.553 208.427 355.981 204.406 352.113C200.382 348.242 196.411 344.057 192.75 340.167C192.381 339.776 192.015 339.387 191.653 339.002L191.644 338.992C188.408 335.551 185.449 332.405 182.933 329.971C171.654 319.061 156.453 306.069 135.757 312.067L135.731 311.975C135.386 312.106 135.039 312.239 134.69 312.374L134.172 311.036C134.31 310.982 134.449 310.929 134.587 310.876L134.478 310.537C135.49 310.211 136.493 309.909 137.488 309.63C159.547 299.014 175.797 297.786 188.009 300.622C200.623 303.551 208.81 310.792 214.541 316.196C225.949 326.95 231.37 338.961 236.98 351.391Z" fill="url(#paint3_linear)"/>
<path d="M153.743 122C160.594 142.554 197.59 168.588 205.127 181.606C212.663 194.623 219.514 226.139 220.199 238.471C220.885 250.803 220.199 265.876 220.199 274.782C220.199 283.689 214.718 292.596 214.718 298.077C214.718 303.558 224.31 313.15 222.94 327.537C222.325 333.993 220.199 350.146 231.847 372.755C234.42 387.311 231.847 386.458 231.847 386.458C231.847 386.458 204.441 347.405 202.386 334.388C200.331 321.371 208.552 308.353 209.238 298.077C209.923 287.8 206.876 249.433 200.71 231.62C194.543 213.807 181.038 200.387 168.419 183.184C155.799 165.981 149.632 145.979 153.743 122Z" fill="url(#paint4_linear)"/>
<path d="M153.743 122C160.594 142.554 197.59 168.588 205.127 181.606C212.663 194.623 219.514 226.139 220.199 238.471C220.885 250.803 220.199 265.876 220.199 274.782C220.199 283.689 214.718 292.596 214.718 298.077C214.718 303.558 224.31 313.15 222.94 327.537C222.325 333.993 220.199 350.146 231.847 372.755C234.42 387.311 231.847 386.458 231.847 386.458C231.847 386.458 204.441 347.405 202.386 334.388C200.331 321.371 208.552 308.353 209.238 298.077C209.923 287.8 206.876 249.433 200.71 231.62C194.543 213.807 181.038 200.387 168.419 183.184C155.799 165.981 149.632 145.979 153.743 122Z" fill="url(#paint5_linear)" fill-opacity="0.6184"/>
<path fill-rule="evenodd" clip-rule="evenodd" d="M153.35 130.802C153.35 149.579 158.589 165.764 165.978 176.109C171 183.139 174.893 186.845 178.25 190.042C178.431 190.215 178.611 190.386 178.79 190.556C182.242 193.85 185.131 196.74 188.237 202.539C190.366 206.512 192.501 209.662 194.419 212.489C194.944 213.263 195.453 214.014 195.94 214.75C198.215 218.184 200.045 221.334 201.091 225.343C202.032 228.948 204.508 242.131 206.701 256.374C207.125 262.026 208.021 268.113 208.871 273.878L208.871 273.881C209.065 275.197 209.256 276.495 209.439 277.767C209.636 279.14 209.822 280.483 209.992 281.785C210.09 282.83 210.178 283.844 210.255 284.822C210.51 288.077 210.639 290.921 210.605 293.169C210.587 294.293 210.529 295.256 210.428 296.041C210.326 296.833 210.185 297.398 210.025 297.756C210.024 297.758 210.023 297.76 210.022 297.762L211.331 298.352C211.51 297.953 211.661 297.513 211.786 297.036L212.369 297.327C213.35 295.364 213.915 292.485 214.233 289.089C214.553 285.674 214.63 281.655 214.593 277.36C214.559 273.389 214.426 269.167 214.293 264.952L214.261 263.915C214.118 259.353 213.985 254.824 213.985 250.636C213.985 242.986 213.342 232.595 211.306 222.274C209.274 211.967 205.838 201.657 200.205 194.232C198.987 192.626 197.834 191.079 196.701 189.557C190.501 181.231 184.871 173.671 172.144 161.497C167.372 156.933 163.198 151.251 160.129 145.776C158.838 143.472 157.749 141.217 156.896 139.108C156.416 137.187 156.064 135.628 155.846 134.599L155.395 134.695C155.088 133.539 154.883 132.47 154.788 131.51C154.786 131.275 154.785 131.038 154.785 130.802H153.35ZM155.243 140.266C156.657 154.714 161.218 166.975 167.146 175.274C172.088 182.193 175.902 185.824 179.241 189.004C179.422 189.177 179.602 189.348 179.781 189.518C183.276 192.853 186.29 195.866 189.502 201.861C191.592 205.762 193.675 208.834 195.587 211.655C196.118 212.437 196.636 213.201 197.137 213.958C199.437 217.43 201.373 220.739 202.48 224.981C203.2 227.74 204.777 235.878 206.447 245.787C206.409 233.6 205.945 225.221 200.591 214.715C191.861 197.584 180.781 184.657 170.049 173.272C165.635 168.589 162.05 160.417 159.422 152.779C158.713 150.72 158.071 148.69 157.499 146.766C156.615 144.519 155.86 142.321 155.243 140.266ZM211.418 281.625C210.86 275.691 209.978 268.793 208.975 261.88C208.7 259.984 208.416 258.086 208.127 256.206C207.974 254.156 207.885 252.168 207.885 250.277L207.885 249.261C207.889 235.144 207.891 225.878 201.87 214.064C193.047 196.752 181.859 183.708 171.094 172.287C167.885 168.884 165.076 163.442 162.757 157.65C164.883 161.246 167.334 164.576 170.076 167.199C182.151 178.749 194.485 192.109 200.789 204.323C209.106 220.437 209.679 236.848 209.679 252.071C209.679 258.617 210.435 265.769 211.142 272.461C211.347 274.406 211.549 276.312 211.726 278.153C212.122 282.256 212.399 286.034 212.352 289.236C212.342 289.924 212.317 290.581 212.276 291.206C212.266 290.756 212.248 290.296 212.225 289.827C212.102 287.364 211.804 284.586 211.418 281.625ZM159.054 146.791C159.239 147.252 159.43 147.715 159.626 148.18C162.437 154.832 166.337 161.637 171.068 166.162C183.15 177.719 195.642 191.22 202.065 203.665C210.554 220.112 211.114 236.834 211.114 252.071C211.114 258.533 211.858 265.58 212.564 272.259L212.564 272.26C212.771 274.218 212.974 276.144 213.155 278.015L213.163 278.104C213.163 277.981 213.162 277.857 213.161 277.734C213.16 277.614 213.159 277.493 213.158 277.372C213.124 273.419 212.991 269.213 212.859 264.994L212.826 263.96C212.683 259.4 212.549 254.85 212.549 250.636C212.549 243.055 211.912 232.76 209.898 222.552C207.882 212.33 204.501 202.27 199.061 195.099C197.837 193.485 196.681 191.933 195.546 190.409C189.355 182.096 183.789 174.622 171.152 162.535C166.353 157.944 162.163 152.273 159.054 146.791Z" fill="#300886" fill-opacity="0.4"/>
<path d="M153.742 122C160.594 142.554 197.59 168.588 205.127 181.606C212.663 194.623 219.514 226.139 220.199 238.471C220.885 250.803 220.199 265.876 220.199 274.783C220.199 283.689 214.718 292.596 214.718 298.077C213.32 300.817 208.595 307.273 207.154 314.52C205.714 321.766 208.112 351.516 229.078 370.7C231.791 375.496 231.846 386.458 231.846 386.458C231.846 386.458 204.441 347.405 202.386 334.388C200.331 321.371 208.552 308.353 209.237 298.077C222.595 259.606 213.321 217.86 207.154 200.047C200.988 182.234 186.282 173.053 181.694 167.398C177.105 161.743 149.632 145.979 153.742 122Z" fill="url(#paint6_linear)"/>
<path d="M153.742 122C160.594 142.554 197.59 168.588 205.127 181.606C212.663 194.623 219.514 226.139 220.199 238.471C220.885 250.803 220.199 265.876 220.199 274.783C220.199 283.689 214.718 292.596 214.718 298.077C213.32 300.817 208.595 307.273 207.154 314.52C205.714 321.766 208.112 351.516 229.078 370.7C231.791 375.496 231.846 386.458 231.846 386.458C231.846 386.458 204.441 347.405 202.386 334.388C200.331 321.371 208.552 308.353 209.237 298.077C222.595 259.606 213.321 217.86 207.154 200.047C200.988 182.234 186.282 173.053 181.694 167.398C177.105 161.743 149.632 145.979 153.742 122Z" fill="url(#paint7_linear)" fill-opacity="0.364"/>
<path fill-rule="evenodd" clip-rule="evenodd" d="M227.228 282.372C227.125 283.27 227.026 284.169 226.93 285.067C231.955 260.743 238.903 242.733 257.919 223.718L259.354 224.435C244.104 237.987 233.21 262.729 228.383 287.846C227.792 290.922 227.281 293.997 226.85 297.052C231.848 272.595 242.723 248.702 257.919 235.199H260.072C244.285 247.53 234.957 273.23 228.383 299.441C227.353 304.803 226.566 310.164 226.021 315.413C226.354 313.744 226.715 312.071 227.105 310.399C234.957 279.33 239.262 264.128 256.125 253.006L256.484 253.856C241.415 264.978 235.75 288.11 229.934 313.055C228.567 318.918 228.439 322.403 227.781 328.124H223.182C223.196 327.643 223.212 327.161 223.23 326.676C223.14 324.461 223.103 322.186 223.121 319.862C223.055 308.163 223.767 295.183 225.252 282.234C228.38 254.959 233.88 231.611 246.438 212.596L247.873 213.672C237.977 228.408 230.355 255.107 227.228 282.372Z" fill="#5238CB"/>
<circle cx="247.155" cy="212.237" r="3.94664" fill="#FFE01A"/>
<path d="M249.887 215.223C249.179 215.821 248.256 216.183 247.247 216.183C245.017 216.183 243.208 214.416 243.208 212.237C243.208 211.176 243.636 210.214 244.333 209.504C243.317 213.148 247.247 215.223 249.887 215.223Z" fill="#FFAE16"/>
<circle cx="259.354" cy="234.481" r="3.94664" fill="#FFE01A"/>
<path d="M261.865 237.499C261.181 238.078 260.288 238.428 259.312 238.428C257.156 238.428 255.407 236.72 255.407 234.612C255.407 233.587 255.821 232.656 256.494 231.97C255.512 235.493 259.312 237.499 261.865 237.499Z" fill="#FFAE16"/>
<circle cx="258.637" cy="223.718" r="3.22907" fill="#FFE01A"/>
<path d="M260.43 226.225C259.898 226.675 259.204 226.947 258.444 226.947C256.767 226.947 255.407 225.618 255.407 223.979C255.407 223.181 255.729 222.457 256.253 221.924C255.488 224.664 258.444 226.225 260.43 226.225Z" fill="#FFAE16"/>
<circle cx="256.484" cy="253.138" r="2.5115" fill="#FFE01A"/>
<path d="M257.879 255.088C257.465 255.438 256.925 255.65 256.334 255.65C255.03 255.65 253.972 254.616 253.972 253.341C253.972 252.721 254.222 252.158 254.63 251.743C254.035 253.874 256.334 255.088 257.879 255.088Z" fill="#FFAE16"/>
<circle cx="222.762" cy="331.358" r="12.562" fill="#4160FA"/>
<circle opacity="0.5" cx="218.864" cy="328.326" r="5.19809" fill="#70FAFF"/>
<circle cx="218.864" cy="328.326" r="1.73269" fill="#300886"/>
<path fill-rule="evenodd" clip-rule="evenodd" d="M227.189 311.877C229.736 306.432 232.989 302.798 237.116 300.439C236.765 309.778 239.737 316.564 241.851 315.889C242.692 315.621 242.59 314.11 242.437 311.822C242.204 308.352 241.851 303.095 244.48 297.674C245.923 297.348 247.443 297.101 249.044 296.921C247.938 299.495 248.35 304.916 250.115 305.347C251.194 305.611 251.8 303.438 252.481 301C252.915 299.445 253.38 297.781 254.016 296.573C255.118 296.536 256.252 296.52 257.42 296.522C255.437 300.288 255.957 308.517 257.56 308.769C258.476 308.913 259.254 306.202 260.137 303.123C260.799 300.818 261.519 298.306 262.402 296.63C267.367 296.817 272.876 297.229 278.985 297.685L278.988 297.686C279.714 297.74 280.449 297.795 281.192 297.85C279.122 302.041 277.92 306.118 277.215 310.04C275.81 311.315 274.286 311.966 273.143 312.453C272.119 312.89 271.4 313.197 271.348 313.705C271.238 314.781 274.179 315.805 276.547 315.058C276.333 317.413 276.248 319.699 276.204 321.909C270.394 324.872 264.735 325.335 261.064 325.635C258.627 325.834 257.066 325.962 256.919 326.702C256.551 328.557 271.213 328.471 276.126 327.183C275.956 336.24 275.143 343.675 266.23 348.658C248.89 358.351 241.385 331.81 241.385 331.81C241.385 331.81 218.814 329.779 227.189 311.877ZM250.268 307.476C250.842 307.504 251.301 308.806 251.707 309.956C251.873 310.429 252.031 310.876 252.184 311.198C252.708 312.305 252.58 313.178 251.305 313.393C250.029 313.607 249.192 312.778 249.001 311.46C248.809 310.141 249.458 307.437 250.268 307.476ZM232.195 316.171C231.842 314.994 231.511 313.89 230.848 313.97C229.725 314.104 228.962 318.181 229.573 319.334C229.601 319.385 229.63 319.44 229.66 319.497C230.307 320.726 231.618 323.215 233.059 322.387C234.567 321.52 234.016 319.624 233.078 318.355C232.695 317.837 232.44 316.986 232.195 316.171Z" fill="#253F7A"/>
<path fill-rule="evenodd" clip-rule="evenodd" d="M227.188 311.877C229.735 306.432 232.988 302.799 237.115 300.44C227.921 310.399 237.85 321.845 239.965 321.17C240.805 320.902 242.59 314.11 242.437 311.822C242.204 308.352 241.851 303.095 244.48 297.674C245.923 297.348 247.443 297.101 249.044 296.921C244.639 300.378 245.247 304.832 250.115 305.347C251.193 305.611 251.8 303.439 252.481 301C252.915 299.445 253.38 297.781 254.016 296.573C255.117 296.536 256.252 296.52 257.42 296.523C249.415 302.524 255.957 308.517 257.559 308.769C258.476 308.913 259.253 306.202 260.137 303.123C260.798 300.818 261.519 298.306 262.402 296.63C267.367 296.817 262.571 309.083 278.984 297.686C279.712 297.74 280.448 297.795 281.192 297.85C280.551 301.573 271.297 304.451 263.118 310.847C265.657 313.034 268.982 307.421 277.215 310.04C275.81 311.315 274.286 311.966 273.143 312.453C272.118 312.89 260.065 319.039 260.013 319.547C259.903 320.623 269.686 325.01 276.547 315.059C276.333 317.413 276.248 319.7 276.204 321.909C270.394 324.872 264.735 325.335 261.064 325.635C259.766 325.741 256.428 325.923 253.119 326.331C249.466 327.42 254.432 333.603 264.266 335.725C265.103 335.906 265.125 337.196 264.269 337.215C251.842 337.487 246.987 329.675 245.866 328.031C250.758 349.738 271.23 355.721 276.126 327.183C275.955 336.24 275.143 343.675 266.23 348.658C248.89 358.351 241.385 331.81 241.385 331.81C241.385 331.81 218.813 329.779 227.188 311.877ZM250.268 307.476C250.842 307.504 251.301 308.806 251.706 309.956C251.873 310.429 252.031 310.876 252.183 311.198C252.708 312.305 252.58 313.178 251.304 313.393C250.029 313.607 248.576 314.632 247.466 311.833C246.356 309.034 249.458 307.437 250.268 307.476ZM232.195 316.171C231.842 314.994 231.511 313.89 230.848 313.97C229.725 314.104 227.341 317.106 227.561 319.492C227.588 319.543 227.617 319.598 227.647 319.655C228.405 322.096 231.618 323.215 233.059 322.387C234.567 321.52 234.015 319.624 233.078 318.356C232.695 317.837 232.439 316.986 232.195 316.171Z" fill="#224E76"/>
<path fill-rule="evenodd" clip-rule="evenodd" d="M244.82 327.184C255.838 314.267 270.001 304.369 277.62 299.966L278.338 301.209C270.893 305.511 257.087 315.153 246.254 327.716C247.36 329.386 249.513 331.701 252.675 333.578C256.079 335.599 260.641 337.108 266.312 336.769L266.398 338.201C260.973 338.526 256.486 337.246 252.994 335.402C253.28 337.584 255.409 341.701 263.472 345.399L262.874 346.704C253.61 342.455 251.321 337.321 251.533 334.563C248.609 332.748 246.514 330.582 245.291 328.85C244.87 329.354 244.454 329.862 244.044 330.374L242.924 329.477C243.544 328.703 244.176 327.938 244.82 327.184Z" fill="#26377B"/>
<path d="M207.569 381.809C212.784 372.376 238.763 361.482 244.254 355.627C249.744 349.772 255.241 335.17 256.027 329.383C256.812 323.595 256.731 316.464 256.96 312.265C257.189 308.066 253.668 303.663 253.809 301.079C253.95 298.496 260.758 294.332 260.191 287.498C259.936 284.432 258.897 276.738 267.446 266.514C269.581 259.748 267.798 260.055 267.798 260.055C267.798 260.055 248.046 277.442 246.305 283.502C244.565 289.562 249.855 296.005 250.059 300.875C250.264 305.745 234.836 321.425 230.16 329.592C225.484 337.759 221.586 348.884 215.574 355.683C209.563 362.482 205.373 370.352 207.569 381.809Z" fill="#0C8F47"/>
<path d="M207.569 381.809C212.784 372.375 215.821 361.851 221.312 355.996C226.802 350.141 240.354 327.625 241.14 321.837C241.926 316.049 245.771 315.981 247.895 309.988C250.018 303.996 249.918 303.459 250.059 300.875C250.2 298.291 248.93 291.001 248.467 286.304C248.005 281.608 252.147 284.709 256.257 275.231C260.191 268.978 267.798 260.055 267.798 260.055C267.798 260.055 248.046 277.442 246.305 283.502C244.565 289.562 249.855 296.005 250.059 300.875C250.264 305.745 234.836 321.425 230.16 329.592C225.484 337.759 221.586 348.884 215.574 355.683C209.563 362.482 205.373 370.352 207.569 381.809Z" fill="#00AA4D"/>
<g opacity="0.3">
<path fill-rule="evenodd" clip-rule="evenodd" d="M266.317 265.051C265.336 266.834 264.128 268.901 262.857 270.6C262.264 271.392 261.603 272.268 260.909 273.19C257.948 277.119 254.37 281.868 252.794 284.374C252.382 285.028 252.121 285.926 251.976 287.106C251.831 288.282 251.808 289.677 251.832 291.289C251.844 292.087 251.867 292.935 251.892 293.83C251.966 296.523 252.052 299.632 251.868 303.019C251.663 306.766 249.81 311.014 247.877 314.982C247.461 315.835 247.043 316.674 246.633 317.495C245.101 320.566 243.698 323.379 243.07 325.686C241.957 329.778 240.346 334.088 238.877 338.017C238.553 338.885 238.235 339.734 237.932 340.558C237.562 341.561 236.766 342.909 235.789 344.368C234.801 345.843 233.593 347.482 232.36 349.082C229.894 352.282 227.31 355.351 226.152 356.676L225.072 355.731C226.213 354.426 228.778 351.38 231.223 348.206C232.446 346.619 233.633 345.008 234.596 343.569C235.57 342.116 236.28 340.89 236.585 340.062C236.894 339.223 237.215 338.364 237.542 337.49C239.009 333.563 240.591 329.331 241.685 325.309C242.354 322.851 243.847 319.86 245.39 316.77C245.79 315.969 246.194 315.161 246.587 314.354C248.533 310.359 250.248 306.358 250.435 302.94C250.616 299.619 250.532 296.596 250.458 293.914C250.433 293.006 250.409 292.138 250.397 291.31C250.373 289.686 250.394 288.209 250.551 286.931C250.708 285.657 251.007 284.519 251.579 283.61C253.192 281.046 256.828 276.221 259.788 272.293C260.476 271.38 261.127 270.516 261.708 269.74C262.917 268.124 264.086 266.129 265.06 264.359C265.466 263.62 265.845 262.907 266.178 262.282C266.622 261.446 266.983 260.768 267.215 260.393L268.436 261.148C268.223 261.492 267.903 262.095 267.488 262.875C267.156 263.5 266.764 264.239 266.317 265.051Z" fill="#1C6670"/>
<path fill-rule="evenodd" clip-rule="evenodd" d="M266.317 265.051C265.336 266.834 264.128 268.901 262.857 270.6C261.372 272.583 260.267 275.217 259.17 277.956C259.088 278.159 259.007 278.363 258.925 278.568C257.926 281.071 256.907 283.624 255.593 285.618C254.147 287.813 253.368 290.785 253.017 293.841C252.668 296.884 252.752 299.942 252.979 302.251C253.104 303.519 252.953 305.314 252.657 307.321C252.36 309.344 251.906 311.64 251.398 313.934C250.381 318.523 249.138 323.141 248.463 325.621C247.106 330.611 244.12 339.099 242.433 343.678C242.053 344.709 241.246 345.893 240.276 347.092C239.294 348.306 238.098 349.591 236.884 350.833C235.847 351.893 234.788 352.929 233.831 353.866C233.667 354.027 233.505 354.185 233.347 354.34C232.262 355.404 231.363 356.297 230.81 356.93L229.729 355.985C230.326 355.302 231.269 354.368 232.343 353.315C232.502 353.159 232.665 353 232.83 352.838C233.787 351.901 234.833 350.877 235.858 349.829C237.06 348.601 238.22 347.352 239.16 346.19C240.112 345.014 240.791 343.981 241.086 343.182C242.773 338.602 245.74 330.167 247.079 325.244C247.752 322.766 248.988 318.177 249.996 313.624C250.501 311.347 250.947 309.088 251.238 307.112C251.531 305.12 251.657 303.473 251.551 302.392C251.316 300.005 251.228 296.843 251.592 293.677C251.953 290.523 252.77 287.294 254.395 284.828C255.624 282.963 256.59 280.545 257.607 277.999C257.684 277.807 257.76 277.615 257.838 277.422C258.924 274.711 260.092 271.899 261.708 269.74C262.917 268.124 264.086 266.129 265.06 264.359C265.466 263.62 265.845 262.907 266.178 262.282C266.622 261.446 266.983 260.768 267.215 260.393L268.436 261.148C268.223 261.492 267.903 262.095 267.488 262.875C267.156 263.5 266.764 264.239 266.317 265.051Z" fill="#1C6670"/>
<path fill-rule="evenodd" clip-rule="evenodd" d="M266.317 265.051C265.336 266.834 264.128 268.901 262.857 270.6C262.171 271.516 261.644 272.92 261.21 274.665C260.78 276.396 260.462 278.379 260.148 280.41C260.121 280.588 260.093 280.767 260.066 280.946C259.782 282.79 259.496 284.654 259.129 286.333C258.729 288.163 258.218 289.851 257.463 291.088C254.648 295.696 253.767 301.343 254.217 305.912C254.455 308.332 254.27 313.323 253.865 318.283C253.46 323.244 252.824 328.301 252.131 330.851C250.773 335.843 248.222 342.92 246.536 347.495C245.805 349.481 244.169 351.407 242.51 353.114C241.816 353.828 241.1 354.521 240.426 355.172C240.287 355.307 240.15 355.44 240.015 355.571C239.219 356.343 238.508 357.046 237.955 357.679L236.875 356.734C237.472 356.051 238.223 355.31 239.016 354.541C239.153 354.407 239.293 354.272 239.433 354.137C240.107 353.485 240.803 352.811 241.481 352.114C243.133 350.414 244.572 348.675 245.19 346.999C246.878 342.415 249.407 335.396 250.746 330.474C251.401 328.067 252.029 323.132 252.434 318.166C252.84 313.2 253.013 308.329 252.789 306.053C252.313 301.228 253.234 295.258 256.238 290.34C256.863 289.317 257.334 287.824 257.727 286.026C258.084 284.394 258.363 282.575 258.648 280.721C258.676 280.545 258.703 280.368 258.73 280.191C259.042 278.168 259.37 276.122 259.817 274.319C260.262 272.53 260.844 270.894 261.708 269.74C262.917 268.124 264.086 266.129 265.06 264.359C265.466 263.62 265.845 262.907 266.178 262.282C266.622 261.446 266.983 260.768 267.215 260.393L268.436 261.148C268.223 261.492 267.903 262.095 267.488 262.875C267.156 263.5 266.764 264.239 266.317 265.051Z" fill="#1C6670"/>
</g>
<path d="M72.6182 253.966C58.5291 246.376 51.6455 243.934 38.2331 238.569C33.6246 236.726 29.0948 235.162 25.1914 233.923C21.2879 232.685 19.5448 236.55 23.5335 238.359C52.8431 251.656 62.9351 264.621 70.6467 275.508C79.0653 287.393 92.4801 306.641 102.565 315.214C112.651 323.788 135.436 324.807 128.47 307.806C121.503 290.805 92.4309 264.64 72.6182 253.966Z" fill="#290773"/>
<path d="M99.581 210.928C98.6776 204.534 109.01 213.509 113.078 214.891C115.247 225.671 122.748 251.348 122.748 251.348C122.748 251.348 140.653 222.733 144.903 220.828C149.152 218.924 154.487 220.126 153.853 224.781C153.22 229.435 128.664 256.525 126.543 264.507C124.423 272.49 125.275 287.511 127.26 315.273C128.138 327.551 116.013 327.232 114.576 317.065C111.595 295.965 116.053 281.64 115.422 268.035C114.791 254.429 107.081 241.171 105.726 231.58C104.371 221.989 100.484 217.322 99.581 210.928Z" fill="#1B0054"/>
<path d="M99.7928 239.464C92.7901 228.43 91.8541 219.86 73.1653 206.543C67.9195 202.806 54.1449 199.61 49.1994 200.048C53.9099 201.599 71.5683 208.866 75.1279 214.561C78.6875 220.257 85.7382 231.281 90.4824 240.472C95.2266 249.663 87.0805 258.907 90.6435 270.396C94.2065 281.886 101.641 290.965 107.366 299.608C113.09 308.25 116.094 311.151 120.602 317.773C125.111 324.395 125.687 338.547 129.271 338.442C132.854 338.338 135.513 331.506 135.48 328.424C135.448 325.342 131.644 312.752 127.314 306.859C122.985 300.965 103.63 276.526 100.84 271.028C98.0509 265.531 106.796 250.497 99.7928 239.464Z" fill="#01A64B"/>
<path d="M93.1191 238.21C86.1164 227.177 82.2157 216.447 63.527 203.131C58.2812 199.393 54.145 199.61 49.1996 200.048C53.91 201.599 71.5685 208.866 75.1281 214.561C78.6876 220.257 85.7383 231.281 90.4825 240.472C95.2267 249.663 87.0806 258.907 90.6436 270.396C94.2066 281.886 101.641 290.965 107.366 299.608C113.09 308.25 116.094 311.15 120.602 317.773C125.111 324.395 125.688 338.547 129.271 338.442C132.854 338.338 135.513 331.506 135.48 328.424C135.448 325.342 130.249 322.016 125.919 316.123C121.589 310.23 101.292 280.613 96.3743 270.92C91.4565 261.226 100.122 249.244 93.1191 238.21Z" fill="url(#paint8_linear)"/>
<path d="M131.389 271.217C140.739 261.831 146.797 259.151 157.886 253.015C161.696 250.907 165.733 249.207 169.34 247.907C172.946 246.606 173.498 247.493 173.003 248.928C150.62 264.703 156.473 288.637 159.27 303.901C162.323 320.563 167.552 347.58 164.55 359.021C161.549 370.463 133.194 368.712 122.243 344.145C111.292 319.579 118.239 284.415 131.389 271.217Z" fill="url(#paint9_linear)"/>
<path opacity="0.528" d="M136.638 356.656L136.872 357.128L138.664 356.24L138.483 355.875C132.155 343.105 126.2 331.085 125.097 315.155C124.534 307.036 124.145 296.067 129.895 284.421C134.14 275.823 141.776 266.774 155.331 258.243C145.693 266.085 139.989 273.924 136.606 281.533C131.951 292.003 131.744 301.943 131.566 310.526C131.553 311.149 131.54 311.766 131.525 312.375C131.094 330.657 136.562 345.867 141.946 358.034L143.775 357.225C138.437 345.161 133.104 330.27 133.525 312.422C133.539 311.825 133.552 311.223 133.564 310.616L133.564 310.615L133.564 310.613C133.746 302 133.948 292.435 138.434 282.345C141.474 275.508 146.506 268.386 154.926 261.185C144.016 273.992 140.299 288.346 140.731 300.68C140.819 303.2 140.895 305.774 140.972 308.398C141.41 323.315 141.894 339.805 145.021 356.639L146.987 356.274C143.891 339.606 143.411 323.288 142.972 308.368L142.972 308.366L142.972 308.362C142.895 305.733 142.818 303.147 142.73 300.61C142.303 288.436 146.068 274.133 157.344 261.454C147.809 275.864 147.091 293.321 147.351 305.992C147.482 312.369 148.29 318.849 149.083 325.212C149.358 327.409 149.63 329.593 149.872 331.754C150.821 340.22 151.313 348.375 149.761 355.965L151.72 356.366C153.339 348.448 152.811 340.026 151.86 331.531C151.611 329.315 151.335 327.096 151.058 324.878C150.268 318.545 149.479 312.215 149.35 305.951C149.13 295.218 149.641 281.451 155.387 269.068C152.3 279.178 152.811 290.003 153.556 299.073C153.858 302.747 154.443 307.248 155.075 312.111L155.078 312.129C155.149 312.676 155.22 313.227 155.292 313.782C156.007 319.295 156.749 325.214 157.205 330.958C157.661 336.706 157.827 342.244 157.399 346.999C156.968 351.782 155.947 355.63 154.143 358.115L155.761 359.29C157.889 356.359 158.951 352.067 159.391 347.178C159.834 342.26 159.659 336.594 159.199 330.8C158.739 325.001 157.99 319.038 157.276 313.525C157.203 312.967 157.132 312.414 157.06 311.867L157.06 311.86C156.426 306.984 155.847 302.533 155.549 298.909C154.211 282.624 153.809 261.966 172.161 249.36L172.105 249.279C172.431 249.091 172.761 248.903 173.093 248.715L172.109 246.974C171.97 247.053 171.832 247.131 171.694 247.21L171.493 246.899C170.567 247.496 169.665 248.102 168.788 248.716C145.664 259.478 133.908 271.776 128.102 283.536C122.104 295.683 122.534 307.108 123.101 315.294C124.232 331.621 130.34 343.947 136.638 356.656Z" fill="url(#paint10_linear)"/>
<path d="M81.878 226.549C81.878 226.549 66.8777 189.966 70.1287 180.061C73.3797 170.156 86.513 159.727 91.6723 163.535C96.8316 167.342 93.9291 174.409 96.4663 179.314C108.976 186.179 105.648 198.97 99.5224 203.091C93.397 207.212 111.787 204.037 109.862 214.343C107.937 224.65 91.8407 233.202 91.8407 233.202L81.878 226.549Z" fill="#FF8F96"/>
<path d="M81.8778 226.549C81.8778 226.549 76.4235 193.964 77.7131 187.078C79.0028 180.191 84.7952 167.676 88.9034 170.4C93.0117 173.124 85.3729 179.151 97.6801 187.37C109.987 195.589 91.8542 201.815 93.7101 206.436C95.566 211.056 107.942 204.347 106.017 214.654C104.091 224.961 91.8405 233.202 91.8405 233.202L81.8778 226.549Z" fill="#FF505F"/>
<path d="M84.4952 229.283C84.4952 229.283 79.7238 196.149 80.7689 190.567C81.814 184.986 83.5873 179.891 86.2106 182.609C88.8338 185.327 84.0618 187.936 91.0944 192.633C98.1269 197.329 87.2295 204.059 89.0853 208.68C90.9412 213.3 102.857 207.733 100.932 218.04C99.0064 228.347 89.7694 232.805 89.7694 232.805L84.4952 229.283Z" fill="#FF8F96"/>
<path d="M87.1544 233.082C87.1544 233.082 84.3215 214.285 83.261 205.848C82.2005 197.412 83.6096 192.073 86.2329 194.791C92.1207 200.892 85.0907 204.607 87.768 211.273C89.6239 215.894 97.1028 210.262 95.1774 220.568C93.2519 230.875 89.4986 234.648 89.4986 234.648L87.1544 233.082Z" fill="#FF505F"/>
<path d="M82.6707 195.778C76.4628 183.224 61.6805 178.499 56.501 172.118C53.5521 177.477 50.4217 188.335 55.9414 198.406C59.6533 205.178 80.8181 219.247 84.5232 228.308C87.8048 231.534 89.9673 231.337 91.2679 229.261C81.1811 208.249 88.8785 208.332 82.6707 195.778Z" fill="#FFAE16"/>
<path d="M82.6707 195.778C76.4628 183.224 61.6805 178.499 56.501 172.118C54.2492 189.765 67.4815 190.127 76.6307 202.217C85.7799 214.308 80.8181 219.247 84.5232 228.308C87.8048 231.534 89.9673 231.337 91.2679 229.261C81.1811 208.249 88.8785 208.332 82.6707 195.778Z" fill="#FFE01A"/>
<path d="M91.3844 221.535C91.3844 221.535 63.2362 193.767 52.8391 193.014C42.4419 192.261 27.8067 200.45 29.3702 206.669C30.9337 212.888 38.5733 212.886 42.1478 217.096C43.7485 231.275 56.8457 233.053 62.9836 228.951C69.1216 224.849 59.2011 240.657 69.4671 242.789C79.733 244.921 93.7564 233.278 93.7564 233.278L91.3844 221.535Z" fill="#FF8F96"/>
<path d="M91.3842 221.535C91.3842 221.535 63.311 204.117 56.4503 202.695C49.5897 201.273 35.8122 201.88 36.7723 206.714C37.7323 211.549 46.2092 206.771 49.1394 221.278C52.0697 235.784 64.7144 221.373 68.2842 224.844C71.854 228.315 60.9485 237.217 71.2144 239.35C81.4803 241.482 93.7563 233.278 93.7563 233.278L91.3842 221.535Z" fill="#FF505F"/>
<path d="M92.9191 224.994C92.9191 224.994 64.0785 207.999 58.5183 206.847C52.9581 205.694 47.5713 205.4 49.0896 208.859C50.6079 212.318 54.8339 208.894 56.5083 217.183C58.1827 225.472 68.5467 217.946 72.1165 221.418C75.6863 224.889 66.0117 233.799 76.2776 235.931C86.5435 238.064 94.1749 231.211 94.1749 231.211L92.9191 224.994Z" fill="#FF8F96"/>
<path d="M95.4248 228.897C95.4248 228.897 79.1107 219.139 71.7086 214.954C64.3065 210.77 58.833 210.047 60.3513 213.505C63.759 221.269 69.866 216.176 75.0159 221.184C78.5857 224.655 70.5358 229.435 80.8017 231.568C91.0676 233.7 95.983 231.66 95.983 231.66L95.4248 228.897Z" fill="#FF505F"/>
</g>
<defs>
<linearGradient id="paint0_linear" x1="394.263" y1="317.654" x2="440.039" y2="335.737" gradientUnits="userSpaceOnUse">
<stop stop-color="#253C7A"/>
<stop offset="1" stop-color="#1C6670"/>
</linearGradient>
<linearGradient id="paint1_linear" x1="394.62" y1="326.768" x2="439.123" y2="341.416" gradientUnits="userSpaceOnUse">
<stop stop-color="#300886"/>
<stop offset="1" stop-color="#224A77"/>
</linearGradient>
<linearGradient id="paint2_linear" x1="234.859" y1="324.336" x2="138.281" y2="300.148" gradientUnits="userSpaceOnUse">
<stop stop-color="#253C7A"/>
<stop offset="1" stop-color="#1C6670"/>
</linearGradient>
<linearGradient id="paint3_linear" x1="223.313" y1="338.897" x2="133.258" y2="310.553" gradientUnits="userSpaceOnUse">
<stop stop-color="#300886"/>
<stop offset="1" stop-color="#224A77"/>
</linearGradient>
<linearGradient id="paint4_linear" x1="192.668" y1="122" x2="192.668" y2="386.467" gradientUnits="userSpaceOnUse">
<stop stop-color="#00AA4D"/>
<stop offset="0.519337" stop-color="#009544"/>
<stop offset="1" stop-color="#00AA4D"/>
</linearGradient>
<linearGradient id="paint5_linear" x1="192.734" y1="122" x2="192.734" y2="386.467" gradientUnits="userSpaceOnUse">
<stop stop-color="#300886"/>
<stop offset="1" stop-color="#300886" stop-opacity="0"/>
</linearGradient>
<linearGradient id="paint6_linear" x1="192.586" y1="122" x2="192.586" y2="386.458" gradientUnits="userSpaceOnUse">
<stop stop-color="#077C3C" stop-opacity="0.46"/>
<stop offset="1" stop-color="#077C3C"/>
</linearGradient>
<linearGradient id="paint7_linear" x1="192.586" y1="122" x2="192.586" y2="386.458" gradientUnits="userSpaceOnUse">
<stop stop-color="#01A64B"/>
<stop offset="0.674033" stop-color="#01A64B" stop-opacity="0"/>
</linearGradient>
<linearGradient id="paint8_linear" x1="75.1152" y1="193.705" x2="111.618" y2="342.83" gradientUnits="userSpaceOnUse">
<stop stop-color="#06803D" stop-opacity="0"/>
<stop offset="1" stop-color="#06803D"/>
</linearGradient>
<linearGradient id="paint9_linear" x1="116.498" y1="336.998" x2="160.76" y2="243.317" gradientUnits="userSpaceOnUse">
<stop stop-color="#253C7A"/>
<stop offset="1" stop-color="#1C6670"/>
</linearGradient>
<linearGradient id="paint10_linear" x1="135.693" y1="337.497" x2="172.564" y2="246.02" gradientUnits="userSpaceOnUse">
<stop stop-color="#300886"/>
<stop offset="1" stop-color="#224A77"/>
</linearGradient>
</defs>
</svg>
