<svg width="1133" height="328" viewBox="0 0 1133 328" fill="none" xmlns="http://www.w3.org/2000/svg">
<g opacity="0.5">
<path d="M186.023 112.973C180.147 107.419 172.4 111.817 172.4 111.817C172.4 111.817 222.42 153.045 233.126 162.53C243.831 172.016 277.305 203.752 298.052 221.401C324.568 243.958 359.142 284.182 367.883 289.934C376.625 295.687 386.989 307.997 390.693 302.289C394.398 296.581 343.096 251.427 323.709 233.098C304.322 214.769 270.508 186.987 257.334 176.207C244.161 165.428 227.112 151.821 218.3 143.489C209.487 135.158 191.898 118.528 186.023 112.973Z" fill="#341EA3"/>
<path d="M321.42 68.3647C321.42 68.3647 347.973 118.312 359.376 171.277C370.779 224.241 362.713 257.662 367.996 287.704C360.99 257.664 350.815 225.366 341.013 179.835C331.21 134.304 321.42 68.3647 321.42 68.3647Z" fill="#341EA3"/>
<path d="M287.299 48.3687C287.299 48.3687 311.754 97.0614 325.126 148.941C338.499 200.821 335.497 233.782 342.195 263.225C334.206 233.809 318.695 188.743 307.199 144.144C295.703 99.5459 287.299 48.3687 287.299 48.3687Z" fill="#341EA3"/>
<path d="M254.925 33.0687C254.925 33.0687 282.136 79.7178 296.465 130.09C310.794 180.463 306.605 213.074 313.706 241.71C305.112 213.169 294.727 188.261 282.409 144.958C270.091 101.655 254.925 33.0687 254.925 33.0687Z" fill="#341EA3"/>
<path d="M225.395 28.8972C225.395 28.8972 250.742 69.0265 264.269 112.805C277.796 156.584 274.172 185.325 280.901 210.243C272.799 185.453 256.66 159.409 245.031 121.774C233.402 84.1399 225.395 28.8972 225.395 28.8972Z" fill="#341EA3"/>
<path d="M196.107 20.3826C196.107 20.3826 219.435 54.4231 231.918 91.9986C244.4 129.574 241.114 154.632 247.328 176.049C239.854 154.785 224.999 132.683 214.268 100.381C203.538 68.0795 196.107 20.3826 196.107 20.3826Z" fill="#341EA3"/>
<path d="M165.429 12.7577C165.429 12.7577 187.388 43.1257 200.165 77.034C212.942 110.942 211.433 133.893 217.937 153.246C210.353 134.07 196.347 114.343 185.363 85.1941C174.379 56.0448 165.429 12.7577 165.429 12.7577Z" fill="#341EA3"/>
<path d="M131.06 16.6374C131.06 16.6374 157.945 41.381 175.72 71.8064C193.494 102.232 194.934 125.245 204.257 142.798C193.83 125.676 176.636 109.542 161.356 83.3869C146.076 57.2318 131.06 16.6374 131.06 16.6374Z" fill="#341EA3"/>
<path d="M68.9595 0.689758C68.9595 0.689758 105.34 22.2871 134.966 52.1252C164.591 81.9632 175.13 107.11 191.301 124.524C174.21 107.824 150.82 93.6692 125.352 68.0189C99.885 42.3687 68.9595 0.689758 68.9595 0.689758Z" fill="#341EA3"/>
<path d="M166.186 235.723C166.186 235.723 213.663 255.18 260.559 264.55C307.455 273.92 333.905 269.574 360.26 274.093C333.552 268.416 313.384 259.372 273.07 251.317C232.756 243.262 166.186 235.723 166.186 235.723Z" fill="#341EA3"/>
<path d="M147.587 207.329C147.587 207.329 194.172 229.358 240.097 239.66C286.022 249.963 311.836 244.571 337.639 249.492C311.48 243.228 292.346 235.01 252.866 226.154C213.387 217.297 147.587 207.329 147.587 207.329Z" fill="#341EA3"/>
<path d="M134.772 180.458C134.772 180.458 175.411 201.145 215.636 211.061C255.862 220.977 278.633 216.285 301.246 221.06C278.339 215.049 263.279 205.767 228.7 197.243C194.12 188.719 134.772 180.458 134.772 180.458Z" fill="#341EA3"/>
<path d="M124.469 155.956C124.469 155.956 159.473 175.141 194.253 184.433C229.032 193.725 248.848 189.522 268.409 194.011C248.608 188.385 236.032 179.854 206.134 171.867C176.236 163.879 124.469 155.956 124.469 155.956Z" fill="#341EA3"/>
<path d="M104.616 124.389C104.616 124.389 136.06 148.194 167.885 157.935C199.71 167.675 225.969 168.122 243.905 172.975C225.802 167.145 205.375 155.591 178.017 147.218C150.658 138.845 104.616 124.389 104.616 124.389Z" fill="#341EA3"/>
<path d="M89.7274 91.471C89.7274 91.471 118.059 114.309 148.451 128.701C178.843 143.093 198.338 143.225 215.601 150.694C198.375 142.215 179.999 127.625 153.872 115.252C127.746 102.88 89.7274 91.471 89.7274 91.471Z" fill="#341EA3"/>
<path d="M84.7498 57.5335C84.7498 57.5335 109.379 83.4775 138.003 102.271C166.627 121.064 186.974 124.982 203.387 135.026C187.233 124.086 171.21 107.457 146.603 91.3017C121.996 75.146 84.7498 57.5335 84.7498 57.5335Z" fill="#341EA3"/>
</g>
<path fill-rule="evenodd" clip-rule="evenodd" d="M771.056 251.535C776.423 235.535 802.056 111.963 874.827 79.2988C947.597 46.6343 957.255 52.6211 987.941 59.5836C953.646 70.3123 911.288 150.481 874.827 184.63C831.246 225.447 789.698 251.308 756.556 283.534C750.556 278.535 765.689 267.535 771.056 251.535Z" fill="#321394"/>
<path fill-rule="evenodd" clip-rule="evenodd" d="M712.337 326.032C726.902 302.639 742.901 281.837 757.77 266.532C811.814 210.9 902.1 172.686 962.935 171.359C935.27 185.532 931.77 207.532 868.77 236.032C805.77 264.532 759.27 281.619 727.27 326.032C723.77 326.032 718.27 326.032 712.337 326.032Z" fill="#321394"/>
<path fill-rule="evenodd" clip-rule="evenodd" d="M712.337 326.032C723.441 308.943 736.179 294.083 748.46 283.491C829.574 213.532 926.827 226.012 958.77 240.532C908.27 250.532 900.314 264.702 844.27 280.532C788.226 296.362 751.532 295.713 726.366 327.678C723.078 327.292 717.911 326.686 712.337 326.032Z" fill="#321394"/>
<path fill-rule="evenodd" clip-rule="evenodd" d="M746.948 282.032C792.514 204.32 848.575 132.841 860.77 122.032C882.77 102.532 902.27 81.532 964.27 64.532C897.27 89.8382 873.77 116.532 847.27 148.032C831.677 166.567 791.154 214.187 752.919 282.032C751.689 284.215 746.948 285.032 746.948 282.032Z" fill="#300886"/>
<path fill-rule="evenodd" clip-rule="evenodd" d="M836.77 229.532C851.847 218.185 872.752 200.501 923.588 180.97C867.454 208.59 782.77 283.032 782.77 283.032C782.77 283.032 821.693 240.879 836.77 229.532Z" fill="#300886"/>
<path fill-rule="evenodd" clip-rule="evenodd" d="M815.77 263.532C827.27 257.532 861.428 242.775 915.877 243.742C853.482 248.286 771.77 289.032 771.77 289.032C771.77 289.032 804.27 269.532 815.77 263.532Z" fill="#300886"/>
<path fill-rule="evenodd" clip-rule="evenodd" d="M930.27 82.532C925.77 83.6191 920.351 84.8348 913.053 86.991L912.487 85.073C919.856 82.8958 938.418 78.4356 953.744 78.0323C953.744 78.0323 934.77 81.4449 930.27 82.532Z" fill="#300886"/>
<path fill-rule="evenodd" clip-rule="evenodd" d="M912.965 81.9449C912.717 84.4057 911.871 86.6556 911.152 88.0026L909.388 87.0614C910.003 85.9083 910.757 83.9082 910.975 81.7441C911.301 78.5111 912.314 77.032 911.051 74.4073C912.874 76.6855 913.213 79.4844 912.965 81.9449ZM915.724 92.9385C907.121 94.617 899.51 97.1472 895.153 98.9556L894.387 97.1084C898.863 95.2501 906.603 92.6803 915.341 90.9755C924.068 89.2728 933.878 88.4155 942.457 90.0496C928.27 90.0496 924.46 91.2341 915.724 92.9385ZM874.27 90.032C884.954 90.032 889.695 94.8476 890.712 97.6956L888.828 98.3683C886.442 91.6855 877.77 90.9755 874.27 90.032ZM864.719 106.43C867.643 109.449 869.731 113.058 870.77 115.482L868.932 116.27C867.971 114.028 866.009 110.636 863.283 107.822C860.458 104.906 856.851 101.876 853.351 100.876C857.935 100.876 861.803 103.42 864.719 106.43ZM896.957 110.181C887.667 111.702 879.367 113.915 874.581 115.482L873.959 113.582C878.84 111.983 887.24 109.745 896.634 108.208C906.016 106.672 916.462 105.822 925.405 107.041C910.27 108.208 901.838 109.382 896.957 110.181ZM852.36 121.843C854.299 124.462 855.33 127.33 855.688 129.213L853.724 129.588C853.416 127.971 852.496 125.389 850.752 123.033C848.503 119.995 845.632 117.4 843.412 115.922C847.508 116.784 850.411 119.211 852.36 121.843ZM850.752 137.532L851.728 139.18C870.679 126.457 898.074 122.11 912.314 123.033C897.27 121.032 874.728 121.181 850.752 137.532ZM826.717 133.77C836.033 135.887 839.765 143.816 840.477 147.558L838.513 147.932C837.267 141.394 829.995 135.745 826.717 133.77ZM840.696 154.239C839.619 154.633 838.822 154.925 838.513 155.002L838.028 153.062C838.21 153.016 838.883 152.773 840.088 152.332L840.212 152.287C841.36 151.867 842.893 151.306 844.727 150.659C848.528 149.319 853.628 147.608 859.311 146.007C870.632 142.817 884.437 140.009 894.915 141.543C889.27 141.117 865.162 146.436 859.854 147.932C854.225 149.518 849.168 151.214 845.392 152.545C843.568 153.188 842.044 153.746 840.896 154.166L840.696 154.239ZM846.063 167.8C835.355 171.087 826.056 175.677 820.79 178.886L819.75 177.178C825.15 173.887 834.601 169.227 845.477 165.889C856.34 162.554 868.725 160.507 879.949 162.548C871.27 161.739 851.4 166.162 846.063 167.8ZM819.75 164.032C821.83 166.61 822.712 169.684 822.893 171.761L820.9 171.934C820.747 170.178 819.98 167.502 818.193 165.288C815.557 162.021 812.896 160.347 809.396 159.347C814.317 159.347 817.638 161.416 819.75 164.032ZM826.124 190.547C815.626 194.364 807.036 199.394 802.363 202.837L801.177 201.227C806.004 197.67 814.764 192.55 825.441 188.667C836.116 184.785 848.778 182.115 861.382 183.538C853.27 183.538 831.599 188.556 826.124 190.547ZM793.759 184.977C801.273 188.316 803.961 194.074 804.343 196.749L802.363 197.032C801.575 191.517 797.353 188.026 793.759 184.977ZM781.241 204.695C788.321 208.444 790.575 213.969 790.77 216.503L788.776 216.656C788.358 211.227 783.773 207.579 781.241 204.695ZM799.698 216.503C793.439 219.158 788.242 222.535 785.395 224.813L784.145 223.251C787.131 220.862 792.485 217.39 798.917 214.661C805.343 211.936 812.93 209.917 820.353 210.535C814.27 211.532 803.947 214.7 799.698 216.503Z" fill="#300886"/>
<path fill-rule="evenodd" clip-rule="evenodd" d="M910.15 74.841L911.832 73.7826C913.877 76.3393 914.223 79.4372 913.96 82.0453C913.904 82.6034 913.819 83.1508 913.712 83.6806C921.916 81.384 939.227 77.414 953.718 77.0327L953.921 79.0165L953.744 78.0323C953.921 79.0165 953.921 79.0165 953.921 79.0165L953.098 79.1651C952.571 79.2605 951.812 79.398 950.888 79.5663C949.04 79.9031 946.529 80.3634 943.878 80.8576C938.559 81.8489 932.723 82.9682 930.505 83.504C929.803 83.6735 929.08 83.8459 928.333 84.0242C924.272 84.9927 919.474 86.1366 913.337 87.95L912.378 88.2334L912.296 87.9563C912.208 88.1395 912.121 88.3121 912.035 88.4732L911.564 89.3555L908.035 87.4732L908.505 86.5908C909.069 85.5347 909.777 83.6595 909.98 81.6437C910.066 80.7914 910.197 80.0588 910.32 79.4154C910.341 79.3053 910.362 79.199 910.381 79.0959C910.481 78.5828 910.564 78.1486 910.617 77.725C910.734 76.7778 910.684 75.9508 910.15 74.841ZM915.15 89.994C923.933 88.2803 933.886 87.3991 942.644 89.0673L942.457 91.0496C930.163 91.0496 925.76 91.9391 919.032 93.2981C918.053 93.4959 917.025 93.7036 915.916 93.92C907.38 95.5853 899.833 98.0957 895.537 99.8792L894.613 100.263L893.08 96.5682L894.003 96.1848C898.54 94.3016 906.344 91.712 915.15 89.994ZM874.01 90.9975L874.27 89.032C885.236 89.032 890.452 93.9954 891.654 97.3593L891.99 98.301L888.223 99.6464L887.887 98.7046C886.833 95.7546 884.382 94.0616 881.604 92.9798C880.219 92.4407 878.788 92.0674 877.465 91.7682C876.986 91.6599 876.507 91.5585 876.048 91.4613C875.281 91.2991 874.57 91.1486 874.01 90.9975ZM853.076 101.838L853.351 99.8762C858.32 99.8762 862.431 102.63 865.438 105.735C868.461 108.856 870.611 112.572 871.689 115.088L872.083 116.008L868.407 117.583L868.013 116.664C867.091 114.514 865.191 111.23 862.564 108.518C859.754 105.617 856.304 102.76 853.076 101.838ZM896.472 107.221C905.896 105.678 916.455 104.811 925.54 106.05L925.482 108.038C910.371 109.203 901.967 110.374 897.118 111.168C887.88 112.68 879.63 114.881 874.893 116.433L873.942 116.744L872.697 112.943L873.647 112.631C878.577 111.017 887.027 108.767 896.472 107.221ZM842.858 116.754L843.618 114.943C848.011 115.868 851.108 118.471 853.163 121.248C855.2 123.999 856.287 127.009 856.671 129.026L856.858 130.009L852.929 130.757L852.741 129.775C852.459 128.292 851.595 125.852 849.949 123.628C847.769 120.684 844.982 118.169 842.858 116.754ZM855.354 135.747C864.068 130.72 874.049 127.231 883.561 125.015C885.794 124.495 888.005 124.044 890.171 123.66C879.636 124.819 867.742 128.172 855.354 135.747ZM850.189 136.706C874.434 120.171 897.25 120.021 912.446 122.042L912.249 124.031C905.247 123.577 894.938 124.418 884.015 126.963C873.093 129.507 861.63 133.737 852.286 140.011L851.407 140.601L849.414 137.234L850.189 136.706ZM826.201 134.626L826.938 132.795C836.772 135.03 840.701 143.388 841.46 147.371L841.647 148.353L837.717 149.101L837.53 148.119C836.961 145.128 834.985 142.252 832.656 139.833C830.342 137.429 827.776 135.575 826.201 134.626ZM837.892 143.461C837.336 142.455 836.682 141.496 835.974 140.595C836.748 141.543 837.383 142.518 837.892 143.461ZM859.04 145.044C870.369 141.852 884.354 138.986 895.06 140.553L894.84 142.54C893.556 142.443 891.099 142.676 887.947 143.14C884.833 143.599 881.142 144.268 877.452 144.998C870.064 146.46 862.741 148.157 860.125 148.895C854.524 150.473 849.489 152.161 845.724 153.488C843.907 154.129 842.387 154.685 841.239 155.105L841.039 155.178L840.92 155.222C839.936 155.582 839.118 155.882 838.755 155.972L837.785 156.215L836.815 152.334L837.784 152.092C837.784 152.092 837.785 152.092 837.788 152.091C837.793 152.089 837.804 152.086 837.822 152.081C837.851 152.072 837.889 152.059 837.939 152.043C838.038 152.009 838.17 151.963 838.339 151.903C838.676 151.783 839.141 151.614 839.744 151.393L839.868 151.348L839.871 151.346C841.019 150.926 842.556 150.364 844.394 149.716C848.208 148.372 853.329 146.654 859.04 145.044ZM859.583 146.969C864.839 145.489 870.594 144.102 876.278 143.192C869.143 144.621 862.18 146.238 859.583 146.969ZM809.122 160.309L809.396 158.347C814.638 158.347 818.239 160.567 820.528 163.404C822.755 166.164 823.694 169.437 823.889 171.674L823.976 172.67L819.991 173.017L819.904 172.021C819.765 170.425 819.055 167.948 817.415 165.916C814.907 162.808 812.422 161.252 809.122 160.309ZM845.183 164.933C856.119 161.576 868.68 159.483 880.128 161.564L879.856 163.544C875.67 163.153 868.658 164.03 861.93 165.241C855.233 166.446 848.974 167.953 846.357 168.756C835.732 172.018 826.509 176.572 821.311 179.74L820.457 180.26L818.375 176.844L819.229 176.324C824.698 172.992 834.224 168.296 845.183 164.933ZM845.77 166.844C850.405 165.422 855.302 164.241 860.252 163.515C854.016 164.683 848.311 166.064 845.77 166.844ZM825.099 187.727C835.862 183.813 848.686 181.098 861.494 182.545L861.382 184.538C857.446 184.538 850.098 185.769 842.971 187.274C835.857 188.777 829.131 190.517 826.466 191.487C816.057 195.272 807.552 200.256 802.956 203.642L802.151 204.235L799.779 201.015L800.584 200.422C801.706 199.595 803.035 198.686 804.546 197.73L801.515 198.163L801.373 197.173C800.654 192.137 796.83 188.893 793.199 185.812L793.112 185.739L794.165 184.063C801.992 187.542 804.902 193.59 805.333 196.608L805.416 197.187C810.438 194.092 817.259 190.578 825.099 187.727ZM845.414 184.731C838.503 185.609 831.841 187.405 825.8 189.601C828.62 188.578 835.454 186.818 842.558 185.318C843.505 185.117 844.46 184.921 845.414 184.731ZM780.49 205.355L781.709 203.812C789.07 207.709 791.544 213.525 791.767 216.426L791.813 217.022C793.859 215.886 796.119 214.762 798.527 213.741C805.033 210.981 812.791 208.902 820.436 209.539L820.515 211.522C814.517 212.505 804.271 215.649 800.089 217.423C793.916 220.041 788.798 223.371 786.019 225.594L785.239 226.218L782.74 223.095L783.521 222.47C785.292 221.053 787.864 219.273 790.983 217.489L787.856 217.73L787.779 216.733C787.591 214.29 786.465 212.206 785.012 210.334C784.285 209.399 783.49 208.532 782.704 207.707C782.501 207.494 782.297 207.282 782.095 207.072C781.526 206.48 780.97 205.902 780.49 205.355ZM799.308 215.582C801.457 214.67 803.73 213.842 806.076 213.17C803.335 214.041 800.905 214.905 799.308 215.582Z" fill="#300886"/>
<path d="M706.183 303.129C706.183 303.129 715.73 200.622 736.759 169.194C757.787 137.765 804.423 99.7896 812.505 108.65C820.587 117.51 773.787 137.365 790.121 160.887C806.454 184.41 801.86 208.219 781.072 223.694C760.284 239.169 810.785 220.372 792.579 252.344C774.373 284.316 722.696 318.134 722.696 318.134L706.183 303.129Z" fill="#290773"/>
<path d="M686.699 324.897C686.699 324.897 543.314 327.52 503.712 306.292C464.109 285.064 421.367 233.578 435.905 222.51C450.444 211.441 467.392 265.645 504.755 242.496C542.118 219.348 574.851 221.631 591.838 244.783C608.826 267.935 594.271 209.08 635.326 226.797C676.381 244.514 712 302.714 712 302.714L686.699 324.897Z" fill="#290773"/>
<path d="M476.396 271.098C476.396 271.098 485.171 209.821 475.336 189.956C465.502 170.09 438.931 144.82 432.01 149.586C425.088 154.352 446.301 164.5 436 173.5C425.699 182.5 432.938 185.596 445 196C457.062 206.404 413.2 195.981 421 216C428.8 236.019 462.719 279 462.719 279L476.396 271.098Z" fill="#290773"/>
<path d="M125.274 194.513C101.596 184.838 100.069 142.917 50.4614 145.043C36.5371 145.64 10.5644 152.348 0.773682 159.774C11.7567 156.11 54.1523 144.892 66.2616 149.961C78.3709 155.03 90.1359 167.298 95.6739 180.631C101.212 193.964 112.847 193.6 129.843 208.703C146.838 223.805 155.903 248.475 174.941 255.73C193.98 262.986 231.765 262.076 246.603 267.472C261.442 272.867 274.545 296.608 281.819 291.596C289.092 286.583 280.966 277.845 278.303 272.549C275.64 267.253 254.118 258.496 240.26 254.123C226.402 249.749 215.274 250.123 187.274 240.513C159.274 230.903 148.952 204.188 125.274 194.513Z" fill="#341EA3"/>
<path d="M136.774 152.013C122.569 110.099 121.172 72.0754 70.2737 55.5128C55.9871 50.8639 21.2737 40.0128 5.77372 40.0128C31.2737 49.0128 66.0642 60.4875 77.2737 70.5128C88.4832 80.5381 109.042 113.635 111.774 130.013C114.505 146.39 116.278 153.39 130.274 176.013C144.27 198.635 168.995 228.515 186.774 243.513C204.553 258.51 229.918 261.845 243.832 273.256C257.745 284.668 265.905 315.061 274.39 312.457C282.875 309.852 298.33 295.694 296.774 289.013C295.218 282.331 276.912 269.457 263.774 259.513C250.635 249.568 205.054 246.119 195.774 236.013C186.494 225.907 150.978 193.926 136.774 152.013Z" fill="#341EA3"/>
<path d="M957.802 253.258C983.333 254.815 1002.9 217.708 1046.67 241.147C1058.96 247.726 1079.45 265.039 1085.05 275.978C1076.74 267.912 1043.41 239.41 1030.3 238.723C1017.19 238.036 1001.27 243.984 990.494 253.594C979.719 263.204 969.394 257.828 947.529 264.061C925.664 270.294 906.793 288.587 886.492 286.864C866.191 285.141 832.542 267.927 816.832 266.35C801.122 264.773 779.016 280.478 774.637 272.806C770.259 265.134 781.371 260.787 786.069 257.17C790.766 253.554 813.956 255.002 828.339 257.075C842.722 259.148 852.587 264.312 881.984 267.803C911.38 271.293 932.271 251.702 957.802 253.258Z" fill="#341EA3"/>
<path d="M965.881 209.978C996.864 178.378 1014.62 144.726 1067.66 151.887C1082.55 153.897 1118.54 159.182 1132.5 165.907C1105.62 162.952 1069.3 158.195 1054.85 162.364C1040.4 166.533 1007.52 187.433 997.95 201.003C988.383 214.574 983.749 220.112 961.324 234.421C938.899 248.731 903.658 264.924 881.132 270.723C858.607 276.521 834.306 268.52 816.82 272.764C799.333 277.009 778.794 300.852 772.279 294.824C765.765 288.796 757.983 269.335 762.284 263.99C766.585 258.645 788.663 254.988 804.815 251.729C820.968 248.47 863.532 265.139 876.278 260.06C889.024 254.982 934.898 241.578 965.881 209.978Z" fill="#341EA3"/>
</svg>
