<svg width="898" height="407" viewBox="0 0 898 407" fill="none" xmlns="http://www.w3.org/2000/svg">
<path d="M806.118 232.703C818.176 229.865 828.183 230.303 837.222 233.614C821.609 244.515 814.333 257.282 818.097 259.632C821.862 261.982 830.885 245.747 851.006 241.288C853.356 243.056 855.674 245.037 857.986 247.221C852.41 248.709 844.122 255.961 845.648 259.141C847.175 262.321 857.722 255.604 864.825 254.261C866.275 255.869 867.731 257.553 869.201 259.31C860.581 260.941 847.867 271.793 849.48 274.507C851.093 277.221 866.35 268.618 875.311 266.923C881.979 275.523 889.051 285.49 897.033 296.633C887.612 298.652 879.473 301.837 872.211 305.578C864.924 304.538 860.742 300.103 858.856 301.254C856.969 302.404 859.016 308.074 863.215 310.717C859.121 313.276 855.299 315.948 851.653 318.586C831.447 310.1 823.015 293.774 819.537 295.492C816.06 297.209 834.695 319.121 842.986 324.923C828.057 335.751 814.953 343.63 795.613 336.342C757.991 322.165 791.643 278.415 791.643 278.415C791.643 278.415 766.468 242.035 806.118 232.703Z" fill="#290773"/>
<path d="M779.324 324.475C786.816 326.76 840.243 327.415 856.943 319.614C873.643 311.812 882.518 288.446 870.349 281.446C858.18 274.445 863.889 293.907 843.344 283.335C822.799 272.762 825.215 279.433 822.548 290.126C819.882 300.819 794.604 259.728 775.919 265.572C757.233 271.416 724.247 288.617 732.221 300.381C740.196 312.145 771.832 322.19 779.324 324.475Z" fill="#01A64B"/>
<path d="M779.324 324.475C786.816 326.76 840.243 327.415 856.943 319.614C873.643 311.812 882.518 288.446 870.349 281.446C875.538 296.5 859 309.387 846.5 311C834 312.613 812.5 316 804.5 316C796.5 316 763 310.5 775.919 265.572C757.233 271.416 724.247 288.617 732.221 300.381C740.196 312.145 771.832 322.19 779.324 324.475Z" fill="#058A4A"/>
<path d="M749.515 225.912C747.979 223.855 743.063 226.492 743.063 226.492C743.063 226.492 757.636 241.239 760.592 244.697C763.547 248.155 772.277 259.915 778.186 266.282C785.738 274.42 792.919 289.964 795.824 291.878C798.728 293.793 800.819 298.568 804.058 295.661C807.298 292.755 793.059 276.321 787.99 269.534C782.922 262.746 773.049 252.817 769.192 248.969C765.335 245.121 760.258 240.298 757.954 237.213C755.65 234.128 751.051 227.969 749.515 225.912Z" fill="#1C6670"/>
<path fill-rule="evenodd" clip-rule="evenodd" d="M740.907 210.041C736.629 202.042 729.868 195.865 729.868 195.865C729.868 195.865 731.606 201.422 733.939 207.103C731.077 204.198 728.729 202.026 728.729 202.026C728.729 202.026 731.982 209.872 737.225 216.501C737.614 216.993 738.002 217.464 738.387 217.914C733.591 214.355 727.619 210.975 727.619 210.975C727.619 210.975 731.759 217.452 737.479 222.21C740.88 225.039 743.964 226.568 746.607 227.878L746.848 227.998C747.067 228.346 747.275 228.695 747.472 229.046C747.325 228.739 747.187 228.424 747.057 228.102C748.056 228.599 748.989 229.072 749.847 229.584C750.287 230.566 750.67 231.527 750.959 232.499C750.793 231.737 750.701 230.936 750.652 230.092C750.896 230.255 751.132 230.423 751.362 230.599C751.12 230.39 750.881 230.173 750.644 229.949C750.589 228.885 750.597 227.754 750.606 226.548C750.631 223.29 750.66 219.489 749.441 215.014C747.39 207.486 742.585 201.288 742.585 201.288C742.585 201.288 743.125 211.278 744.887 217.749C745.691 220.699 746.761 223.144 747.808 225.332C747.511 224.84 747.212 224.336 746.905 223.82C746.268 222.749 745.602 221.628 744.871 220.464C744.053 217.376 742.97 213.898 740.907 210.041ZM746.977 226.025C747.074 226.135 747.171 226.243 747.267 226.351C748.03 227.211 748.757 228.029 749.482 228.788C749.339 228.485 749.193 228.179 749.043 227.87C748.403 227.256 747.711 226.65 746.977 226.025Z" fill="#1C6670"/>
<path d="M755.193 216.438C754.683 208.092 751.572 200.553 751.572 200.553C751.572 200.553 750.365 211.162 750.803 218.337C751.052 222.411 751.79 225.75 752.451 228.74C752.954 231.016 753.412 233.089 753.576 235.13C753.539 233.201 753.881 231.135 754.268 228.804C754.835 225.387 755.496 221.4 755.193 216.438Z" fill="#1C6670"/>
<path d="M758.706 202.6C758.706 202.6 761.869 211.043 762.011 220.282C762.095 225.774 761.126 230.154 760.297 233.907C759.73 236.468 759.229 238.738 759.169 240.871C759.09 238.61 758.675 236.303 758.219 233.77C757.621 230.443 756.953 226.727 756.884 222.218C756.762 214.276 758.706 202.6 758.706 202.6Z" fill="#1C6670"/>
<path d="M768.511 225.554C768.602 214.796 765.418 204.856 765.418 204.856C765.418 204.856 763.014 218.375 762.936 227.623C762.891 232.874 763.513 237.223 764.07 241.116C764.494 244.08 764.88 246.781 764.906 249.415C765.026 246.934 765.627 244.311 766.304 241.351C767.298 237.012 768.457 231.949 768.511 225.554Z" fill="#1C6670"/>
<path d="M772.538 206.054C772.538 206.054 775.671 217.596 775.254 229.966C775.006 237.32 773.609 243.104 772.411 248.061C771.594 251.442 770.87 254.439 770.667 257.288C770.714 254.425 770.638 251.707 770.555 248.769C770.436 244.514 770.303 239.796 770.515 233.505C770.874 222.871 772.538 206.054 772.538 206.054Z" fill="#1C6670"/>
<path d="M780.98 234.739C781.759 222.007 779.485 209.984 779.485 209.984C779.485 209.984 777.508 222.514 776.838 233.459C776.443 239.919 776.388 246.428 776.339 252.162L776.339 252.165C776.305 256.145 776.274 259.751 776.135 262.71C776.406 259.782 777.126 256.722 777.938 253.271C779.128 248.211 780.517 242.308 780.98 234.739Z" fill="#1C6670"/>
<path d="M786.498 215.069C786.498 215.069 789.2 227.411 787.837 240.395C787.027 248.114 785.032 254.107 783.323 259.243C782.157 262.747 781.123 265.853 780.689 268.837C780.941 265.917 781.096 262.907 781.265 259.642C781.521 254.67 781.809 249.107 782.516 242.369C783.688 231.207 786.498 215.069 786.498 215.069Z" fill="#1C6670"/>
<path d="M795.319 248.781C796.824 234.45 793.707 220.835 793.707 220.835C793.707 220.835 790.397 238.275 789.104 250.594C788.335 257.915 788.086 264.112 787.864 269.641L787.864 269.642L787.864 269.647C787.82 270.734 787.778 271.795 787.732 272.833C784.883 272.231 782.588 271.479 780.102 270.665C776.731 269.561 773.011 268.342 767.086 267.226C756.657 265.262 737.758 263.569 737.758 263.569C737.758 263.569 749.244 269.206 761.376 271.491C768.588 272.849 774.203 272.72 779.016 272.61C782.195 272.538 785.023 272.473 787.732 272.85C787.64 274.952 787.537 276.963 787.392 278.911C786.266 278.624 785.162 278.325 784.021 278.017L784.02 278.017L784.019 278.017C780.496 277.065 776.626 276.019 770.699 274.903C760.507 272.983 742.627 270.814 742.627 270.814C742.627 270.814 753.846 276.401 765.703 278.634C772.751 279.961 778.24 279.809 782.945 279.678C784.484 279.635 785.939 279.595 787.337 279.61C787.322 279.799 787.306 279.988 787.29 280.177C787.318 279.988 787.348 279.799 787.38 279.61C788.882 279.627 790.319 279.708 791.725 279.918C790.218 279.608 788.843 279.281 787.502 278.939C788.066 276.023 789.102 272.973 790.252 269.587C792.178 263.916 794.424 257.3 795.319 248.781Z" fill="#1C6670"/>
<path d="M802.125 225.126C802.125 225.126 804.64 239.134 802.183 253.225C800.723 261.601 797.933 267.894 795.542 273.288C793.911 276.968 792.466 280.229 791.754 283.448C792.212 280.456 792.62 277.294 793.06 273.877C793.799 268.14 794.631 261.682 795.954 254.092C798.066 241.979 802.125 225.126 802.125 225.126Z" fill="#1C6670"/>
<path d="M811.046 235.186C811.046 235.186 810.962 252.117 807.314 264.998C805.16 272.602 802.361 276.897 799.932 280.624C798.643 282.602 797.458 284.419 796.529 286.487C796.944 286.568 797.366 286.644 797.796 286.716C797.354 286.674 796.91 286.648 796.462 286.637C796.202 287.226 795.963 287.837 795.748 288.478C795.912 287.848 796.063 287.234 796.205 286.631C793.933 286.599 791.56 286.912 788.947 287.258C784.214 287.884 778.693 288.614 771.55 287.579C759.534 285.837 748.042 279.685 748.042 279.685C748.042 279.685 765.519 280.301 775.849 281.799C781.793 282.661 785.906 283.781 789.626 284.795C791.872 285.406 793.975 285.979 796.252 286.433C796.773 284.196 797.169 282.102 797.586 279.888C798.354 275.823 799.197 271.356 801.034 264.87C804.17 253.798 811.046 235.186 811.046 235.186Z" fill="#1C6670"/>
<path d="M757.963 291.114C757.963 291.114 768.411 295.655 778.562 295.522C784.597 295.443 789.009 293.789 792.791 292.371C795.371 291.404 797.658 290.547 799.966 290.375C797.936 290.345 795.82 290.268 793.552 290.186C789.356 290.034 784.639 289.863 778.974 289.937C770.248 290.051 757.963 291.114 757.963 291.114Z" fill="#1C6670"/>
<path d="M733.906 254.923C733.906 254.923 744.333 259.959 755.421 262.531C762.013 264.061 767.168 264.364 771.588 264.624C774.603 264.801 777.274 264.958 779.826 265.47C777.111 264.802 774.755 263.988 772.186 263.101C768.805 261.933 765.056 260.639 759.639 259.382C750.107 257.17 733.906 254.923 733.906 254.923Z" fill="#1C6670"/>
<path d="M752.249 256.337C741.48 253.543 731.485 247.886 731.485 247.886C731.485 247.886 747.297 250.72 756.554 253.122C761.89 254.507 765.537 255.798 768.837 256.967C771.262 257.825 773.501 258.618 776.085 259.333C773.604 258.782 770.986 258.645 768.032 258.49C763.702 258.263 758.65 257.998 752.249 256.337Z" fill="#1C6670"/>
<path d="M730.402 241.255C730.402 241.255 739.004 246.549 748.364 249.213C753.929 250.798 758.35 251.085 762.139 251.332C764.724 251.5 767.015 251.649 769.175 252.177C766.879 251.481 765.003 250.645 762.961 249.734C760.288 248.542 757.33 247.223 752.769 245.924C744.722 243.634 730.402 241.255 730.402 241.255Z" fill="#1C6670"/>
<path d="M745.099 242.59C737.063 240.11 729.763 235.218 729.763 235.218C729.763 235.218 742.197 237.467 749.105 239.598C753.018 240.806 755.514 242.022 757.77 243.12C759.496 243.961 761.081 244.733 763.052 245.38C761.196 244.888 759.214 244.743 756.978 244.58C753.7 244.342 749.876 244.063 745.099 242.59Z" fill="#1C6670"/>
<path d="M727.28 227.399C727.28 227.399 733.311 233.396 740.565 235.966C744.928 237.512 749.052 238.226 752.547 238.831C754.862 239.232 756.902 239.585 758.551 240.1C756.778 239.438 754.98 238.512 753.008 237.496C750.416 236.161 747.522 234.67 743.981 233.416C737.745 231.206 727.28 227.399 727.28 227.399Z" fill="#1C6670"/>
<path d="M738 228.719C731.481 225.023 726.157 219.281 726.157 219.281C726.157 219.281 734.841 222.296 740.446 225.473C743.628 227.277 746.122 229.24 748.356 230.998C750.056 232.336 751.604 233.555 753.19 234.494C751.666 233.712 749.952 233.223 748.018 232.67C745.183 231.861 741.876 230.916 738 228.719Z" fill="#1C6670"/>
<circle r="13.5" transform="matrix(-1 0 0 1 801.5 289.5)" fill="#EB3343"/>
<circle r="8" transform="matrix(-1 0 0 1 799 288)" fill="#FF8F96"/>
<circle r="3" transform="matrix(-1 0 0 1 799 288)" fill="#FB3646"/>
<path d="M871.633 277.109C878.673 283.263 880.839 287.407 885.671 294.935C887.331 297.522 888.713 300.287 889.795 302.767C890.877 305.248 890.278 305.677 889.244 305.395C877.104 290.355 860.516 295.577 849.894 298.249C838.298 301.165 819.51 306.09 811.313 304.501C803.116 302.913 803.046 282.861 819.846 274.019C836.646 265.177 861.732 268.453 871.633 277.109Z" fill="url(#paint0_linear)"/>
<path opacity="0.528" d="M811.696 284.733L811.374 284.919L812.082 286.141L812.331 285.997C821.035 280.953 829.226 276.206 840.396 274.696C846.089 273.927 853.797 273.149 862.263 276.663C868.515 279.258 875.239 284.22 881.871 293.376C875.905 286.948 870.121 283.291 864.606 281.258C857.018 278.46 850.007 278.771 843.954 279.04C843.514 279.059 843.079 279.079 842.65 279.097C829.753 279.633 819.292 284.184 810.969 288.535L811.623 289.786C819.875 285.472 830.118 281.031 842.708 280.507C843.13 280.49 843.554 280.471 843.982 280.452L843.984 280.452C850.059 280.184 856.806 279.886 864.118 282.582C869.074 284.409 874.322 287.626 879.78 293.226C870.259 286.13 859.977 284.171 851.31 285.043C849.539 285.221 847.729 285.392 845.885 285.567C835.399 286.561 823.806 287.66 812.093 290.637L812.441 292.005C824.039 289.058 835.509 287.97 845.998 286.975L845.999 286.975L846.002 286.974C847.85 286.799 849.669 286.627 851.451 286.447C860.006 285.587 870.254 287.582 879.702 294.941C869.114 288.888 856.786 289.184 847.873 289.95C843.387 290.335 838.86 291.202 834.415 292.053C832.88 292.347 831.354 292.64 829.844 292.91C823.924 293.967 818.203 294.688 812.786 293.944L812.594 295.343C818.245 296.119 824.153 295.36 830.092 294.299C831.642 294.022 833.192 293.726 834.741 293.429C839.166 292.581 843.588 291.735 847.994 291.356C855.543 290.708 865.264 290.435 874.249 293.913C866.986 292.203 859.385 293.06 853.032 294.002C850.457 294.384 847.314 295.003 843.918 295.672L843.905 295.674C843.524 295.749 843.139 295.825 842.751 295.901C838.901 296.658 834.766 297.453 830.741 298.038C826.714 298.623 822.821 298.995 819.452 298.912C816.063 298.828 813.306 298.286 811.473 297.129L810.719 298.323C812.882 299.687 815.954 300.238 819.417 300.323C822.902 300.409 826.884 300.025 830.945 299.435C835.008 298.844 839.173 298.043 843.024 297.286C843.413 297.21 843.799 297.134 844.181 297.059L844.186 297.058C847.591 296.387 850.7 295.775 853.239 295.398C864.647 293.708 879.179 292.475 888.901 304.821L888.956 304.778C889.103 304.999 889.251 305.223 889.398 305.448L890.579 304.675C890.518 304.581 890.456 304.487 890.394 304.393L890.604 304.238C890.141 303.613 889.673 303.005 889.2 302.416C880.557 286.623 871.354 278.908 862.805 275.36C853.973 271.694 845.946 272.522 840.207 273.297C828.759 274.844 820.358 279.713 811.696 284.733Z" fill="url(#paint1_linear)"/>
<path d="M619.824 110.412C633.191 98 655.151 102.774 664.699 98C666.608 107.548 666.608 124.734 655.151 134.282C647.446 140.702 613.141 143.83 604.548 153.377C598.819 155.287 595.955 153.377 595 149.558C616.96 128.553 606.457 122.824 619.824 110.412Z" fill="#FFAE16"/>
<path d="M619.824 110.412C633.191 98 655.151 102.774 664.699 98C660.841 123.779 642.701 114.231 625.515 123.779C608.328 133.327 613.141 143.83 604.548 153.377C598.819 155.287 595.955 153.377 595 149.558C616.96 128.553 606.457 122.824 619.824 110.412Z" fill="#FFE01A"/>
<path d="M548.393 153.36C544.734 139.455 533.756 129.94 533.756 129.94C533.756 129.94 543.27 146.773 543.27 164.338C543.27 181.903 539.294 195.926 545.466 212.642C551.637 229.358 559.522 242.217 564.494 255.091C569.467 267.965 570.349 287.294 570.349 287.294C570.349 287.294 580.789 289.943 582.608 285.064C584.428 280.186 587.67 253.546 582.608 241.917C577.547 230.289 554.273 207.447 552.053 197.273C549.832 187.098 552.053 167.266 548.393 153.36Z" fill="#118353"/>
<path d="M549.773 103.115C549.773 93.5666 563.179 108.844 568.908 111.708C569.863 127.939 575.592 167.084 575.592 167.084C575.592 167.084 608.054 128.893 614.738 126.984C621.421 125.074 629.059 127.938 627.15 134.622C625.24 141.306 583.26 175.887 578.456 187.135C573.651 198.384 571.772 220.552 568.908 261.608C566.044 302.664 571.772 377.137 571.772 377.137L561.27 406.735C561.27 406.735 554.586 324.623 554.586 293.116C554.586 261.608 559.36 210.05 561.27 189.999C563.179 169.949 554.547 148.944 554.547 134.622C554.547 120.3 549.773 112.663 549.773 103.115Z" fill="#1B0054"/>
<path fill-rule="evenodd" clip-rule="evenodd" d="M583.705 244.567C592.884 234.605 602.346 229.013 612.818 226.755C605.707 246.577 607.471 263.179 612.474 263.168C614.462 263.164 615.272 259.85 616.5 254.83C618.362 247.218 621.183 235.685 630.522 225.828C633.844 226.11 637.277 226.615 640.838 227.318C636.71 232.093 633.904 244.02 637.403 246.149C639.54 247.449 642.322 243.195 645.445 238.421C647.437 235.375 649.567 232.118 651.757 229.955C654.149 230.625 656.596 231.363 659.104 232.164C652.28 238.903 647.795 256.936 651.066 258.568C652.936 259.501 656.453 254.207 660.447 248.193C663.438 243.691 666.696 238.785 669.733 235.786C680.272 239.569 691.826 244.204 704.638 249.343C706.164 249.955 707.707 250.574 709.269 251.2C701.968 258.793 696.611 266.733 692.426 274.679C688.54 276.462 684.822 276.822 682.034 277.091C679.537 277.333 677.785 277.502 677.327 278.559C676.358 280.794 681.979 284.997 687.574 285.006C685.511 289.917 683.773 294.772 682.173 299.49C667.674 301.898 655.202 299.04 647.112 297.186C641.74 295.955 638.3 295.167 637.481 296.657C635.428 300.391 666.983 310.188 678.416 310.767C671.883 330.107 665.077 345.526 642.535 350.162C598.686 359.179 600.632 297.053 600.632 297.053C600.632 297.053 553.526 277.323 583.705 244.567ZM636.281 250.826C637.496 251.276 637.596 254.386 637.684 257.134C637.72 258.262 637.754 259.329 637.863 260.125C638.236 262.86 637.367 264.65 634.481 264.242C631.595 263.833 630.36 261.484 630.847 258.52C631.334 255.557 634.568 250.191 636.281 250.826ZM591.537 257.201C591.58 254.431 591.621 251.836 590.141 251.555C587.638 251.079 583.224 259.318 583.752 262.21C583.776 262.339 583.8 262.476 583.826 262.62C584.38 265.7 585.502 271.94 589.161 271.143C592.991 270.308 593.097 265.859 591.947 262.495C591.477 261.119 591.508 259.118 591.537 257.201Z" fill="#01A64B"/>
<path fill-rule="evenodd" clip-rule="evenodd" d="M583.705 244.567C592.884 234.605 602.346 229.013 612.818 226.755C586.285 241.89 599.823 273.24 604.826 273.23C606.814 273.226 615.272 259.85 616.5 254.83C618.362 247.218 621.183 235.685 630.522 225.828C633.844 226.11 637.277 226.615 640.838 227.318C629.022 231.746 627.295 241.728 637.403 246.149C639.54 247.449 642.322 243.195 645.445 238.421C647.437 235.375 649.567 232.118 651.757 229.955C654.149 230.625 656.596 231.363 659.104 232.164C637.821 239.607 647.795 256.936 651.066 258.568C652.936 259.501 656.453 254.207 660.447 248.193C663.438 243.691 666.696 238.785 669.733 235.786C680.272 239.569 661.618 262.653 704.638 249.344C706.164 249.955 707.707 250.575 709.269 251.2C705.358 258.761 683.518 258.643 661.592 266.817C665.559 273.242 676.523 263.448 692.426 274.679C688.54 276.463 684.822 276.822 682.034 277.092C679.537 277.333 649.457 282.336 648.999 283.392C648.03 285.628 666.059 301.713 687.574 285.006C685.511 289.917 683.773 294.772 682.173 299.49C667.674 301.898 655.202 299.04 647.112 297.186C644.252 296.531 636.958 294.648 629.57 293.272C620.301 293.113 628.559 312.535 652.052 323.606C653.132 324.115 652.668 325.834 651.5 325.59C619.897 318.981 614.202 296.553 612.831 291.987C608.563 341.95 648.47 368.739 678.416 310.767C671.883 330.107 665.077 345.526 642.535 350.162C598.686 359.179 600.632 297.053 600.632 297.053C600.632 297.053 553.526 277.323 583.705 244.567ZM636.282 250.826C637.496 251.276 637.596 254.387 637.684 257.134C637.72 258.262 637.755 259.329 637.863 260.125C638.237 262.86 637.367 264.65 634.481 264.242C631.595 263.833 627.775 265.046 627.297 258.277C626.818 251.509 634.568 250.191 636.282 250.826ZM591.538 257.201C591.581 254.431 591.621 251.836 590.141 251.555C587.638 251.079 580.473 255.905 579.322 261.18C579.345 261.309 579.37 261.446 579.396 261.59C579.361 267.348 585.502 271.94 589.161 271.143C592.992 270.308 593.097 265.859 591.947 262.495C591.477 261.119 591.508 259.118 591.538 257.201Z" fill="#0A9150"/>
<path fill-rule="evenodd" clip-rule="evenodd" d="M611.487 289.978C643.875 269.778 680.968 258.178 700.287 253.916L700.718 255.869C681.672 260.071 645.157 271.482 613.163 291.292C614.342 295.729 617.457 302.481 623.223 308.949C629.233 315.691 638.11 322.109 650.657 325.275L650.167 327.214C637.907 324.121 629.003 318.01 622.788 311.432C621.354 316.098 622.384 327.194 638.415 341.741L637.071 343.222C619.764 327.517 618.906 315.005 621.278 309.766C615.837 303.504 612.728 297.006 611.395 292.398C609.912 293.336 608.44 294.292 606.981 295.266L605.87 293.603C607.724 292.365 609.598 291.157 611.487 289.978Z" fill="#077F40"/>
<path d="M603.757 268.447C608.965 258.426 613.706 249.456 621.67 243.429C629.635 237.402 640.029 228.175 642.972 224.951C645.915 221.727 648.133 213.902 648.997 210.258C651.357 216.845 651.521 231.771 649.443 242.68C647.365 253.588 633.842 273.257 625.598 284.446C617.353 295.635 618.382 306.917 610.651 318.083C602.92 329.249 566.253 394.771 560.694 397.084C555.134 399.397 546.258 396.711 553.125 389.19C559.992 381.668 568.983 364.265 575.686 353.146C582.389 342.027 582.505 321.939 585.54 309.442C588.576 296.945 598.548 278.468 603.757 268.447Z" fill="#1C6670"/>
<path d="M617.111 282.258C622.319 272.236 618.044 268.826 630.353 256.422C642.662 244.018 642.544 230.12 645.487 226.896C648.43 223.673 648.133 213.902 648.997 210.258C651.357 216.845 651.522 231.771 649.444 242.679C647.365 253.588 633.842 273.257 625.598 284.446C617.353 295.635 618.382 306.917 610.651 318.083C602.92 329.249 566.253 394.771 560.694 397.084C555.135 399.397 558.303 393.073 565.17 385.552C572.036 378.03 582.406 356.96 589.109 345.841C595.812 334.722 587.426 331.499 601.136 315.941C614.846 300.384 611.902 292.279 617.111 282.258Z" fill="#224A77"/>
<path d="M577.097 165.097C577.097 165.097 623.369 134.8 641.425 137.161C659.481 139.522 685.835 156.036 683.74 164.388C681.644 172.739 668.32 170.212 662.513 175.034C661.16 194.725 638.5 192.934 627.379 185.056C616.258 177.179 635.163 202.998 617.476 202.647C599.789 202.296 574.151 181.059 574.151 181.059L577.097 165.097Z" fill="#FF8F96"/>
<path d="M577.097 165.097C577.097 165.097 624.289 149.534 636.109 149.773C647.93 150.012 672.019 155.429 670.835 162.007C669.651 168.584 654.383 158.97 650.744 178.688C647.106 198.406 623.592 173.678 617.718 177.448C611.845 181.219 631.767 197.516 614.08 197.165C596.392 196.814 574.151 181.059 574.151 181.059L577.097 165.097Z" fill="#FF505F"/>
<path d="M576.274 170.013C576.274 170.013 623.344 154.817 632.924 155.011C642.504 155.204 651.868 156.565 649.571 160.995C647.274 165.426 639.557 159.147 637.478 170.414C635.399 181.682 616.561 167.525 610.687 171.296C604.814 175.067 622.59 190.969 604.903 190.618C587.215 190.266 574.714 178.463 574.714 178.463L576.274 170.013Z" fill="#FF8F96"/>
<path d="M575.273 174.513C575.273 174.513 599.935 165.428 612.419 161.907C624.904 158.385 634.376 159.162 632.079 163.593C626.924 173.537 615.757 164.257 607.283 169.697C601.41 173.468 615.934 182.944 598.247 182.593C580.559 182.242 574.58 178.268 574.58 178.268L575.273 174.513Z" fill="#FF505F"/>
<path d="M583.98 187.58C589.678 159.917 576.929 126.649 597.364 87.8249C603.1 76.9273 620.308 62.6766 627 61C621.264 66.8679 600.232 92.0163 597.364 106.267C594.496 120.518 594.496 140.637 597.364 156.564C600.232 172.491 595.491 181.712 594.496 208.537C593.502 235.362 599.276 263.864 594.496 285.659C589.716 307.454 574.421 337.632 570.597 354.398C566.773 371.163 570.597 402.18 565.817 403.856C561.037 405.533 555.301 392.12 554.345 385.414C553.389 378.708 554.345 349.368 558.169 334.279C561.993 319.19 582.068 271.408 583.98 257.996C585.892 244.583 578.283 215.243 583.98 187.58Z" fill="#01A64B"/>
<path d="M588.637 199.004C594.323 171.34 581.407 127.947 601.801 89.1221C607.525 78.2243 620.322 62.6766 627 61C621.276 66.868 600.286 92.0169 597.424 106.268C594.562 120.519 594.562 140.638 597.424 156.566C600.286 172.493 595.554 181.714 594.562 208.54C593.57 235.366 599.332 263.867 594.562 285.663C589.791 307.459 574.526 337.638 570.71 354.403C566.894 371.169 570.71 402.186 565.94 403.863C561.169 405.54 561.069 391.418 560.115 384.711C559.161 378.005 564.343 352.892 568.16 337.803C571.976 322.713 589.654 286.314 591.562 272.901C593.47 259.489 582.951 226.668 588.637 199.004Z" fill="#118353" fill-opacity="0.592"/>
<path d="M337.603 242.287C319.945 244.001 312.026 247.998 296.256 254.271C290.838 256.426 285.651 259.164 281.242 261.794C276.833 264.424 277.282 265.748 279.189 266.455C314.529 256.671 334.344 283.054 347.775 298.91C362.437 316.219 385.973 344.572 400.37 351.179C414.766 357.785 437.029 326.937 420.887 294.738C404.746 262.539 362.435 239.876 337.603 242.287Z" fill="url(#paint2_linear)"/>
<path opacity="0.528" d="M421.319 320.424L421.601 321.049L419.779 321.872L419.545 321.355C411.699 303.971 404.286 287.546 388.678 272.831C380.739 265.347 369.655 255.577 352.622 251.621C338.953 248.447 321.346 248.996 298.339 257.659C317.26 252.942 331.881 253.506 343.766 256.775C358.492 260.826 368.911 269.012 377.955 276.117C378.609 276.632 379.257 277.14 379.899 277.642C399.139 292.673 410.218 311.197 418.238 327.085L416.452 327.987C408.483 312.199 397.565 293.981 378.667 279.218C378.035 278.723 377.398 278.223 376.755 277.719C367.687 270.597 357.56 262.644 343.235 258.704C332.565 255.769 319.506 255.049 302.776 258.678C327.304 256.983 346.807 265.656 359.957 277.232C362.493 279.464 365.097 281.73 367.749 284.039C382.824 297.158 399.468 311.642 414.226 329.152L412.697 330.441C398.047 313.06 381.535 298.689 366.458 285.567C363.8 283.253 361.186 280.978 358.635 278.733C345.422 267.101 325.538 258.416 300.332 260.889C325.574 261.498 345.998 276.768 359.84 288.6C366.318 294.137 372.324 300.458 378.236 306.678C380.281 308.831 382.316 310.971 384.354 313.063C392.319 321.238 400.377 328.705 409.604 333.569L408.672 335.338C399.148 330.318 390.906 322.654 382.922 314.459C380.844 312.327 378.785 310.161 376.725 307.993C370.834 301.794 364.933 295.584 358.54 290.12C346.6 279.913 330.107 267.477 310.065 263.887C325.274 268.634 337.571 279.638 347.391 289.136C350.934 292.563 355.092 296.985 359.592 301.77C360.103 302.313 360.618 302.861 361.137 303.412C366.24 308.834 371.744 314.633 377.311 319.989C382.882 325.347 388.492 330.236 393.802 333.845C399.135 337.471 404.05 339.723 408.248 339.971L408.131 341.967C403.383 341.688 398.099 339.185 392.677 335.5C387.232 331.798 381.529 326.821 375.925 321.43C370.317 316.036 364.783 310.204 359.681 304.783C359.167 304.237 358.657 303.695 358.153 303.159L358.14 303.145C353.63 298.35 349.507 293.966 346.001 290.574C330.282 275.37 309.098 257.263 280.257 265.623L280.22 265.495C279.739 265.677 279.256 265.862 278.77 266.05L278.047 264.185C278.24 264.111 278.433 264.036 278.626 263.962L278.474 263.491C279.884 263.036 281.282 262.615 282.669 262.227C313.41 247.432 336.056 245.721 353.074 249.673C370.653 253.755 382.062 263.846 390.05 271.376C405.947 286.364 413.502 303.102 421.319 320.424Z" fill="url(#paint3_linear)"/>
<path d="M305.321 0.746887C314.869 29.3903 366.427 65.6721 376.93 83.8129C387.432 101.954 396.98 145.874 397.935 163.06C398.89 180.246 397.935 201.251 397.935 213.663C397.935 226.075 390.297 238.487 390.297 246.126C390.297 253.764 403.664 267.131 401.754 287.181C400.897 296.178 397.935 318.689 414.166 350.197C417.752 370.482 414.166 369.293 414.166 369.293C414.166 369.293 375.974 314.87 373.11 296.729C370.246 278.588 381.703 260.447 382.658 246.126C383.613 231.804 379.367 178.337 370.774 153.513C362.18 128.688 343.36 109.987 325.774 86.0128C308.187 62.0387 299.592 34.164 305.321 0.746887Z" fill="url(#paint4_linear)"/>
<path d="M305.321 0.746887C314.869 29.3903 366.427 65.6721 376.93 83.8129C387.432 101.954 396.98 145.874 397.935 163.06C398.89 180.246 397.935 201.251 397.935 213.663C397.935 226.075 390.297 238.487 390.297 246.126C390.297 253.764 403.664 267.131 401.754 287.181C400.897 296.178 397.935 318.689 414.166 350.197C417.752 370.482 414.166 369.293 414.166 369.293C414.166 369.293 375.974 314.87 373.11 296.729C370.246 278.588 381.703 260.447 382.658 246.126C383.613 231.804 379.367 178.337 370.774 153.513C362.18 128.688 343.36 109.987 325.774 86.0128C308.187 62.0387 299.592 34.164 305.321 0.746887Z" fill="url(#paint5_linear)" fill-opacity="0.6184"/>
<path fill-rule="evenodd" clip-rule="evenodd" d="M304.774 13.0128C304.774 39.1813 312.075 61.7364 322.372 76.1521C329.371 85.9496 334.795 91.1147 339.474 95.5693C339.727 95.8102 339.978 96.049 340.227 96.2864C345.038 100.877 349.063 104.904 353.392 112.985C356.359 118.523 359.335 122.912 362.007 126.851C362.739 127.931 363.448 128.976 364.127 130.002C367.297 134.788 369.848 139.177 371.306 144.765C372.617 149.789 376.067 168.16 379.123 188.01C379.714 195.885 380.964 204.369 382.147 212.403L382.148 212.407C382.417 214.24 382.684 216.05 382.938 217.823C383.213 219.736 383.473 221.607 383.71 223.422C383.846 224.878 383.969 226.291 384.076 227.655C384.432 232.19 384.612 236.153 384.563 239.286C384.539 240.852 384.458 242.195 384.317 243.289C384.175 244.392 383.979 245.18 383.756 245.679C383.754 245.682 383.753 245.684 383.752 245.687L385.575 246.509C385.826 245.953 386.036 245.34 386.209 244.675L387.022 245.081C388.39 242.345 389.176 238.333 389.62 233.601C390.066 228.842 390.174 223.24 390.122 217.255C390.074 211.722 389.888 205.838 389.704 199.964L389.658 198.518C389.459 192.161 389.274 185.85 389.274 180.013C389.274 169.352 388.378 154.871 385.541 140.488C382.709 126.125 377.921 111.757 370.07 101.408C368.373 99.1707 366.767 97.0144 365.188 94.8938C356.547 83.2907 348.701 72.7553 330.965 55.7901C324.314 49.4285 318.497 41.5111 314.221 33.881C312.422 30.67 310.905 27.5277 309.715 24.5889C309.047 21.9117 308.556 19.7383 308.252 18.3052L307.624 18.4385C307.196 16.8282 306.91 15.3376 306.777 14.0003C306.775 13.6718 306.774 13.3426 306.774 13.0128H304.774ZM307.412 26.2028C309.383 46.3365 315.739 63.4242 324 74.9896C330.887 84.6318 336.202 89.6918 340.856 94.1233C341.108 94.3636 341.359 94.6022 341.607 94.8394C346.479 99.4875 350.679 103.686 355.155 112.041C358.067 117.477 360.97 121.758 363.635 125.689C364.375 126.78 365.097 127.844 365.795 128.898C369 133.738 371.699 138.348 373.241 144.26C374.244 148.105 376.443 159.446 378.769 173.256C378.716 156.271 378.07 144.595 370.609 129.954C358.442 106.08 343.002 88.0647 328.046 72.1987C321.894 65.6724 316.898 54.2844 313.236 43.6407C312.248 40.7709 311.354 37.9425 310.556 35.2604C309.325 32.1295 308.272 29.0658 307.412 26.2028ZM385.697 223.198C384.92 214.929 383.69 205.316 382.293 195.682C381.91 193.04 381.513 190.395 381.11 187.775C380.898 184.918 380.774 182.148 380.774 179.513L380.774 178.097C380.779 158.423 380.782 145.51 372.391 129.046C360.096 104.92 344.504 86.7424 329.501 70.8268C325.03 66.0838 321.116 58.4999 317.884 50.428C320.846 55.4404 324.262 60.0807 328.082 63.7354C344.91 79.8314 362.1 98.4495 370.885 115.471C382.475 137.927 383.274 160.798 383.274 182.013C383.274 191.135 384.327 201.103 385.312 210.428C385.598 213.138 385.879 215.794 386.126 218.36C386.678 224.078 387.065 229.343 386.999 233.806C386.985 234.765 386.95 235.68 386.892 236.55C386.878 235.923 386.854 235.282 386.822 234.629C386.651 231.197 386.234 227.326 385.697 223.198ZM312.722 35.295C312.98 35.9378 313.246 36.5833 313.52 37.2306C317.438 46.5018 322.873 55.9849 329.465 62.2901C346.304 78.3967 363.711 97.2114 372.662 114.554C384.492 137.475 385.274 160.778 385.274 182.013C385.274 191.019 386.311 200.838 387.294 210.147L387.294 210.148C387.582 212.876 387.866 215.561 388.117 218.168L388.129 218.292C388.128 218.12 388.127 217.948 388.126 217.776C388.125 217.609 388.123 217.441 388.122 217.272C388.074 211.763 387.889 205.901 387.705 200.023L387.659 198.581C387.46 192.227 387.274 185.886 387.274 180.013C387.274 169.449 386.385 155.101 383.579 140.875C380.77 126.63 376.058 112.61 368.477 102.617C366.77 100.368 365.159 98.2045 363.578 96.0805C354.95 84.4962 347.194 74.0808 329.582 57.2354C322.894 50.8378 317.056 42.935 312.722 35.295Z" fill="#300886" fill-opacity="0.4"/>
<path d="M305.321 0.746887C314.869 29.3903 366.427 65.6721 376.93 83.8129C387.432 101.954 396.98 145.874 397.935 163.06C398.89 180.246 397.935 201.251 397.935 213.663C397.935 226.075 390.296 238.488 390.296 246.126C388.348 249.945 381.763 258.942 379.755 269.04C377.748 279.139 381.089 320.599 410.308 347.333C414.089 354.016 414.166 369.293 414.166 369.293C414.166 369.293 375.974 314.87 373.11 296.729C370.246 278.588 381.703 260.447 382.658 246.126C401.274 192.513 388.349 134.337 379.755 109.513C371.162 84.6884 350.668 71.8936 344.274 64.0128C337.879 56.1319 299.592 34.164 305.321 0.746887Z" fill="url(#paint6_linear)"/>
<path d="M305.321 0.746887C314.869 29.3903 366.427 65.6721 376.93 83.8129C387.432 101.954 396.98 145.874 397.935 163.06C398.89 180.246 397.935 201.251 397.935 213.663C397.935 226.075 390.296 238.488 390.296 246.126C388.348 249.945 381.763 258.942 379.755 269.04C377.748 279.139 381.089 320.599 410.308 347.333C414.089 354.016 414.166 369.293 414.166 369.293C414.166 369.293 375.974 314.87 373.11 296.729C370.246 278.588 381.703 260.447 382.658 246.126C401.274 192.513 388.349 134.337 379.755 109.513C371.162 84.6884 350.668 71.8936 344.274 64.0128C337.879 56.1319 299.592 34.164 305.321 0.746887Z" fill="url(#paint7_linear)" fill-opacity="0.364"/>
<path fill-rule="evenodd" clip-rule="evenodd" d="M407.729 224.24C407.586 225.492 407.447 226.744 407.314 227.996C414.316 194.098 424 169 450.5 142.5L452.5 143.5C431.248 162.385 416.067 196.866 409.34 231.868C408.516 236.155 407.804 240.441 407.203 244.697C414.168 210.615 429.324 177.317 450.5 158.5H453.5C431.5 175.685 418.5 211.5 409.34 248.028C407.904 255.5 406.807 262.97 406.047 270.286C406.511 267.959 407.015 265.628 407.558 263.298C418.5 220 424.5 198.815 448 183.315L448.5 184.5C427.5 200 419.605 232.236 411.5 267C409.595 275.17 409.418 280.027 408.5 288H402.091C402.11 287.33 402.133 286.657 402.159 285.982C402.032 282.895 401.982 279.724 402.006 276.486C401.914 260.182 402.906 242.094 404.976 224.048C409.335 186.037 417 153.5 434.5 127L436.5 128.5C422.71 149.036 412.087 186.244 407.729 224.24Z" fill="#5238CB"/>
<circle cx="435.5" cy="126.5" r="5.5" fill="#FFE01A"/>
<path d="M439.308 130.662C438.321 131.496 437.035 132 435.628 132C432.52 132 430 129.538 430 126.5C430 125.022 430.596 123.681 431.567 122.692C430.151 127.769 435.628 130.662 439.308 130.662Z" fill="#FFAE16"/>
<circle cx="452.5" cy="157.5" r="5.5" fill="#FFE01A"/>
<path d="M456 161.706C455.046 162.512 453.802 163 452.442 163C449.436 163 447 160.619 447 157.682C447 156.253 447.577 154.956 448.515 154C447.146 158.909 452.442 161.706 456 161.706Z" fill="#FFAE16"/>
<circle cx="451.5" cy="142.5" r="4.5" fill="#FFE01A"/>
<path d="M454 145.993C453.258 146.621 452.291 147 451.233 147C448.895 147 447 145.148 447 142.864C447 141.752 447.449 140.743 448.178 140C447.113 143.818 451.233 145.993 454 145.993Z" fill="#FFAE16"/>
<circle cx="448.5" cy="183.5" r="3.5" fill="#FFE01A"/>
<path d="M450.444 186.217C449.867 186.705 449.115 187 448.292 187C446.474 187 445 185.56 445 183.783C445 182.918 445.349 182.134 445.916 181.556C445.088 184.525 448.292 186.217 450.444 186.217Z" fill="#FFAE16"/>
<circle cx="401.506" cy="292.506" r="17.5063" fill="#4160FA"/>
<circle opacity="0.5" cx="396.073" cy="288.281" r="7.24401" fill="#70FAFF"/>
<circle cx="396.073" cy="288.281" r="2.41467" fill="#300886"/>
<path fill-rule="evenodd" clip-rule="evenodd" d="M407.674 265.358C411.224 257.77 415.757 252.706 421.509 249.419C421.02 262.432 425.161 271.889 428.109 270.949C429.28 270.575 429.138 268.469 428.924 265.281C428.6 260.446 428.108 253.12 431.772 245.564C433.783 245.11 435.901 244.766 438.132 244.516C436.59 248.102 437.164 255.657 439.625 256.258C441.128 256.625 441.973 253.598 442.922 250.2C443.527 248.032 444.175 245.714 445.061 244.03C446.596 243.978 448.177 243.956 449.805 243.96C447.041 249.208 447.766 260.676 449.999 261.027C451.276 261.227 452.36 257.45 453.591 253.158C454.513 249.945 455.518 246.445 456.748 244.109C463.667 244.371 471.344 244.944 479.857 245.581L479.861 245.581C480.873 245.657 481.897 245.733 482.934 245.81C480.048 251.65 478.373 257.332 477.391 262.798C475.433 264.575 473.309 265.481 471.716 266.161C470.289 266.77 469.288 267.197 469.215 267.905C469.061 269.404 473.16 270.832 476.46 269.791C476.161 273.072 476.044 276.259 475.982 279.339C467.885 283.467 459.999 284.112 454.883 284.531C451.486 284.809 449.311 284.987 449.106 286.018C448.594 288.603 469.026 288.484 475.874 286.689C475.636 299.31 474.504 309.671 462.082 316.615C437.917 330.123 427.458 293.136 427.458 293.136C427.458 293.136 396.003 290.305 407.674 265.358ZM439.837 259.225C440.638 259.263 441.278 261.078 441.843 262.681C442.075 263.34 442.294 263.962 442.507 264.411C443.238 265.954 443.06 267.171 441.282 267.47C439.505 267.768 438.338 266.614 438.072 264.776C437.805 262.938 438.709 259.17 439.837 259.225ZM414.652 271.342C414.16 269.701 413.699 268.164 412.774 268.274C411.209 268.461 410.146 274.143 410.998 275.749C411.036 275.821 411.076 275.897 411.118 275.977C412.02 277.689 413.847 281.158 415.855 280.005C417.957 278.797 417.189 276.154 415.882 274.386C415.348 273.663 414.992 272.478 414.652 271.342Z" fill="#253F7A"/>
<path fill-rule="evenodd" clip-rule="evenodd" d="M407.674 265.358C411.224 257.77 415.757 252.706 421.508 249.419C408.695 263.297 422.532 279.249 425.479 278.309C426.651 277.935 429.138 268.469 428.924 265.281C428.6 260.446 428.108 253.12 431.772 245.565C433.783 245.11 435.901 244.767 438.132 244.516C431.993 249.333 432.84 255.54 439.625 256.258C441.127 256.626 441.973 253.598 442.922 250.2C443.527 248.033 444.174 245.714 445.061 244.03C446.596 243.978 448.177 243.956 449.805 243.96C438.649 252.324 447.766 260.676 449.999 261.027C451.276 261.227 452.36 257.45 453.591 253.158C454.513 249.946 455.517 246.445 456.747 244.109C463.667 244.371 456.983 261.464 479.857 245.581C480.87 245.656 481.896 245.733 482.933 245.81C482.04 250.998 469.144 255.009 457.745 263.923C461.284 266.97 465.918 259.148 477.391 262.798C475.433 264.575 473.309 265.481 471.716 266.161C470.288 266.77 453.491 275.339 453.418 276.047C453.265 277.546 466.898 283.66 476.46 269.792C476.161 273.072 476.044 276.259 475.982 279.339C467.885 283.467 459.998 284.113 454.883 284.531C453.074 284.679 448.423 284.932 443.81 285.5C438.72 287.019 445.64 295.634 459.346 298.592C460.512 298.844 460.543 300.643 459.349 300.669C442.031 301.047 435.265 290.16 433.703 287.87C440.521 318.121 469.051 326.458 475.874 286.689C475.636 299.31 474.504 309.671 462.082 316.615C437.917 330.123 427.458 293.136 427.458 293.136C427.458 293.136 396.003 290.305 407.674 265.358ZM439.837 259.225C440.637 259.263 441.277 261.078 441.842 262.681C442.075 263.34 442.294 263.962 442.507 264.411C443.238 265.954 443.06 267.171 441.282 267.47C439.505 267.768 437.479 269.197 435.933 265.296C434.386 261.395 438.709 259.171 439.837 259.225ZM414.652 271.342C414.159 269.701 413.698 268.164 412.774 268.274C411.209 268.462 407.887 272.645 408.194 275.97C408.232 276.042 408.272 276.118 408.314 276.198C409.369 279.598 413.847 281.159 415.855 280.005C417.957 278.797 417.188 276.154 415.882 274.386C415.348 273.663 414.992 272.478 414.652 271.342Z" fill="#224E76"/>
<path fill-rule="evenodd" clip-rule="evenodd" d="M432.245 286.69C447.6 268.689 467.337 254.895 477.955 248.759L478.956 250.491C468.581 256.486 449.34 269.923 434.245 287.431C435.785 289.759 438.786 292.984 443.192 295.6C447.936 298.417 454.293 300.519 462.197 300.047L462.317 302.043C454.756 302.495 448.503 300.712 443.637 298.141C444.036 301.182 447.003 306.921 458.239 312.074L457.405 313.892C444.496 307.972 441.306 300.817 441.601 296.973C437.526 294.443 434.607 291.425 432.903 289.011C432.316 289.713 431.736 290.421 431.164 291.135L429.603 289.885C430.467 288.806 431.349 287.74 432.245 286.69Z" fill="#26377B"/>
<path d="M380.333 362.815C387.601 349.668 423.805 334.488 431.456 326.328C439.107 318.168 446.768 297.819 447.863 289.753C448.958 281.687 448.845 271.75 449.164 265.898C449.483 260.047 444.576 253.911 444.772 250.31C444.969 246.71 454.457 240.907 453.666 231.384C453.311 227.111 451.863 216.388 463.777 202.141C466.752 192.712 464.268 193.139 464.268 193.139C464.268 193.139 436.741 217.37 434.316 225.815C431.89 234.259 439.262 243.239 439.547 250.025C439.832 256.812 418.332 278.663 411.815 290.045C405.298 301.427 399.867 316.931 391.489 326.406C383.111 335.88 377.272 346.848 380.333 362.815Z" fill="#0C8F47"/>
<path d="M380.333 362.815C387.601 349.668 391.834 335.002 399.485 326.842C407.136 318.682 426.023 287.304 427.118 279.238C428.212 271.172 433.571 271.077 436.53 262.726C439.489 254.374 439.351 253.626 439.547 250.025C439.744 246.425 437.973 236.265 437.328 229.72C436.684 223.175 442.457 227.496 448.185 214.288C453.667 205.574 464.268 193.139 464.268 193.139C464.268 193.139 436.741 217.37 434.316 225.815C431.89 234.259 439.262 243.239 439.547 250.025C439.833 256.812 418.332 278.663 411.815 290.045C405.299 301.427 399.867 316.931 391.489 326.406C383.111 335.88 377.273 346.848 380.333 362.815Z" fill="#00AA4D"/>
<g opacity="0.3">
<path fill-rule="evenodd" clip-rule="evenodd" d="M462.204 200.102C460.837 202.587 459.153 205.467 457.382 207.834C456.556 208.938 455.635 210.16 454.667 211.444C450.541 216.92 445.555 223.538 443.358 227.03C442.785 227.941 442.42 229.193 442.218 230.837C442.016 232.475 441.984 234.42 442.017 236.666C442.034 237.778 442.066 238.961 442.101 240.208C442.205 243.961 442.325 248.294 442.067 253.013C441.783 258.235 439.2 264.155 436.506 269.686C435.927 270.874 435.343 272.043 434.773 273.187C432.637 277.467 430.681 281.387 429.807 284.602C428.256 290.305 426.01 296.312 423.964 301.786C423.512 302.995 423.069 304.179 422.646 305.327C422.131 306.725 421.022 308.604 419.66 310.637C418.283 312.692 416.599 314.977 414.881 317.207C411.445 321.666 407.845 325.943 406.231 327.789L404.725 326.472C406.315 324.654 409.889 320.409 413.297 315.986C415.001 313.775 416.656 311.528 417.998 309.524C419.355 307.499 420.344 305.791 420.769 304.636C421.2 303.468 421.647 302.27 422.103 301.052C424.148 295.58 426.353 289.682 427.877 284.077C428.809 280.651 430.89 276.483 433.04 272.177C433.598 271.06 434.16 269.934 434.708 268.81C437.42 263.243 439.811 257.667 440.07 252.904C440.323 248.275 440.206 244.062 440.103 240.324C440.068 239.06 440.035 237.85 440.017 236.696C439.984 234.433 440.013 232.374 440.233 230.593C440.451 228.817 440.868 227.233 441.665 225.965C443.913 222.392 448.98 215.668 453.105 210.193C454.063 208.922 454.971 207.717 455.78 206.636C457.465 204.384 459.095 201.603 460.451 199.138C461.018 198.107 461.546 197.114 462.01 196.243C462.629 195.078 463.132 194.132 463.455 193.61L465.156 194.662C464.86 195.141 464.414 195.981 463.836 197.069C463.373 197.94 462.826 198.971 462.204 200.102Z" fill="#1C6670"/>
<path fill-rule="evenodd" clip-rule="evenodd" d="M462.204 200.102C460.837 202.587 459.153 205.467 457.382 207.834C455.313 210.599 453.773 214.269 452.243 218.086C452.13 218.369 452.016 218.653 451.903 218.938C450.51 222.427 449.089 225.985 447.259 228.763C445.244 231.822 444.158 235.964 443.669 240.223C443.183 244.464 443.299 248.725 443.616 251.943C443.79 253.71 443.58 256.212 443.168 259.009C442.753 261.829 442.121 265.028 441.412 268.225C439.995 274.62 438.263 281.055 437.323 284.511C435.432 291.465 431.27 303.294 428.919 309.675C428.389 311.113 427.265 312.762 425.913 314.434C424.545 316.124 422.878 317.916 421.185 319.647C419.741 321.124 418.265 322.568 416.932 323.874C416.703 324.098 416.477 324.318 416.258 324.534C414.745 326.017 413.492 327.262 412.721 328.143L411.215 326.826C412.047 325.875 413.361 324.572 414.857 323.106C415.079 322.888 415.306 322.666 415.536 322.441C416.87 321.135 418.328 319.708 419.756 318.248C421.431 316.535 423.048 314.795 424.358 313.176C425.684 311.537 426.631 310.098 427.042 308.984C429.393 302.602 433.527 290.847 435.393 283.986C436.332 280.533 438.054 274.137 439.46 267.792C440.163 264.619 440.784 261.471 441.189 258.718C441.598 255.941 441.774 253.646 441.626 252.139C441.298 248.813 441.176 244.407 441.682 239.995C442.187 235.599 443.325 231.099 445.589 227.663C447.301 225.063 448.648 221.693 450.066 218.146C450.172 217.879 450.279 217.611 450.387 217.342C451.901 213.563 453.529 209.645 455.78 206.636C457.465 204.384 459.095 201.603 460.451 199.138C461.018 198.107 461.546 197.114 462.01 196.243C462.629 195.078 463.132 194.132 463.455 193.61L465.156 194.662C464.86 195.141 464.414 195.981 463.836 197.069C463.373 197.94 462.826 198.971 462.204 200.102Z" fill="#1C6670"/>
<path fill-rule="evenodd" clip-rule="evenodd" d="M462.204 200.102C460.837 202.587 459.153 205.467 457.382 207.834C456.426 209.112 455.691 211.068 455.087 213.499C454.488 215.911 454.044 218.676 453.607 221.505C453.569 221.754 453.531 222.003 453.492 222.253C453.097 224.823 452.698 227.421 452.187 229.759C451.629 232.31 450.918 234.663 449.864 236.387C445.941 242.808 444.714 250.678 445.341 257.045C445.673 260.418 445.415 267.372 444.85 274.285C444.286 281.199 443.401 288.246 442.434 291.8C440.542 298.757 436.986 308.619 434.638 314.994C433.618 317.763 431.339 320.447 429.026 322.826C428.059 323.821 427.062 324.785 426.123 325.694C425.929 325.882 425.738 326.067 425.549 326.249C424.44 327.326 423.449 328.305 422.679 329.186L421.173 327.87C422.005 326.919 423.052 325.886 424.157 324.814C424.349 324.627 424.543 324.44 424.738 324.25C425.677 323.342 426.648 322.403 427.592 321.432C429.895 319.063 431.9 316.64 432.761 314.303C435.114 307.915 438.639 298.134 440.504 291.275C441.416 287.921 442.292 281.043 442.857 274.123C443.422 267.201 443.663 260.413 443.351 257.241C442.688 250.518 443.971 242.197 448.158 235.344C449.029 233.918 449.685 231.838 450.233 229.332C450.73 227.058 451.12 224.523 451.517 221.939C451.555 221.693 451.593 221.447 451.631 221.2C452.066 218.381 452.522 215.53 453.146 213.017C453.765 210.524 454.576 208.245 455.78 206.636C457.465 204.384 459.095 201.603 460.451 199.138C461.018 198.107 461.546 197.114 462.01 196.243C462.629 195.078 463.132 194.132 463.455 193.61L465.156 194.662C464.86 195.141 464.414 195.981 463.836 197.069C463.373 197.94 462.826 198.971 462.204 200.102Z" fill="#1C6670"/>
</g>
<path d="M57.812 260.436C41.9574 258.258 34.6547 258.381 20.2128 258.051C15.2506 257.937 10.46 258.058 6.36987 258.264C2.27973 258.47 2.00009 262.701 6.36987 263C38.4797 265.195 52.4716 273.806 63.5066 281.304C75.5531 289.49 94.8572 302.824 107.306 307.324C119.754 311.825 141.455 304.803 128.977 291.316C116.5 277.83 80.1076 263.498 57.812 260.436Z" fill="#290773"/>
<path d="M68.0022 210.682C64.9176 205.009 77.7377 209.799 82.0322 209.669C87.8374 219.008 103.853 240.434 103.853 240.434C103.853 240.434 110.608 207.361 113.922 204.09C117.236 200.818 122.653 200.077 123.69 204.659C124.726 209.241 111.207 243.212 112.015 251.432C112.823 259.652 118.88 273.424 130.458 298.734C135.579 309.928 124.109 313.874 119.204 304.853C109.026 286.132 108.187 271.153 102.832 258.629C97.4781 246.106 85.6153 236.385 80.9886 227.876C76.3619 219.367 71.0868 216.355 68.0022 210.682Z" fill="#1B0054"/>
<path d="M78.1903 237.338C67.7681 229.454 63.891 221.753 41.7231 215.822C35.5008 214.157 21.4792 215.987 17 218.128C21.9554 217.932 41.0402 218.557 46.3685 222.646C51.6967 226.735 62.1603 234.593 69.8219 241.541C77.4835 248.49 73.0891 260.001 80.4487 269.516C87.8084 279.031 97.951 284.933 106.339 291.025C114.727 297.116 118.556 298.782 125.097 303.407C131.638 308.032 137.133 321.086 140.453 319.734C143.773 318.381 143.872 311.051 142.762 308.175C141.653 305.3 133.683 294.838 127.564 290.834C121.445 286.829 94.759 270.712 90.2215 266.538C85.684 262.365 88.6125 245.222 78.1903 237.338Z" fill="#01A64B"/>
<path d="M71.5 238.5C61.0778 230.616 53.6678 221.931 31.5 216C25.2776 214.335 21.4792 215.987 17 218.128C21.9554 217.932 41.0402 218.557 46.3685 222.646C51.6967 226.735 62.1603 234.593 69.8219 241.541C77.4835 248.49 73.0891 260.001 80.4487 269.516C87.8084 279.031 97.951 284.933 106.339 291.025C114.727 297.116 118.556 298.782 125.097 303.407C131.638 308.032 137.133 321.086 140.453 319.734C143.773 318.381 143.872 311.051 142.762 308.175C141.653 305.3 135.619 304.005 129.5 300C123.381 295.995 94 275.358 86 268C78 260.642 81.9222 246.384 71.5 238.5Z" fill="url(#paint8_linear)"/>
<path d="M118.903 256.021C124.376 243.956 129.113 239.324 137.352 229.695C140.183 226.386 143.369 223.381 146.292 220.9C149.215 218.419 150.042 219.056 150.081 220.574C134.637 243.187 148.499 263.557 156.462 276.876C165.155 291.415 179.51 314.891 180.704 326.66C181.898 338.428 154.725 346.714 135.866 327.536C117.008 308.358 111.206 272.987 118.903 256.021Z" fill="url(#paint9_linear)"/>
<path opacity="0.528" d="M153.73 334.216L154.114 334.576L155.482 333.117L155.185 332.838C144.787 323.091 135.001 313.917 128.391 299.382C125.021 291.973 120.817 281.834 122.126 268.913C123.093 259.372 127.077 248.223 136.788 235.486C130.505 246.206 127.907 255.546 127.401 263.857C126.706 275.295 129.992 284.678 132.829 292.78C133.036 293.369 133.24 293.951 133.439 294.527C139.435 311.803 149.882 324.136 159.184 333.648L160.614 332.25C151.391 322.818 141.182 310.737 135.329 293.871C135.133 293.307 134.934 292.738 134.733 292.165L134.733 292.164L134.732 292.162C131.887 284.031 128.728 275 129.398 263.979C129.852 256.51 132.072 248.076 137.439 238.384C131.703 254.199 133.245 268.947 137.968 280.349C138.933 282.678 139.905 285.064 140.896 287.494C146.528 301.314 152.754 316.592 161.577 331.266L163.291 330.235C154.555 315.705 148.393 300.588 142.759 286.766L142.758 286.764L142.757 286.76C141.764 284.325 140.787 281.929 139.816 279.584C135.154 268.33 133.674 253.613 139.798 237.789C135.911 254.625 141.349 271.229 146.029 283.007C148.384 288.935 151.409 294.722 154.38 300.404C155.406 302.367 156.426 304.317 157.409 306.256C161.261 313.855 164.577 321.322 165.781 328.974L167.756 328.664C166.501 320.68 163.058 312.976 159.193 305.352C158.184 303.363 157.148 301.381 156.113 299.4C153.156 293.744 150.201 288.092 147.887 282.269C143.924 272.292 139.583 259.217 140.63 245.607C141.278 256.158 145.546 266.119 149.419 274.354C150.988 277.69 153.112 281.701 155.407 286.035L155.415 286.051C155.673 286.538 155.933 287.029 156.195 287.524C158.794 292.439 161.561 297.723 163.999 302.944C166.439 308.169 168.533 313.298 169.796 317.902C171.067 322.533 171.458 326.495 170.638 329.455L172.566 329.989C173.533 326.499 173.024 322.106 171.725 317.372C170.418 312.611 168.271 307.364 165.811 302.098C163.35 296.827 160.562 291.503 157.963 286.589C157.7 286.092 157.439 285.599 157.181 285.112L157.177 285.105C154.876 280.76 152.776 276.793 151.229 273.503C144.274 258.717 136.666 239.507 149.443 221.274L149.362 221.217C149.602 220.927 149.845 220.636 150.091 220.343L148.559 219.057C148.457 219.179 148.355 219.301 148.253 219.423L147.956 219.202C147.298 220.085 146.665 220.969 146.058 221.851C128.165 240.027 121.458 255.663 120.136 268.711C118.771 282.189 123.173 292.74 126.57 300.21C133.345 315.108 143.382 324.516 153.73 334.216Z" fill="url(#paint10_linear)"/>
<path d="M56.8879 231.512C56.8879 231.512 30.0297 202.495 29.6076 192.079C29.1856 181.663 37.8367 167.296 44.0025 169.056C50.1683 170.817 49.9234 178.453 54.0173 182.159C68.1383 184.21 69.499 197.357 65.2037 203.362C60.9085 209.366 77.0235 199.954 78.8281 210.282C80.6326 220.611 68.5493 234.257 68.5493 234.257L56.8879 231.512Z" fill="#FF8F96"/>
<path d="M56.8877 231.512C56.8877 231.512 40.3715 202.899 39.1687 195.996C37.9658 189.094 39.0103 175.343 43.8122 176.456C48.6141 177.57 43.5689 185.89 57.9745 189.28C72.3801 192.671 57.5741 204.851 60.93 208.529C64.286 212.208 73.5305 201.591 75.335 211.919C77.1396 222.248 68.5491 234.257 68.5491 234.257L56.8877 231.512Z" fill="#FF505F"/>
<path d="M60.2963 233.156C60.2963 233.156 44.2276 203.79 43.2526 198.196C42.2777 192.602 42.1551 187.208 45.5639 188.836C48.9726 190.463 45.4161 194.578 53.6477 196.515C61.8793 198.453 54.0276 208.572 57.3835 212.25C60.7395 215.929 69.9526 206.543 71.7572 216.871C73.5618 227.2 66.4698 234.609 66.4698 234.609L60.2963 233.156Z" fill="#FF8F96"/>
<path d="M64.1174 235.785C64.1174 235.785 54.8833 219.168 50.9364 211.637C46.9895 204.106 46.4407 198.612 49.8495 200.239C57.5003 203.892 52.2159 209.834 57.0574 215.141C60.4133 218.819 65.4473 210.926 67.2519 221.254C69.0565 231.583 66.8613 236.431 66.8613 236.431L64.1174 235.785Z" fill="#FF505F"/>
<path d="M46.8581 202.411C36.6483 192.824 21.1473 193.574 14.0615 189.409C13.1753 195.461 14.0442 206.728 22.7403 214.23C28.5881 219.274 53.3387 225.043 59.9815 232.234C64.1847 234.107 66.1415 233.166 66.6329 230.765C49.8286 214.614 57.0679 211.997 46.8581 202.411Z" fill="#FFAE16"/>
<path d="M46.8582 202.411C36.6484 192.824 21.1474 193.574 14.0615 189.409C18.13 206.727 30.6519 202.435 43.4547 210.557C56.2575 218.679 53.3388 225.043 59.9815 232.234C64.1848 234.107 66.1416 233.166 66.6329 230.765C49.8287 214.614 57.068 211.997 46.8582 202.411Z" fill="#FFE01A"/>
<path d="M64.0374 223.488C64.0374 223.488 27.9496 207.331 17.9466 210.265C7.94367 213.199 -2.89851 225.994 0.743129 231.272C4.38477 236.55 11.5402 233.873 16.3623 236.565C22.8255 249.287 35.7164 246.368 40.0299 240.377C44.3435 234.385 40.5846 252.665 50.9473 251.069C61.3101 249.472 70.3702 233.657 70.3702 233.657L64.0374 223.488Z" fill="#FF8F96"/>
<path d="M64.0371 223.487C64.0371 223.487 31.6426 216.999 24.7183 218.069C17.794 219.139 5.10076 224.53 7.6926 228.723C10.2844 232.916 16.5523 225.473 24.3754 238.035C32.1985 250.598 38.9982 232.672 43.5573 234.674C48.1164 236.676 41.0173 248.832 51.3801 247.236C61.7429 245.639 70.37 233.657 70.37 233.657L64.0371 223.487Z" fill="#FF505F"/>
<path d="M66.686 226.19C66.686 226.19 33.7208 220.367 28.109 221.234C22.4972 222.101 17.3483 223.711 19.9814 226.42C22.6144 229.128 25.3744 224.442 29.8447 231.62C34.315 238.799 41.3885 228.121 45.9476 230.123C50.5068 232.125 44.5635 243.858 54.9263 242.261C65.289 240.665 70.0386 231.574 70.0386 231.574L66.686 226.19Z" fill="#FF8F96"/>
<path d="M70.3995 228.969C70.3995 228.969 51.7015 225.54 43.303 224.211C34.9044 222.883 29.524 224.121 32.1571 226.83C38.0668 232.909 42.0045 226 48.5818 228.888C53.1409 230.89 47.2738 238.186 57.6365 236.59C67.9993 234.993 71.8896 231.362 71.8896 231.362L70.3995 228.969Z" fill="#FF505F"/>
<defs>
<linearGradient id="paint0_linear" x1="824.616" y1="269.644" x2="892.633" y2="296.514" gradientUnits="userSpaceOnUse">
<stop stop-color="#253C7A"/>
<stop offset="1" stop-color="#1C6670"/>
</linearGradient>
<linearGradient id="paint1_linear" x1="825.147" y1="283.187" x2="891.272" y2="304.952" gradientUnits="userSpaceOnUse">
<stop stop-color="#300886"/>
<stop offset="1" stop-color="#224A77"/>
</linearGradient>
<linearGradient id="paint2_linear" x1="418.364" y1="282.721" x2="283.774" y2="249.013" gradientUnits="userSpaceOnUse">
<stop stop-color="#253C7A"/>
<stop offset="1" stop-color="#1C6670"/>
</linearGradient>
<linearGradient id="paint3_linear" x1="402.274" y1="303.013" x2="276.774" y2="263.513" gradientUnits="userSpaceOnUse">
<stop stop-color="#300886"/>
<stop offset="1" stop-color="#224A77"/>
</linearGradient>
<linearGradient id="paint4_linear" x1="359.566" y1="0.746887" x2="359.566" y2="369.306" gradientUnits="userSpaceOnUse">
<stop stop-color="#00AA4D"/>
<stop offset="0.519337" stop-color="#009544"/>
<stop offset="1" stop-color="#00AA4D"/>
</linearGradient>
<linearGradient id="paint5_linear" x1="359.659" y1="0.746887" x2="359.659" y2="369.306" gradientUnits="userSpaceOnUse">
<stop stop-color="#300886"/>
<stop offset="1" stop-color="#300886" stop-opacity="0"/>
</linearGradient>
<linearGradient id="paint6_linear" x1="359.452" y1="0.746887" x2="359.452" y2="369.293" gradientUnits="userSpaceOnUse">
<stop stop-color="#077C3C" stop-opacity="0.46"/>
<stop offset="1" stop-color="#077C3C"/>
</linearGradient>
<linearGradient id="paint7_linear" x1="359.452" y1="0.746887" x2="359.452" y2="369.293" gradientUnits="userSpaceOnUse">
<stop stop-color="#01A64B"/>
<stop offset="0.674033" stop-color="#01A64B" stop-opacity="0"/>
</linearGradient>
<linearGradient id="paint8_linear" x1="39.055" y1="203.114" x2="125.453" y2="330.023" gradientUnits="userSpaceOnUse">
<stop stop-color="#06803D" stop-opacity="0"/>
<stop offset="1" stop-color="#06803D"/>
</linearGradient>
<linearGradient id="paint9_linear" x1="127.983" y1="322.852" x2="136.649" y2="219.604" gradientUnits="userSpaceOnUse">
<stop stop-color="#253C7A"/>
<stop offset="1" stop-color="#1C6670"/>
</linearGradient>
<linearGradient id="paint10_linear" x1="146.138" y1="316.6" x2="148.652" y2="218.004" gradientUnits="userSpaceOnUse">
<stop stop-color="#300886"/>
<stop offset="1" stop-color="#224A77"/>
</linearGradient>
</defs>
</svg>
