<svg width="895" height="407" viewBox="0 0 895 407" fill="none" xmlns="http://www.w3.org/2000/svg">
<path d="M638.824 110.412C652.191 98 674.151 102.774 683.699 98C685.608 107.548 685.608 124.734 674.151 134.282C666.446 140.702 632.141 143.83 623.548 153.377C617.819 155.287 614.955 153.377 614 149.558C635.96 128.553 625.457 122.824 638.824 110.412Z" fill="#FFAE16"/>
<path d="M638.824 110.412C652.191 98 674.151 102.774 683.699 98C679.841 123.779 661.701 114.231 644.515 123.779C627.328 133.327 632.141 143.83 623.548 153.377C617.819 155.287 614.955 153.377 614 149.558C635.96 128.553 625.457 122.824 638.824 110.412Z" fill="#FFE01A"/>
<path d="M567.393 153.36C563.734 139.455 552.756 129.94 552.756 129.94C552.756 129.94 562.27 146.773 562.27 164.338C562.27 181.903 558.294 195.926 564.466 212.642C570.637 229.358 578.522 242.217 583.494 255.091C588.467 267.965 589.349 287.294 589.349 287.294C589.349 287.294 599.789 289.943 601.608 285.064C603.428 280.186 606.67 253.546 601.608 241.917C596.547 230.289 573.273 207.447 571.053 197.273C568.832 187.098 571.053 167.266 567.393 153.36Z" fill="#118353"/>
<path d="M568.773 103.115C568.773 93.5666 582.179 108.844 587.908 111.708C588.863 127.939 594.592 167.084 594.592 167.084C594.592 167.084 627.054 128.893 633.738 126.984C640.421 125.074 648.059 127.938 646.15 134.622C644.24 141.306 602.26 175.887 597.456 187.135C592.651 198.384 590.772 220.552 587.908 261.608C585.044 302.664 590.772 377.137 590.772 377.137L580.27 406.735C580.27 406.735 573.586 324.623 573.586 293.116C573.586 261.608 578.36 210.05 580.27 189.999C582.179 169.949 573.547 148.944 573.547 134.622C573.547 120.3 568.773 112.663 568.773 103.115Z" fill="#1B0054"/>
<path d="M87.0021 210.682C83.9175 205.009 96.7376 209.799 101.032 209.669C106.837 219.008 122.853 240.434 122.853 240.434C122.853 240.434 129.608 207.361 132.922 204.09C136.236 200.818 141.653 200.077 142.689 204.659C143.726 209.241 130.207 243.212 131.015 251.432C131.823 259.652 137.88 273.424 149.458 298.734C154.579 309.928 143.109 313.874 138.204 304.853C128.026 286.132 127.187 271.153 121.832 258.629C116.478 246.106 104.615 236.385 99.9885 227.876C95.3618 219.367 90.0867 216.355 87.0021 210.682Z" fill="#1B0054"/>
<path fill-rule="evenodd" clip-rule="evenodd" d="M602.705 244.567C611.884 234.605 621.345 229.013 631.817 226.755C624.707 246.577 626.471 263.179 631.473 263.169C633.461 263.165 634.272 259.85 635.5 254.83C637.362 247.218 640.182 235.685 649.521 225.828C652.843 226.11 656.277 226.615 659.838 227.318C655.71 232.093 652.904 244.02 656.403 246.149C658.54 247.449 661.322 243.195 664.445 238.421C666.437 235.375 668.567 232.118 670.757 229.955C673.148 230.625 675.596 231.363 678.104 232.164C671.28 238.903 666.794 256.936 670.065 258.568C671.936 259.501 675.452 254.207 679.447 248.193L679.447 248.193C682.437 243.691 685.696 238.785 688.733 235.786C699.271 239.569 710.825 244.204 723.638 249.343C725.163 249.955 726.707 250.575 728.268 251.2C720.967 258.793 715.61 266.734 711.425 274.679C707.54 276.463 703.822 276.822 701.034 277.092C698.536 277.333 696.785 277.502 696.327 278.559C695.358 280.794 700.979 284.997 706.574 285.006C704.511 289.917 702.773 294.772 701.173 299.49C686.674 301.898 674.202 299.04 666.112 297.186C660.74 295.955 657.3 295.167 656.48 296.657C654.428 300.391 685.983 310.188 697.415 310.767C690.883 330.107 684.076 345.526 661.535 350.162C617.686 359.179 619.632 297.053 619.632 297.053C619.632 297.053 572.526 277.323 602.705 244.567ZM655.281 250.826C656.496 251.276 656.596 254.387 656.684 257.134L656.684 257.134C656.72 258.262 656.754 259.329 656.863 260.125C657.236 262.86 656.366 264.65 653.481 264.242C650.595 263.833 649.36 261.484 649.847 258.521C650.334 255.557 653.568 250.191 655.281 250.826ZM610.537 257.201C610.58 254.431 610.62 251.836 609.141 251.555C606.638 251.079 602.223 259.318 602.752 262.21C602.775 262.339 602.8 262.476 602.826 262.62C603.38 265.7 604.501 271.94 608.161 271.143C611.991 270.308 612.097 265.859 610.947 262.495C610.476 261.119 610.507 259.118 610.537 257.201Z" fill="#01A64B"/>
<path fill-rule="evenodd" clip-rule="evenodd" d="M602.705 244.567C611.884 234.605 621.345 229.013 631.817 226.755C605.284 241.89 618.823 273.24 623.825 273.23C625.813 273.226 634.272 259.85 635.5 254.83C637.362 247.218 640.182 235.685 649.521 225.828C652.843 226.11 656.277 226.615 659.838 227.318C648.022 231.746 646.295 241.728 656.403 246.149C658.54 247.449 661.322 243.195 664.445 238.421C666.437 235.375 668.567 232.118 670.757 229.955C673.148 230.625 675.596 231.363 678.104 232.164C656.821 239.607 666.794 256.936 670.065 258.568C671.936 259.501 675.452 254.207 679.447 248.193C682.437 243.691 685.696 238.785 688.733 235.786C699.272 239.569 680.617 262.653 723.638 249.344C725.164 249.955 726.707 250.575 728.268 251.2C724.357 258.761 702.518 258.643 680.592 266.817C684.559 273.242 695.523 263.448 711.425 274.679C707.54 276.463 703.822 276.822 701.034 277.092C698.536 277.333 668.457 282.336 667.999 283.392C667.03 285.628 685.059 301.713 706.574 285.006C704.511 289.917 702.773 294.772 701.173 299.49C686.674 301.898 674.202 299.04 666.112 297.186C663.252 296.531 655.957 294.648 648.57 293.272C639.301 293.113 647.559 312.535 671.052 323.606C672.132 324.115 671.668 325.834 670.5 325.59C638.896 318.981 633.202 296.553 631.831 291.987C627.563 341.95 667.47 368.739 697.415 310.767C690.883 330.107 684.076 345.526 661.535 350.162C617.686 359.179 619.632 297.053 619.632 297.053C619.632 297.053 572.526 277.323 602.705 244.567ZM655.281 250.826C656.496 251.276 656.596 254.387 656.684 257.134C656.72 258.262 656.754 259.329 656.863 260.125C657.236 262.86 656.367 264.65 653.481 264.242C650.595 263.833 646.775 265.046 646.296 258.277C645.818 251.509 653.568 250.191 655.281 250.826ZM610.537 257.201C610.58 254.431 610.621 251.836 609.141 251.555C606.638 251.079 599.473 255.905 598.321 261.18C598.345 261.309 598.37 261.446 598.395 261.59C598.361 267.348 604.502 271.94 608.161 271.143C611.991 270.308 612.097 265.859 610.947 262.495C610.476 261.119 610.508 259.118 610.537 257.201Z" fill="#0A9150"/>
<path d="M719.502 254.893C700.258 259.138 663.28 270.703 631.016 290.827M625.425 294.435C627.27 293.203 629.135 292 631.016 290.827M631.016 290.827C632.081 295.402 635.295 302.681 641.476 309.614M669.412 326.245C656.651 323.025 647.605 316.49 641.476 309.614M641.476 309.614C639.087 313.784 638.795 326.196 656.743 342.482" stroke="#077F40" stroke-width="2"/>
<path d="M866.405 300.828C867.714 288.51 866.029 278.636 861.615 270.081C852.751 286.935 840.993 295.749 838.191 292.308C835.389 288.867 850.369 277.885 852.278 257.365C850.23 255.255 847.975 253.202 845.52 251.181C844.74 256.9 838.58 266.029 835.234 264.912C831.889 263.795 837.234 252.491 837.68 245.276C835.903 244.038 834.05 242.804 832.123 241.565C831.582 250.321 822.405 264.291 819.51 263.031C816.615 261.77 823.245 245.557 823.807 236.454C814.44 230.913 803.668 225.143 791.614 218.616C790.789 228.215 788.646 236.689 785.842 244.361C787.784 251.461 792.707 255.055 791.801 257.071C790.895 259.086 785.014 257.765 781.868 253.929C779.84 258.311 777.667 262.437 775.505 266.384C786.45 285.371 803.702 291.697 802.432 295.361C801.163 299.026 777.094 283.276 770.301 275.775C761.424 291.94 755.245 305.926 764.892 324.203C783.66 359.758 822.862 320.903 822.862 320.903C822.862 320.903 862.103 341.333 866.405 300.828Z" fill="#290773"/>
<path d="M798.324 324.475C805.816 326.76 859.243 327.415 875.943 319.614C892.643 311.812 901.518 288.447 889.349 281.446C877.18 274.445 882.889 293.907 862.344 283.335C841.799 272.762 844.215 279.434 841.548 290.126C838.882 300.819 813.604 259.728 794.919 265.572C776.233 271.417 743.247 288.617 751.221 300.381C759.196 312.145 790.832 322.191 798.324 324.475Z" fill="#01A64B"/>
<path d="M798.324 324.475C805.816 326.76 859.243 327.415 875.943 319.614C892.643 311.812 901.518 288.447 889.349 281.446C877.18 274.445 888.045 304.073 867.5 293.5C846.955 282.927 844.215 279.434 841.548 290.126C823 332.5 742.944 291.705 794.919 265.572C776.233 271.417 743.247 288.617 751.221 300.381C759.196 312.145 790.832 322.191 798.324 324.475Z" fill="#058A4A"/>
<path d="M768.515 225.912C766.979 223.855 762.063 226.492 762.063 226.492C762.063 226.492 776.636 241.239 779.592 244.697C782.547 248.155 791.277 259.916 797.186 266.282C804.738 274.42 811.919 289.964 814.824 291.879C817.728 293.793 819.819 298.568 823.058 295.661C826.298 292.755 812.059 276.322 806.991 269.534C801.922 262.746 792.049 252.817 788.192 248.969C784.335 245.121 779.258 240.298 776.954 237.213C774.65 234.128 770.051 227.969 768.515 225.912Z" fill="#1C6670"/>
<path fill-rule="evenodd" clip-rule="evenodd" d="M759.906 210.041C755.629 202.042 748.868 195.865 748.868 195.865C748.868 195.865 750.606 201.422 752.938 207.103C750.077 204.198 747.729 202.026 747.729 202.026C747.729 202.026 750.982 209.872 756.224 216.501C756.614 216.993 757.002 217.464 757.387 217.914C752.591 214.355 746.619 210.975 746.619 210.975C746.619 210.975 750.758 217.452 756.479 222.21C759.88 225.039 762.963 226.568 765.607 227.878L765.848 227.998C766.066 228.346 766.275 228.695 766.472 229.046C766.325 228.739 766.187 228.424 766.057 228.102C767.056 228.599 767.988 229.072 768.847 229.584C769.287 230.566 769.67 231.527 769.959 232.499C769.792 231.737 769.701 230.936 769.652 230.092C769.895 230.255 770.132 230.423 770.361 230.599C770.12 230.39 769.881 230.173 769.644 229.949C769.588 228.885 769.597 227.754 769.606 226.548C769.631 223.29 769.659 219.489 768.44 215.014C766.39 207.486 761.585 201.288 761.585 201.288C761.585 201.288 762.124 211.278 763.887 217.749C764.69 220.699 765.761 223.144 766.808 225.332C766.511 224.84 766.211 224.336 765.905 223.82C765.268 222.749 764.602 221.628 763.871 220.464C763.053 217.376 761.969 213.898 759.906 210.041ZM765.977 226.025C766.074 226.135 766.17 226.243 766.266 226.351C767.03 227.211 767.757 228.029 768.481 228.788C768.339 228.485 768.193 228.179 768.043 227.87C767.402 227.256 766.711 226.65 765.977 226.025ZM774.193 216.438C773.683 208.092 770.572 200.553 770.572 200.553C770.572 200.553 769.365 211.162 769.803 218.337C770.052 222.411 770.79 225.75 771.45 228.74L771.451 228.74C771.954 231.016 772.412 233.089 772.576 235.13C772.538 233.201 772.881 231.135 773.268 228.804C773.835 225.387 774.496 221.4 774.193 216.438ZM777.706 202.6C777.706 202.6 780.869 211.043 781.01 220.282C781.094 225.774 780.126 230.154 779.296 233.908C778.73 236.468 778.228 238.738 778.169 240.871C778.089 238.61 777.674 236.303 777.219 233.77C776.621 230.443 775.953 226.727 775.883 222.218C775.762 214.276 777.706 202.6 777.706 202.6ZM787.511 225.554C787.602 214.796 784.417 204.856 784.417 204.856C784.417 204.856 782.014 218.375 781.936 227.623C781.891 232.874 782.513 237.223 783.07 241.117C783.493 244.08 783.879 246.781 783.905 249.415C784.026 246.934 784.626 244.311 785.304 241.351C786.297 237.012 787.456 231.949 787.511 225.554ZM791.538 206.054C791.538 206.054 794.671 217.596 794.254 229.966C794.006 237.32 792.609 243.104 791.411 248.061C790.594 251.442 789.87 254.439 789.667 257.288C789.714 254.425 789.638 251.707 789.555 248.769L789.555 248.769L789.555 248.769C789.435 244.513 789.303 239.796 789.515 233.505C789.873 222.871 791.538 206.054 791.538 206.054ZM799.98 234.739C800.759 222.007 798.485 209.984 798.485 209.984C798.485 209.984 796.508 222.514 795.838 233.459C795.443 239.919 795.387 246.428 795.339 252.162L795.339 252.163L795.339 252.163L795.339 252.163L795.339 252.163L795.339 252.164L795.339 252.165C795.305 256.145 795.274 259.751 795.135 262.71C795.406 259.782 796.125 256.722 796.937 253.271L796.937 253.271C798.128 248.211 799.516 242.308 799.98 234.739ZM805.497 215.069C805.497 215.069 808.2 227.411 806.837 240.395C806.026 248.114 804.032 254.107 802.323 259.243C801.157 262.747 800.123 265.853 799.688 268.837C799.941 265.917 800.096 262.907 800.265 259.642C800.521 254.67 800.808 249.107 801.516 242.369C802.688 231.207 805.497 215.069 805.497 215.069ZM814.319 248.781C815.823 234.45 812.706 220.835 812.706 220.835C812.706 220.835 809.397 238.275 808.103 250.594C807.335 257.915 807.086 264.112 806.864 269.641L806.864 269.641L806.864 269.641L806.864 269.642L806.864 269.647C806.82 270.734 806.777 271.795 806.732 272.833C803.883 272.231 801.588 271.479 799.101 270.665L799.101 270.665C795.731 269.561 792.01 268.342 786.086 267.226C775.657 265.262 756.758 263.569 756.758 263.569C756.758 263.569 768.243 269.206 780.375 271.491C787.588 272.849 793.202 272.72 798.015 272.61C801.194 272.538 804.023 272.473 806.731 272.85C806.64 274.952 806.537 276.963 806.391 278.911C805.265 278.624 804.161 278.325 803.021 278.017L803.02 278.017L803.019 278.017L803.019 278.017L803.019 278.016L803.018 278.016L803.018 278.016C799.495 277.064 795.626 276.019 789.699 274.903C779.507 272.983 761.627 270.814 761.627 270.814C761.627 270.814 772.846 276.401 784.702 278.634C791.75 279.961 797.239 279.809 801.944 279.678C803.483 279.635 804.939 279.595 806.337 279.61C806.322 279.799 806.306 279.988 806.29 280.177C806.318 279.988 806.348 279.799 806.38 279.61C807.882 279.627 809.319 279.708 810.724 279.918C809.218 279.608 807.843 279.281 806.501 278.939C807.066 276.023 808.102 272.973 809.252 269.587C811.177 263.916 813.424 257.3 814.319 248.781ZM821.124 225.126C821.124 225.126 823.639 239.134 821.183 253.225C819.722 261.601 816.933 267.894 814.542 273.288L814.542 273.288L814.542 273.288C812.911 276.968 811.465 280.229 810.753 283.448C811.212 280.456 811.619 277.294 812.06 273.877L812.06 273.876C812.799 268.14 813.631 261.682 814.954 254.092C817.066 241.979 821.124 225.126 821.124 225.126ZM830.046 235.186C830.046 235.186 829.962 252.117 826.314 264.998C824.16 272.602 821.361 276.897 818.931 280.624C817.642 282.602 816.458 284.419 815.528 286.487C815.944 286.568 816.366 286.644 816.796 286.716C816.354 286.674 815.91 286.648 815.462 286.637C815.202 287.226 814.963 287.837 814.748 288.478C814.912 287.848 815.063 287.234 815.205 286.631C812.933 286.599 810.56 286.912 807.947 287.258L807.947 287.258C803.214 287.884 797.693 288.614 790.549 287.579C778.533 285.837 767.041 279.685 767.041 279.685C767.041 279.685 784.519 280.301 794.848 281.799C800.793 282.661 804.906 283.781 808.626 284.795C810.872 285.406 812.975 285.979 815.252 286.433C815.773 284.196 816.168 282.102 816.586 279.888L816.586 279.887L816.586 279.887C817.353 275.823 818.196 271.356 820.033 264.87C823.169 253.798 830.046 235.186 830.046 235.186ZM776.963 291.114C776.963 291.114 787.411 295.655 797.562 295.522C803.596 295.443 808.009 293.789 811.791 292.371C814.371 291.404 816.657 290.547 818.966 290.375C816.935 290.345 814.82 290.268 812.552 290.186L812.552 290.186C808.356 290.034 803.638 289.863 797.974 289.937C789.247 290.051 776.963 291.114 776.963 291.114ZM752.905 254.923C752.905 254.923 763.333 259.959 774.421 262.531C781.012 264.061 786.168 264.364 790.588 264.624C793.602 264.801 796.274 264.958 798.825 265.47C796.111 264.802 793.755 263.988 791.186 263.101C787.805 261.933 784.056 260.639 778.639 259.382C769.107 257.17 752.905 254.923 752.905 254.923ZM771.248 256.337C760.48 253.543 750.484 247.886 750.484 247.886C750.484 247.886 766.297 250.72 775.554 253.122C780.89 254.507 784.537 255.798 787.837 256.967L787.837 256.967C790.262 257.826 792.501 258.618 795.085 259.333C792.603 258.782 789.985 258.645 787.032 258.49C782.702 258.263 777.65 257.998 771.248 256.337ZM749.401 241.255C749.401 241.255 758.004 246.549 767.364 249.213C772.929 250.798 777.35 251.085 781.139 251.332L781.139 251.332C783.724 251.5 786.015 251.649 788.175 252.177C785.878 251.481 784.003 250.645 781.961 249.734C779.288 248.542 776.33 247.223 771.768 245.924C763.722 243.634 749.401 241.255 749.401 241.255ZM764.099 242.59C756.063 240.11 748.763 235.218 748.763 235.218C748.763 235.218 761.197 237.467 768.104 239.598C772.018 240.806 774.514 242.022 776.77 243.12C778.496 243.961 780.081 244.733 782.052 245.38C780.195 244.888 778.213 244.743 775.977 244.58C772.7 244.342 768.876 244.063 764.099 242.59ZM746.279 227.399C746.279 227.399 752.311 233.396 759.564 235.966C763.928 237.512 768.052 238.226 771.547 238.831L771.547 238.831L771.547 238.831C773.862 239.232 775.901 239.585 777.551 240.1C775.777 239.438 773.98 238.512 772.008 237.496L772.007 237.496L772.007 237.496C769.416 236.161 766.521 234.67 762.981 233.416C756.745 231.206 746.279 227.399 746.279 227.399ZM757 228.719C750.48 225.023 745.157 219.281 745.157 219.281C745.157 219.281 753.841 222.296 759.446 225.473C762.628 227.277 765.122 229.24 767.355 230.998C769.055 232.336 770.604 233.555 772.19 234.494C770.665 233.712 768.951 233.223 767.018 232.671C764.183 231.861 760.876 230.916 757 228.719Z" fill="#1C6670"/>
<path d="M622.757 268.447C627.965 258.426 632.706 249.456 640.671 243.429C648.635 237.402 659.029 228.175 661.972 224.951C664.915 221.727 667.133 213.902 667.997 210.258C670.357 216.845 670.521 231.771 668.443 242.679C666.365 253.588 652.842 273.257 644.598 284.446C636.353 295.635 637.382 306.917 629.651 318.083C621.92 329.249 585.253 394.771 579.694 397.084C574.135 399.397 565.258 396.711 572.125 389.189C578.992 381.668 587.983 364.265 594.686 353.146C601.389 342.027 601.505 321.939 604.54 309.442C607.576 296.945 617.548 278.468 622.757 268.447Z" fill="#1C6670"/>
<path d="M636.11 282.258C641.319 272.236 637.044 268.826 649.353 256.422C661.661 244.018 661.544 230.12 664.487 226.896C667.429 223.673 667.133 213.902 667.997 210.258C670.357 216.845 670.522 231.771 668.443 242.679C666.365 253.588 652.842 273.257 644.598 284.446C636.353 295.635 637.382 306.917 629.651 318.083C621.92 329.249 585.253 394.771 579.694 397.084C574.135 399.397 577.303 393.073 584.169 385.552C591.036 378.03 601.406 356.96 608.109 345.841C614.812 334.722 606.426 331.499 620.136 315.941C633.846 300.384 630.902 292.279 636.11 282.258Z" fill="#224A77"/>
<path d="M596.097 165.097C596.097 165.097 642.369 134.8 660.425 137.161C678.481 139.522 704.835 156.036 702.74 164.388C700.644 172.739 687.32 170.212 681.513 175.034C680.16 194.725 657.5 192.934 646.379 185.056C635.258 177.179 654.163 202.998 636.476 202.647C618.789 202.296 593.151 181.059 593.151 181.059L596.097 165.097Z" fill="#FF8F96"/>
<path d="M596.097 165.097C596.097 165.097 643.288 149.534 655.109 149.773C666.93 150.012 691.019 155.429 689.835 162.007C688.651 168.584 673.383 158.97 669.744 178.688C666.106 198.406 642.592 173.678 636.718 177.448C630.845 181.219 650.767 197.517 633.08 197.165C615.392 196.814 593.151 181.059 593.151 181.059L596.097 165.097Z" fill="#FF505F"/>
<path d="M595.274 170.013C595.274 170.013 642.344 154.817 651.924 155.01C661.504 155.204 670.868 156.565 668.571 160.995C666.274 165.426 658.557 159.147 656.478 170.414C654.398 181.682 635.56 167.525 629.687 171.296C623.814 175.067 641.59 190.969 623.902 190.618C606.215 190.266 593.714 178.463 593.714 178.463L595.274 170.013Z" fill="#FF8F96"/>
<path d="M594.273 174.513C594.273 174.513 618.935 165.428 631.42 161.907C643.904 158.385 653.376 159.162 651.079 163.593C645.924 173.537 634.757 164.257 626.284 169.697C620.41 173.468 634.934 182.944 617.247 182.593C599.56 182.242 593.58 178.269 593.58 178.269L594.273 174.513Z" fill="#FF505F"/>
<path d="M602.98 187.58C608.678 159.917 595.929 126.649 616.364 87.8249C622.1 76.9273 639.308 62.6766 646 61C640.264 66.8679 619.232 92.0163 616.364 106.267C613.496 120.518 613.496 140.637 616.364 156.564C619.232 172.491 614.491 181.712 613.496 208.537C612.502 235.362 618.276 263.864 613.496 285.659C608.716 307.454 593.421 337.632 589.597 354.398C585.773 371.163 589.597 402.18 584.817 403.856C580.037 405.533 574.301 392.12 573.345 385.414C572.389 378.708 573.345 349.368 577.169 334.279C580.993 319.19 601.068 271.408 602.98 257.996C604.892 244.583 597.283 215.243 602.98 187.58Z" fill="#01A64B"/>
<path d="M607.637 199.004C613.323 171.34 600.407 127.947 620.801 89.1221C626.525 78.2243 639.322 62.6766 646 61C640.276 66.868 619.286 92.0169 616.424 106.268C613.562 120.519 613.562 140.638 616.424 156.566C619.286 172.493 614.554 181.714 613.562 208.54C612.57 235.366 618.332 263.867 613.562 285.663C608.791 307.459 593.526 337.638 589.71 354.403C585.894 371.169 589.71 402.186 584.94 403.863C580.169 405.54 580.069 391.418 579.115 384.711C578.161 378.005 583.343 352.892 587.16 337.803C590.976 322.713 608.654 286.314 610.562 272.901C612.47 259.489 601.951 226.668 607.637 199.004Z" fill="#118353" fill-opacity="0.592"/>
<path d="M76.812 260.436C60.9574 258.258 53.6546 258.381 39.2128 258.051C34.2505 257.937 29.46 258.058 25.3698 258.264C21.2797 258.47 21.0001 262.701 25.3698 263C57.4797 265.195 71.4716 273.806 82.5065 281.304C94.553 289.49 113.857 302.824 126.306 307.324C138.754 311.825 160.455 304.803 147.977 291.316C135.5 277.83 99.1076 263.498 76.812 260.436Z" fill="#290773"/>
<path d="M97.1905 237.338C86.7683 229.454 82.8911 221.753 60.7232 215.822C54.5009 214.157 40.4793 215.987 36.0001 218.128C40.9555 217.932 60.0403 218.557 65.3686 222.646C70.6969 226.735 81.1605 234.593 88.822 241.541C96.4836 248.49 92.0892 260.001 99.4489 269.516C106.809 279.031 116.951 284.933 125.339 291.025C133.727 297.116 137.556 298.782 144.097 303.407C150.639 308.032 156.133 321.086 159.453 319.734C162.773 318.381 162.872 311.051 161.762 308.175C160.653 305.3 152.683 294.838 146.564 290.834C140.445 286.829 113.759 270.712 109.222 266.538C104.684 262.365 107.613 245.222 97.1905 237.338Z" fill="#01A64B"/>
<path d="M90.5 238.5C80.0778 230.616 72.6678 221.931 50.4999 216C44.2776 214.335 40.4792 215.987 36 218.128C40.9553 217.932 60.0402 218.557 65.3684 222.646C70.6967 226.735 81.1603 234.593 88.8219 241.541C96.4834 248.49 92.089 260.001 99.4487 269.516C106.808 279.031 116.951 284.933 125.339 291.025C133.727 297.116 137.556 298.782 144.097 303.407C150.638 308.032 156.133 321.086 159.453 319.734C162.773 318.381 162.872 311.051 161.762 308.175C160.653 305.3 154.619 304.005 148.5 300C142.381 295.995 113 275.358 105 268C97 260.642 100.922 246.384 90.5 238.5Z" fill="url(#paint0_linear)"/>
<path d="M356.603 242.287C338.945 244.001 331.026 247.998 315.256 254.271C309.838 256.426 304.651 259.164 300.242 261.794C295.833 264.424 296.282 265.748 298.189 266.455C333.529 256.671 353.344 283.054 366.775 298.91C381.437 316.219 404.973 344.572 419.37 351.179C433.766 357.785 456.029 326.937 439.887 294.738C423.746 262.539 381.435 239.876 356.603 242.287Z" fill="url(#paint1_linear)"/>
<path opacity="0.528" fill-rule="evenodd" clip-rule="evenodd" d="M440.319 320.424L440.602 321.049L438.779 321.872L438.546 321.355C430.699 303.971 423.286 287.546 407.678 272.831C399.739 265.347 388.655 255.577 371.622 251.621C357.953 248.447 340.346 248.996 317.339 257.659C336.26 252.942 350.881 253.506 362.766 256.775C377.493 260.826 387.911 269.012 396.955 276.117C397.61 276.632 398.257 277.141 398.899 277.642C418.139 292.673 429.218 311.197 437.238 327.085L435.452 327.987C427.483 312.199 416.565 293.981 397.667 279.218C397.035 278.723 396.398 278.223 395.755 277.719L395.755 277.718C386.686 270.596 376.56 262.644 362.235 258.704C351.565 255.769 338.506 255.049 321.776 258.678C346.305 256.984 365.807 265.656 378.957 277.232C381.493 279.464 384.097 281.73 386.749 284.039L386.75 284.039L386.75 284.039C401.825 297.158 418.468 311.642 433.226 329.152L431.697 330.441C417.047 313.06 400.535 298.689 385.458 285.567L385.458 285.566C382.8 283.253 380.186 280.978 377.636 278.733C364.422 267.101 344.538 258.416 319.332 260.889C344.574 261.498 364.999 276.768 378.84 288.6C385.318 294.137 391.325 300.458 397.236 306.679L397.236 306.679C399.282 308.831 401.316 310.971 403.354 313.063C411.319 321.238 419.377 328.705 428.604 333.569L427.672 335.338C418.148 330.318 409.906 322.654 401.922 314.459C399.844 312.327 397.785 310.161 395.726 307.993C389.834 301.794 383.933 295.584 377.54 290.12C365.6 279.913 349.107 267.477 329.065 263.887C344.274 268.634 356.571 279.638 366.391 289.137C369.934 292.563 374.092 296.985 378.592 301.77L378.593 301.77C379.103 302.313 379.618 302.861 380.137 303.412C385.24 308.834 390.744 314.633 396.311 319.989C401.882 325.347 407.492 330.236 412.802 333.845C418.135 337.471 423.05 339.724 427.249 339.971L427.131 341.967C422.383 341.688 417.099 339.185 411.677 335.5C406.232 331.798 400.529 326.821 394.925 321.43C389.318 316.036 383.783 310.204 378.681 304.783C378.167 304.237 377.657 303.695 377.153 303.159L377.14 303.145L377.14 303.145C372.63 298.35 368.507 293.966 365.001 290.574C349.282 275.37 328.098 257.263 299.257 265.623L299.22 265.495C298.739 265.677 298.256 265.862 297.77 266.05L297.047 264.186C297.241 264.111 297.433 264.036 297.626 263.962L297.474 263.491C298.884 263.036 300.283 262.616 301.669 262.227C332.411 247.432 355.056 245.721 372.074 249.673C389.653 253.755 401.063 263.846 409.05 271.376C424.947 286.364 432.502 303.102 440.319 320.424Z" fill="url(#paint2_linear)"/>
<path d="M137.903 256.021C143.376 243.956 148.113 239.325 156.352 229.695C159.183 226.386 162.369 223.381 165.292 220.9C168.215 218.419 169.042 219.056 169.082 220.574C153.637 243.187 167.499 263.557 175.462 276.876C184.155 291.415 198.51 314.891 199.704 326.66C200.898 338.428 173.725 346.715 154.866 327.536C136.008 308.358 130.206 272.987 137.903 256.021Z" fill="url(#paint3_linear)"/>
<path opacity="0.528" fill-rule="evenodd" clip-rule="evenodd" d="M172.73 334.216L173.114 334.576L174.482 333.117L174.185 332.838C163.787 323.091 154.001 313.917 147.391 299.382C144.022 291.973 139.817 281.834 141.126 268.913C142.093 259.372 146.077 248.223 155.789 235.486C149.505 246.206 146.907 255.546 146.402 263.857C145.706 275.295 148.992 284.678 151.83 292.78L151.83 292.78L151.83 292.781C152.036 293.37 152.24 293.951 152.439 294.527C158.435 311.803 168.882 324.136 178.184 333.648L179.614 332.25C170.391 322.818 160.182 310.737 154.329 293.871C154.133 293.307 153.934 292.738 153.734 292.165L153.733 292.164L153.733 292.162L153.733 292.162C150.888 284.031 147.728 275 148.398 263.979C148.852 256.51 151.073 248.076 156.439 238.384C150.703 254.199 152.246 268.947 156.968 280.349C157.933 282.678 158.905 285.064 159.896 287.494L159.896 287.495C165.528 301.314 171.755 316.592 180.577 331.266L182.291 330.235C173.555 315.705 167.393 300.588 161.759 286.766L161.759 286.766L161.758 286.764L161.757 286.76L161.756 286.76C160.764 284.324 159.787 281.929 158.816 279.584C154.155 268.33 152.674 253.613 158.798 237.789C154.911 254.625 160.349 271.229 165.029 283.007C167.384 288.935 170.409 294.722 173.38 300.405L173.38 300.405C174.406 302.367 175.426 304.317 176.409 306.256C180.261 313.855 183.578 321.322 184.781 328.975L186.757 328.664C185.501 320.68 182.058 312.976 178.193 305.352C177.184 303.363 176.148 301.381 175.113 299.4L175.113 299.4L175.113 299.4C172.156 293.744 169.201 288.092 166.887 282.269C162.924 272.292 158.583 259.217 159.63 245.607C160.278 256.158 164.546 266.119 168.419 274.354C169.988 277.69 172.112 281.702 174.407 286.035L174.415 286.051C174.673 286.538 174.933 287.029 175.195 287.524C177.794 292.439 180.562 297.723 182.999 302.944C185.439 308.169 187.533 313.298 188.797 317.902C190.068 322.533 190.458 326.495 189.638 329.455L191.566 329.989C192.533 326.499 192.025 322.106 190.725 317.372C189.418 312.611 187.271 307.364 184.812 302.098C182.35 296.827 179.562 291.503 176.963 286.589C176.7 286.092 176.439 285.599 176.181 285.112L176.177 285.105C173.877 280.76 171.777 276.793 170.229 273.503C163.275 258.717 155.666 239.507 168.443 221.274L168.363 221.217C168.603 220.927 168.845 220.636 169.091 220.343L167.56 219.057C167.457 219.179 167.355 219.301 167.253 219.423L166.956 219.202C166.298 220.086 165.665 220.969 165.058 221.851C147.165 240.027 140.458 255.663 139.137 268.711C137.771 282.189 142.173 292.74 145.57 300.21C152.345 315.108 162.382 324.516 172.73 334.216Z" fill="url(#paint4_linear)"/>
<path d="M324.321 0.746887C333.869 29.3903 385.427 65.6721 395.93 83.8129C406.432 101.954 415.98 145.874 416.935 163.06C417.89 180.246 416.935 201.251 416.935 213.663C416.935 226.075 409.297 238.487 409.297 246.126C409.297 253.764 422.664 267.131 420.754 287.181C419.897 296.178 416.935 318.689 433.166 350.197C436.752 370.482 433.166 369.293 433.166 369.293C433.166 369.293 394.974 314.87 392.11 296.729C389.246 278.588 400.703 260.447 401.658 246.126C402.613 231.804 398.367 178.337 389.774 153.513C381.18 128.688 362.36 109.987 344.774 86.0128C327.187 62.0387 318.592 34.164 324.321 0.746887Z" fill="url(#paint5_linear)"/>
<path d="M324.321 0.746887C333.869 29.3903 385.427 65.6721 395.93 83.8129C406.432 101.954 415.98 145.874 416.935 163.06C417.89 180.246 416.935 201.251 416.935 213.663C416.935 226.075 409.297 238.487 409.297 246.126C409.297 253.764 422.664 267.131 420.754 287.181C419.897 296.178 416.935 318.689 433.166 350.197C436.752 370.482 433.166 369.293 433.166 369.293C433.166 369.293 394.974 314.87 392.11 296.729C389.246 278.588 400.703 260.447 401.658 246.126C402.613 231.804 398.367 178.337 389.774 153.513C381.18 128.688 362.36 109.987 344.774 86.0128C327.187 62.0387 318.592 34.164 324.321 0.746887Z" fill="url(#paint6_linear)" fill-opacity="0.6184"/>
<g opacity="0.4">
<path fill-rule="evenodd" clip-rule="evenodd" d="M323.774 13.0128C323.774 39.1813 331.075 61.7364 341.372 76.1521C348.371 85.9496 353.795 91.1147 358.474 95.5693C358.727 95.8102 358.978 96.049 359.227 96.2864C364.038 100.877 368.063 104.904 372.392 112.985C375.359 118.523 378.335 122.912 381.007 126.851C381.739 127.931 382.448 128.976 383.127 130.002C386.297 134.788 388.848 139.177 390.306 144.765C391.617 149.789 395.067 168.16 398.123 188.01C398.714 195.885 399.964 204.369 401.147 212.403L401.148 212.407C401.417 214.24 401.684 216.05 401.938 217.823C402.213 219.736 402.473 221.607 402.71 223.422C402.846 224.878 402.969 226.291 403.076 227.655C403.432 232.19 403.612 236.153 403.563 239.286C403.539 240.852 403.458 242.195 403.317 243.289C403.175 244.392 402.979 245.18 402.756 245.679C402.754 245.682 402.753 245.684 402.752 245.687L404.575 246.509C404.826 245.953 405.036 245.34 405.209 244.675L406.022 245.081C407.39 242.345 408.176 238.333 408.62 233.601C409.066 228.842 409.174 223.24 409.122 217.255C409.074 211.722 408.888 205.838 408.704 199.964L408.658 198.518C408.459 192.161 408.274 185.85 408.274 180.013C408.274 169.352 407.378 154.871 404.541 140.488C401.709 126.125 396.921 111.757 389.07 101.408C387.373 99.1707 385.767 97.0144 384.188 94.8938L384.187 94.8931C375.546 83.2899 367.701 72.7553 349.965 55.7901C343.314 49.4285 337.497 41.5111 333.221 33.881C331.422 30.67 329.905 27.5277 328.715 24.5889C328.047 21.9117 327.556 19.7383 327.252 18.3052L326.624 18.4385C326.196 16.8282 325.91 15.3376 325.777 14.0003C325.775 13.6718 325.774 13.3426 325.774 13.0128H323.774ZM326.412 26.2028C328.383 46.3365 334.739 63.4242 343 74.9896C349.887 84.6318 355.202 89.6918 359.856 94.1233L359.856 94.1234C360.108 94.3637 360.359 94.6022 360.607 94.8394C365.479 99.4875 369.679 103.686 374.155 112.041C377.067 117.477 379.97 121.758 382.635 125.689L382.635 125.689C383.375 126.78 384.097 127.844 384.795 128.898C388 133.738 390.699 138.348 392.241 144.26C393.244 148.105 395.443 159.446 397.769 173.256C397.716 156.271 397.07 144.595 389.609 129.954C377.442 106.08 362.002 88.0647 347.046 72.1987C340.894 65.6724 335.898 54.2844 332.236 43.6407C331.248 40.7709 330.354 37.9425 329.556 35.2604C328.325 32.1295 327.272 29.0658 326.412 26.2028ZM404.697 223.198C403.92 214.929 402.69 205.316 401.293 195.682C400.91 193.04 400.513 190.395 400.11 187.775C399.898 184.918 399.774 182.148 399.774 179.513L399.774 178.097C399.779 158.423 399.782 145.51 391.391 129.046C379.096 104.92 363.504 86.7424 348.501 70.8268C344.03 66.0838 340.116 58.4999 336.884 50.428C339.846 55.4404 343.262 60.0807 347.082 63.7354C363.91 79.8314 381.1 98.4495 389.885 115.471C401.475 137.927 402.274 160.798 402.274 182.013C402.274 191.135 403.327 201.103 404.312 210.428C404.598 213.138 404.879 215.794 405.126 218.36C405.678 224.078 406.065 229.343 405.999 233.806C405.985 234.765 405.95 235.68 405.892 236.55C405.878 235.923 405.854 235.282 405.822 234.629C405.651 231.197 405.234 227.326 404.697 223.198ZM331.722 35.295C331.98 35.9378 332.246 36.5833 332.52 37.2306C336.438 46.5018 341.873 55.9849 348.465 62.2901C365.304 78.3967 382.711 97.2114 391.662 114.554C403.492 137.475 404.274 160.778 404.274 182.013C404.274 191.019 405.311 200.838 406.294 210.147L406.294 210.147L406.294 210.147L406.294 210.148L406.294 210.148L406.294 210.148C406.582 212.876 406.866 215.561 407.117 218.168L407.129 218.292C407.128 218.12 407.127 217.948 407.126 217.776C407.125 217.609 407.123 217.441 407.122 217.272C407.074 211.763 406.889 205.901 406.705 200.023L406.704 200.022L406.659 198.581C406.46 192.227 406.274 185.886 406.274 180.013C406.274 169.449 405.385 155.101 402.579 140.875C399.77 126.63 395.058 112.61 387.477 102.617C385.77 100.368 384.159 98.2045 382.578 96.0805C373.95 84.4962 366.194 74.0808 348.582 57.2354C341.894 50.8378 336.056 42.935 331.722 35.295Z" fill="#300886"/>
</g>
<path d="M324.321 0.746887C333.869 29.3903 385.427 65.6721 395.93 83.8129C406.432 101.954 415.98 145.874 416.935 163.06C417.89 180.246 416.935 201.251 416.935 213.663C416.935 226.075 409.296 238.488 409.296 246.126C407.348 249.945 400.763 258.942 398.755 269.04C396.748 279.139 400.089 320.599 429.308 347.333C433.089 354.016 433.166 369.293 433.166 369.293C433.166 369.293 394.974 314.87 392.11 296.729C389.246 278.588 400.703 260.447 401.658 246.126C420.274 192.513 407.349 134.337 398.755 109.513C390.162 84.6884 369.668 71.8936 363.274 64.0128C356.879 56.1319 318.592 34.164 324.321 0.746887Z" fill="url(#paint7_linear)"/>
<path d="M324.321 0.746887C333.869 29.3903 385.427 65.6721 395.93 83.8129C406.432 101.954 415.98 145.874 416.935 163.06C417.89 180.246 416.935 201.251 416.935 213.663C416.935 226.075 409.296 238.488 409.296 246.126C407.348 249.945 400.763 258.942 398.755 269.04C396.748 279.139 400.089 320.599 429.308 347.333C433.089 354.016 433.166 369.293 433.166 369.293C433.166 369.293 394.974 314.87 392.11 296.729C389.246 278.588 400.703 260.447 401.658 246.126C420.274 192.513 407.349 134.337 398.755 109.513C390.162 84.6884 369.668 71.8936 363.274 64.0128C356.879 56.1319 318.592 34.164 324.321 0.746887Z" fill="url(#paint8_linear)" fill-opacity="0.364"/>
<path fill-rule="evenodd" clip-rule="evenodd" d="M426.729 224.24C426.586 225.492 426.447 226.744 426.314 227.996C433.316 194.098 443 169 469.5 142.5L471.5 143.5C450.248 162.385 435.067 196.866 428.34 231.868C427.516 236.155 426.804 240.441 426.203 244.697C433.168 210.615 448.324 177.317 469.5 158.5H472.5C450.5 175.685 437.5 211.5 428.34 248.028C426.904 255.5 425.807 262.97 425.047 270.286C425.511 267.959 426.015 265.628 426.558 263.298C437.5 220 443.5 198.815 467 183.315L467.5 184.5C446.5 200 438.605 232.236 430.5 267C428.595 275.17 428.418 280.027 427.5 288H421.091C421.11 287.33 421.133 286.657 421.159 285.982C421.032 282.895 420.982 279.724 421.006 276.486C420.914 260.182 421.906 242.094 423.976 224.048C428.335 186.037 436 153.5 453.5 127L455.5 128.5C441.71 149.036 431.087 186.244 426.729 224.24Z" fill="#5238CB"/>
<circle cx="454.5" cy="126.5" r="5.5" fill="#FFE01A"/>
<path d="M458.308 130.662C457.321 131.496 456.035 132 454.628 132C451.52 132 449 129.538 449 126.5C449 125.022 449.596 123.681 450.567 122.692C449.151 127.769 454.628 130.662 458.308 130.662Z" fill="#FFAE16"/>
<circle cx="471.5" cy="157.5" r="5.5" fill="#FFE01A"/>
<path d="M475 161.706C474.046 162.512 472.802 163 471.442 163C468.436 163 466 160.619 466 157.682C466 156.253 466.577 154.956 467.515 154C466.146 158.909 471.442 161.706 475 161.706Z" fill="#FFAE16"/>
<circle cx="470.5" cy="142.5" r="4.5" fill="#FFE01A"/>
<path d="M473 145.993C472.258 146.621 471.291 147 470.233 147C467.895 147 466 145.148 466 142.864C466 141.752 466.449 140.743 467.178 140C466.113 143.818 470.233 145.993 473 145.993Z" fill="#FFAE16"/>
<circle cx="467.5" cy="183.5" r="3.5" fill="#FFE01A"/>
<path d="M469.444 186.217C468.867 186.705 468.115 187 467.292 187C465.474 187 464 185.56 464 183.783C464 182.918 464.349 182.134 464.916 181.556C464.088 184.525 467.292 186.217 469.444 186.217Z" fill="#FFAE16"/>
<circle cx="420.506" cy="292.506" r="17.5063" fill="#4160FA"/>
<circle opacity="0.5" cx="415.073" cy="288.281" r="7.24401" fill="#70FAFF"/>
<circle cx="415.073" cy="288.281" r="2.41467" fill="#300886"/>
<path fill-rule="evenodd" clip-rule="evenodd" d="M426.674 265.358C430.224 257.77 434.757 252.706 440.508 249.419C440.02 262.432 444.161 271.889 447.108 270.949C448.28 270.575 448.138 268.469 447.924 265.281C447.6 260.446 447.108 253.12 450.772 245.564C452.783 245.11 454.901 244.766 457.132 244.516C455.59 248.102 456.164 255.657 458.625 256.258C460.127 256.625 460.973 253.598 461.922 250.2C462.527 248.032 463.174 245.714 464.061 244.03C465.596 243.978 467.177 243.956 468.805 243.96C466.041 249.208 466.766 260.676 468.999 261.027C470.276 261.227 471.36 257.45 472.591 253.158C473.513 249.945 474.517 246.445 475.747 244.109C482.667 244.371 490.344 244.944 498.857 245.581L498.861 245.581C499.873 245.657 500.897 245.733 501.933 245.81C499.048 251.65 497.373 257.332 496.391 262.798C494.433 264.575 492.309 265.481 490.716 266.161C489.288 266.77 488.287 267.197 488.215 267.905C488.061 269.404 492.16 270.832 495.46 269.791C495.161 273.072 495.044 276.259 494.982 279.339C486.885 283.467 478.999 284.112 473.883 284.531C470.486 284.809 468.311 284.987 468.106 286.018C467.594 288.603 488.026 288.484 494.874 286.689C494.636 299.31 493.504 309.671 481.082 316.615C456.917 330.123 446.458 293.136 446.458 293.136C446.458 293.136 415.003 290.305 426.674 265.358ZM458.837 259.225C459.637 259.263 460.277 261.078 460.842 262.681C461.075 263.34 461.294 263.962 461.507 264.411C462.238 265.954 462.06 267.171 460.282 267.47C458.505 267.768 457.338 266.614 457.071 264.776C456.805 262.938 457.709 259.17 458.837 259.225ZM433.652 271.342C433.159 269.701 432.698 268.164 431.774 268.274C430.209 268.461 429.146 274.143 429.998 275.749C430.036 275.821 430.076 275.897 430.118 275.977C431.02 277.689 432.847 281.158 434.855 280.005C436.957 278.797 436.188 276.154 434.882 274.386C434.348 273.663 433.992 272.478 433.652 271.342Z" fill="#253F7A"/>
<path fill-rule="evenodd" clip-rule="evenodd" d="M426.674 265.358C430.224 257.77 434.757 252.706 440.508 249.419C427.695 263.297 441.532 279.249 444.48 278.309C445.651 277.935 448.138 268.469 447.924 265.281C447.6 260.446 447.108 253.12 450.772 245.564C452.783 245.11 454.901 244.766 457.132 244.516C450.994 249.333 451.84 255.54 458.625 256.258C460.127 256.625 460.973 253.598 461.922 250.2C462.527 248.032 463.174 245.714 464.061 244.03C465.596 243.978 467.177 243.956 468.805 243.96C457.649 252.324 466.766 260.676 468.999 261.027C470.276 261.227 471.36 257.45 472.591 253.158C473.513 249.946 474.517 246.445 475.747 244.109C482.667 244.371 475.983 261.464 498.857 245.581C499.87 245.656 500.896 245.733 501.933 245.81C501.04 250.998 488.144 255.009 476.745 263.923C480.284 266.97 484.918 259.148 496.391 262.798C494.433 264.575 492.309 265.481 490.716 266.161C489.288 266.77 472.491 275.339 472.418 276.047C472.265 277.546 485.898 283.66 495.46 269.791C495.161 273.072 495.044 276.259 494.982 279.339C486.885 283.467 478.999 284.112 473.883 284.531C472.074 284.679 467.423 284.932 462.811 285.5C457.721 287.019 464.64 295.634 478.346 298.592C479.512 298.844 479.543 300.642 478.35 300.669C461.031 301.047 454.265 290.16 452.703 287.87C459.521 318.121 488.051 326.458 494.874 286.689C494.636 299.31 493.504 309.671 481.082 316.615C456.917 330.123 446.458 293.136 446.458 293.136C446.458 293.136 415.003 290.305 426.674 265.358ZM458.837 259.225C459.637 259.263 460.277 261.078 460.842 262.681C461.075 263.34 461.294 263.962 461.507 264.411C462.238 265.954 462.06 267.171 460.282 267.47C458.505 267.768 456.479 269.197 454.933 265.296C453.386 261.395 457.709 259.17 458.837 259.225ZM433.652 271.342C433.159 269.701 432.698 268.164 431.774 268.274C430.209 268.462 426.887 272.645 427.194 275.97C427.232 276.042 427.272 276.118 427.314 276.198C428.369 279.598 432.847 281.158 434.855 280.005C436.957 278.797 436.188 276.154 434.882 274.386C434.348 273.663 433.992 272.478 433.652 271.342Z" fill="#224E76"/>
<path d="M497.456 249.625C486.904 255.722 467.266 269.448 452.006 287.339M449.384 290.51C450.241 289.439 451.116 288.382 452.006 287.339M452.006 287.339C453.488 289.837 456.743 293.527 461.682 296.46M481.257 301.045C473.133 301.53 466.58 299.368 461.682 296.46M461.682 296.46C461.052 299.364 463.199 306.735 476.822 312.983" stroke="#26377B" stroke-width="2"/>
<path d="M399.333 362.815C406.601 349.668 442.805 334.488 450.456 326.328C458.108 318.167 465.768 297.819 466.863 289.753C467.958 281.687 467.845 271.75 468.164 265.898C468.483 260.047 463.576 253.911 463.773 250.31C463.969 246.71 473.457 240.907 472.666 231.384C472.311 227.11 470.863 216.388 482.777 202.141C485.752 192.712 483.268 193.139 483.268 193.139C483.268 193.139 455.741 217.37 453.316 225.814C450.89 234.259 458.262 243.239 458.547 250.025C458.833 256.812 437.332 278.663 430.815 290.045C424.299 301.427 418.867 316.931 410.489 326.406C402.111 335.88 396.273 346.848 399.333 362.815Z" fill="#0C8F47"/>
<path d="M399.333 362.815C406.601 349.668 410.834 335.002 418.485 326.842C426.136 318.682 445.023 287.304 446.117 279.238C447.212 271.172 452.571 271.077 455.53 262.726C458.489 254.374 458.351 253.626 458.547 250.025C458.744 246.425 456.973 236.265 456.328 229.72C455.684 223.175 461.457 227.496 467.185 214.288C472.667 205.574 483.268 193.139 483.268 193.139C483.268 193.139 455.741 217.37 453.316 225.814C450.89 234.259 458.262 243.239 458.547 250.025C458.833 256.812 437.332 278.663 430.815 290.045C424.299 301.427 418.867 316.931 410.489 326.406C402.111 335.88 396.273 346.848 399.333 362.815Z" fill="#00AA4D"/>
<g opacity="0.3">
<path d="M424.478 327.131C427.682 323.466 438.827 310.087 440.708 304.981C443.059 298.6 445.963 291.247 447.842 284.339C450.124 275.951 459.524 262.943 460.069 252.958C460.749 240.477 458.77 230.855 461.511 226.498C464.253 222.14 471.26 213.008 475.581 207.235C479.037 202.616 482.207 195.912 483.305 194.136" stroke="#1C6670" stroke-width="2"/>
<path d="M430.968 327.484C434.173 323.82 445.1 314.434 446.98 309.329C449.331 302.948 453.479 291.156 455.358 284.248C457.237 277.34 462.266 258.586 461.621 252.041C460.976 245.497 461.145 234.708 465.424 228.213C469.245 222.412 471.26 213.008 475.581 207.235C479.038 202.616 482.207 195.912 483.306 194.136" stroke="#1C6670" stroke-width="2"/>
<path d="M440.926 328.528C444.13 324.864 450.819 319.754 452.699 314.649C455.05 308.267 458.59 298.445 460.469 291.537C462.348 284.629 463.99 263.688 463.346 257.143C462.701 250.598 463.956 242.503 468.011 235.865C471.86 229.565 471.26 213.008 475.581 207.235C479.038 202.616 482.207 195.912 483.306 194.136" stroke="#1C6670" stroke-width="2"/>
</g>
<path d="M75.8876 231.512C75.8876 231.512 49.0294 202.495 48.6073 192.079C48.1853 181.663 56.8363 167.296 63.0022 169.056C69.168 170.817 68.923 178.452 73.017 182.159C87.1379 184.21 88.4987 197.357 84.2034 203.362C79.9081 209.366 96.0232 199.953 97.8278 210.282C99.6323 220.611 87.5489 234.257 87.5489 234.257L75.8876 231.512Z" fill="#FF8F96"/>
<path d="M75.8875 231.512C75.8875 231.512 59.3714 202.899 58.1685 195.996C56.9656 189.094 58.0102 175.343 62.8121 176.456C67.6139 177.57 62.5688 185.89 76.9744 189.281C91.3799 192.671 76.5739 204.851 79.9299 208.529C83.2858 212.208 92.5303 201.591 94.3349 211.919C96.1394 222.248 87.5489 234.257 87.5489 234.257L75.8875 231.512Z" fill="#FF505F"/>
<path d="M79.2963 233.156C79.2963 233.156 63.2275 203.79 62.2526 198.196C61.2776 192.602 61.155 187.208 64.5638 188.836C67.9726 190.463 64.416 194.578 72.6476 196.515C80.8793 198.453 73.0275 208.572 76.3834 212.25C79.7394 215.929 88.9526 206.543 90.7571 216.871C92.5617 227.2 85.4698 234.609 85.4698 234.609L79.2963 233.156Z" fill="#FF8F96"/>
<path d="M83.1172 235.785C83.1172 235.785 73.883 219.168 69.9362 211.637C65.9893 204.105 65.4405 198.612 68.8492 200.239C76.5 203.892 71.2156 209.834 76.0571 215.141C79.4131 218.819 84.4471 210.925 86.2516 221.254C88.0562 231.583 85.8611 236.431 85.8611 236.431L83.1172 235.785Z" fill="#FF505F"/>
<path d="M65.8582 202.411C55.6484 192.824 40.1474 193.574 33.0615 189.409C32.1754 195.461 33.0442 206.728 41.7403 214.23C47.5881 219.274 72.3388 225.043 78.9816 232.234C83.1848 234.107 85.1416 233.166 85.633 230.765C68.8287 214.614 76.068 211.997 65.8582 202.411Z" fill="#FFAE16"/>
<path d="M65.8582 202.411C55.6484 192.824 40.1474 193.574 33.0615 189.409C37.1301 206.727 49.6519 202.435 62.4547 210.557C75.2575 218.68 72.3388 225.043 78.9816 232.234C83.1848 234.107 85.1416 233.166 85.633 230.765C68.8287 214.614 76.068 211.997 65.8582 202.411Z" fill="#FFE01A"/>
<path d="M83.0374 223.488C83.0374 223.488 46.9496 207.331 36.9467 210.265C26.9437 213.199 16.1016 225.994 19.7432 231.272C23.3848 236.55 30.5403 233.873 35.3624 236.566C41.8255 249.287 54.7164 246.368 59.03 240.377C63.3436 234.385 59.5846 252.665 69.9474 251.069C80.3102 249.472 89.3703 233.657 89.3703 233.657L83.0374 223.488Z" fill="#FF8F96"/>
<path d="M83.0373 223.488C83.0373 223.488 50.6428 216.999 43.7185 218.069C36.7942 219.139 24.101 224.53 26.6928 228.723C29.2846 232.916 35.5525 225.473 43.3756 238.035C51.1987 250.598 57.9984 232.672 62.5575 234.674C67.1166 236.676 60.0175 248.832 70.3803 247.236C80.7431 245.639 89.3702 233.657 89.3702 233.657L83.0373 223.488Z" fill="#FF505F"/>
<path d="M85.6862 226.19C85.6862 226.19 52.721 220.367 47.1092 221.234C41.4975 222.101 36.3485 223.711 38.9816 226.42C41.6147 229.128 44.3746 224.442 48.8449 231.62C53.3152 238.799 60.3887 228.121 64.9479 230.123C69.507 232.125 63.5637 243.858 73.9265 242.261C84.2893 240.665 89.0388 231.574 89.0388 231.574L85.6862 226.19Z" fill="#FF8F96"/>
<path d="M89.3995 228.969C89.3995 228.969 70.7016 225.54 62.303 224.211C53.9045 222.883 48.5241 224.121 51.1571 226.83C57.0669 232.909 61.0046 226 67.5818 228.888C72.141 230.89 66.2738 238.186 76.6366 236.59C86.9994 234.993 90.8897 231.362 90.8897 231.362L89.3995 228.969Z" fill="#FF505F"/>
<circle cx="819.5" cy="289.5" r="13.5" fill="#EB3343"/>
<circle cx="822" cy="288" r="8" fill="#FF8F96"/>
<circle cx="822" cy="288" r="3" fill="#FB3646"/>
<defs>
<linearGradient id="paint0_linear" x1="58.0548" y1="203.114" x2="144.452" y2="330.023" gradientUnits="userSpaceOnUse">
<stop stop-color="#06803D" stop-opacity="0"/>
<stop offset="1" stop-color="#06803D"/>
</linearGradient>
<linearGradient id="paint1_linear" x1="437.364" y1="282.721" x2="302.774" y2="249.013" gradientUnits="userSpaceOnUse">
<stop stop-color="#253C7A"/>
<stop offset="1" stop-color="#1C6670"/>
</linearGradient>
<linearGradient id="paint2_linear" x1="421.274" y1="303.013" x2="295.774" y2="263.513" gradientUnits="userSpaceOnUse">
<stop stop-color="#300886"/>
<stop offset="1" stop-color="#224A77"/>
</linearGradient>
<linearGradient id="paint3_linear" x1="146.983" y1="322.852" x2="155.649" y2="219.604" gradientUnits="userSpaceOnUse">
<stop stop-color="#253C7A"/>
<stop offset="1" stop-color="#1C6670"/>
</linearGradient>
<linearGradient id="paint4_linear" x1="165.138" y1="316.6" x2="167.652" y2="218.004" gradientUnits="userSpaceOnUse">
<stop stop-color="#300886"/>
<stop offset="1" stop-color="#224A77"/>
</linearGradient>
<linearGradient id="paint5_linear" x1="378.566" y1="0.746887" x2="378.566" y2="369.306" gradientUnits="userSpaceOnUse">
<stop stop-color="#00AA4D"/>
<stop offset="0.519337" stop-color="#009544"/>
<stop offset="1" stop-color="#00AA4D"/>
</linearGradient>
<linearGradient id="paint6_linear" x1="378.659" y1="0.746887" x2="378.659" y2="369.306" gradientUnits="userSpaceOnUse">
<stop stop-color="#300886"/>
<stop offset="1" stop-color="#300886" stop-opacity="0"/>
</linearGradient>
<linearGradient id="paint7_linear" x1="378.452" y1="0.746887" x2="378.452" y2="369.293" gradientUnits="userSpaceOnUse">
<stop stop-color="#077C3C" stop-opacity="0.46"/>
<stop offset="1" stop-color="#077C3C"/>
</linearGradient>
<linearGradient id="paint8_linear" x1="378.452" y1="0.746887" x2="378.452" y2="369.293" gradientUnits="userSpaceOnUse">
<stop stop-color="#01A64B"/>
<stop offset="0.674033" stop-color="#01A64B" stop-opacity="0"/>
</linearGradient>
</defs>
</svg>
