<svg width="24" height="24" viewBox="0 0 24 24" fill="none" xmlns="http://www.w3.org/2000/svg">
<path fill-rule="evenodd" clip-rule="evenodd" d="M0 12.0295C0 5.38565 5.3735 0 12.0001 0C18.6273 0 24 5.38565 24 12.0295C24 17.3426 20.566 21.8502 15.8006 23.4426C15.1923 23.5607 14.9763 23.1856 14.9763 22.8655C14.9763 22.7342 14.9778 22.5041 14.9799 22.1966C14.984 21.5762 14.9902 20.6401 14.9902 19.5643C14.9902 18.442 14.6067 17.7099 14.1762 17.3366C16.8484 17.0388 19.6557 16.0215 19.6557 11.4012C19.6557 10.0878 19.1901 9.01473 18.4206 8.1723C18.5452 7.86931 18.9562 6.64581 18.303 4.98884C18.303 4.98884 17.2967 4.66553 15.0063 6.22191C14.0473 5.95537 13.0199 5.82171 12.0001 5.81712C10.9803 5.82171 9.95372 5.95537 8.9965 6.22191C6.70331 4.66553 5.69562 4.98884 5.69562 4.98884C5.04402 6.64581 5.45477 7.86931 5.57937 8.1723C4.81172 9.01473 4.34295 10.0878 4.34295 11.4012C4.34295 16.0105 7.14486 17.042 9.81024 17.3462C9.46706 17.6466 9.15607 18.1773 9.04836 18.9548C8.36359 19.2621 6.6266 19.7938 5.55632 17.9548C5.55632 17.9548 4.92181 16.8 3.7168 16.7151C3.7168 16.7151 2.54596 16.6998 3.63473 17.4464C3.63473 17.4464 4.42125 17.8161 4.96712 19.2066C4.96712 19.2066 5.67157 21.3536 9.01001 20.6259C9.01282 21.1722 9.01739 21.7015 9.02098 22.117C9.02398 22.4656 9.02631 22.7347 9.02631 22.8655C9.02631 23.1832 8.80613 23.5556 8.2064 23.4442C3.43839 21.8536 0 17.3444 0 12.0295ZM4.28871 17.1729C4.37416 17.2139 4.46795 17.196 4.49438 17.1363C4.52459 17.0763 4.47491 16.994 4.38767 16.9548C4.30083 16.9135 4.20684 16.9307 4.18101 16.9922C4.15279 17.0522 4.20167 17.1337 4.28871 17.1729ZM5.08468 17.6642C5.02745 17.7174 4.91557 17.6927 4.83966 17.6086C4.76117 17.5248 4.74646 17.4126 4.80449 17.3586C4.8635 17.3055 4.972 17.3304 5.0507 17.4142C5.12919 17.4991 5.14449 17.6104 5.08468 17.6642ZM5.22157 18.236C5.29589 18.3429 5.41611 18.391 5.48964 18.3398C5.56475 18.2874 5.56475 18.1591 5.49143 18.0503C5.41611 17.9441 5.29768 17.8979 5.22316 17.9493C5.14805 18.0007 5.14805 18.129 5.22157 18.236ZM6.17452 19.1221C6.10874 19.1948 5.96865 19.1753 5.86611 19.0761C5.76119 18.9791 5.73197 18.8414 5.79795 18.7687C5.86452 18.6958 6.00541 18.7163 6.10874 18.8148C6.21287 18.9116 6.24466 19.0502 6.17452 19.1221ZM6.75969 19.4832C6.89561 19.5233 7.03054 19.4805 7.05955 19.3862C7.08777 19.2904 6.99875 19.1808 6.86322 19.1398C6.72631 19.097 6.59078 19.1416 6.56256 19.2364C6.53514 19.3316 6.62397 19.442 6.75969 19.4832ZM8.06688 19.4983C8.07026 19.5975 7.955 19.6798 7.81233 19.6815C7.66885 19.6847 7.5528 19.6045 7.55121 19.5068C7.55121 19.4066 7.66388 19.3252 7.80736 19.3228C7.95004 19.32 8.06688 19.3997 8.06688 19.4983ZM8.83271 19.683C8.9744 19.6565 9.07356 19.5571 9.05647 19.4603C9.03838 19.3618 8.9114 19.3037 8.76952 19.3284C8.63042 19.3541 8.52947 19.4535 8.54676 19.5527C8.56445 19.6487 8.69341 19.7085 8.83271 19.683Z" fill="white"/>
</svg>
