<svg width="980" height="601" viewBox="0 0 980 601" fill="none" xmlns="http://www.w3.org/2000/svg">
<path fill-rule="evenodd" clip-rule="evenodd" d="M979.527 546.538C972.405 547.628 974.749 540.15 972.574 535.762C969.118 528.769 968.78 532.384 968.73 538.198C968.73 541.239 970.339 544.25 969.346 547.321C968.561 549.767 965.373 550.46 964.469 552.927C963.764 554.749 964.161 563.713 965.353 565.327L968.005 563.921C969.952 561.989 982.577 548.202 979.527 546.538Z" fill="#492FB2"/>
<path fill-rule="evenodd" clip-rule="evenodd" d="M915.688 492.31C915.688 486.912 914.963 482.009 911.636 477.453C911.238 476.091 910.639 474.796 909.858 473.61L907.325 473.769C906.004 471.788 906.093 468.618 904.415 466.271C900.283 460.546 898.912 461.685 897.462 453.801C896.28 447.185 894.919 447.511 892.237 442.846C891.303 441.242 891.244 433.348 888.701 434.249C887.31 434.735 886.059 445.293 886.029 445.481C884.916 451.424 884.877 457.367 878.083 455.762C875.858 455.247 871.13 450.503 868.795 449.106C866.253 447.125 868.08 443.886 868.934 441.41C871.368 441.173 871.845 439.37 871.229 437.32C867.971 437.954 865.448 436.24 862.17 435.903C862.935 435.982 853.111 435.17 855.158 436.616C851.135 437.993 851.631 441.113 848.761 443.064C845.046 445.6 847.668 443.639 843.615 444.342C842.016 444.619 839.841 443.163 837.914 443.599C833.226 444.659 832.759 448.898 830.027 451.691C829.783 451.985 829.481 452.225 829.139 452.395C828.797 452.566 828.423 452.663 828.041 452.682C824.445 454.375 825.14 457.951 822.687 460.675C818.942 464.825 811.642 465.3 806.407 467.133C801.172 468.965 796.305 469.787 794.915 475.809C794.319 478.394 794.478 488.031 795.818 489.854C797.02 494.806 798.341 501.333 798.073 506.414C797.914 509.623 794.766 514.754 795.58 517.032C797.199 521.578 801.957 519.766 805.076 519.013C809.824 517.795 817.174 516.834 821.882 514.883C829.829 511.585 838.659 505.097 848.115 509.138C850.231 510.012 852.055 511.465 853.38 513.328C854.154 514.417 855.436 520.38 855.614 520.509C858.267 522.49 858.078 518.666 861.465 517.805C862.458 519.3 860.472 524.312 860.233 524.163C861.385 524.995 862.319 524.649 863.054 523.104C866.034 527.373 864.931 532.424 867.266 536.366C868.329 538.169 881.172 546.172 881.172 539.654C881.172 546.3 885.661 541.635 888.214 540.774C896.846 537.98 895.853 535.663 899.597 527.838C902.518 521.757 907.732 517.319 910.811 511.357C912.575 507.875 913.909 504.194 914.785 500.392C915.43 497.708 914.934 494.638 915.688 492.31ZM810.509 515.467L809.744 515.636C809.995 515.559 810.25 515.503 810.509 515.467Z" fill="#492FB2"/>
<path fill-rule="evenodd" clip-rule="evenodd" d="M957.019 561.157C955.629 572.815 935.594 572.954 933.975 583.849C932.823 591.584 940.759 589.693 944.623 586.285C947.603 583.69 949.351 579.54 952.341 576.727C954.735 574.479 956.503 575.469 957.645 572.003C959.552 568.804 961.211 566.288 962.979 563.089C960.704 563.376 959.781 559.275 957.019 561.157Z" fill="#492FB2"/>
<path fill-rule="evenodd" clip-rule="evenodd" d="M905.219 429.683C907.573 431.664 910.365 431 913.245 431.456C912.003 428.277 907.871 426.563 906.222 423.166C905.855 422.413 905.398 417.619 905.825 418.214C905.04 417.223 898.872 411.974 898.127 411.875C895.048 410.666 891.562 407.358 888.135 407.358C886.327 405.942 881.082 404.387 878.768 404.208C874.795 403.862 878.053 402.772 873.802 404.882C873.802 404.882 868.289 409.072 868.895 409.101C864.147 408.834 865.061 402.762 864.763 399.979C864.405 399.86 855.823 396.532 857.124 400.613C855.515 399.088 860.104 405.853 859.836 405.318C860.551 407.061 857.988 408.784 860.68 411.261C864.594 414.915 876.712 411.855 878.043 418.63C878.53 420.997 876.772 423.721 876.503 424.572C878.629 425.563 881.033 423.681 883.109 425.216C888.81 435.824 894.442 419.858 899.001 424.305C901.266 424.553 903.173 426.286 904.653 427.821C904.571 428.154 904.58 428.502 904.679 428.83C904.779 429.158 904.965 429.452 905.219 429.683Z" fill="#492FB2"/>
<path fill-rule="evenodd" clip-rule="evenodd" d="M920.566 409.963C917.913 411.181 916.652 413.341 913.801 414.42C912.599 414.519 909.262 415.173 908.398 416.094C912.45 419.521 918.678 418.204 920.486 413.42C924.39 412.934 922.85 409.448 920.566 409.963Z" fill="#492FB2"/>
<path fill-rule="evenodd" clip-rule="evenodd" d="M884.668 554.026C880.963 554.551 878.46 550.411 875.729 553.858C875.282 554.412 875.729 563.396 875.987 563.762C882.523 571.656 887.062 553.699 884.668 554.026Z" fill="#492FB2"/>
<path fill-rule="evenodd" clip-rule="evenodd" d="M912.808 159.376H912.709V159.435L912.808 159.376Z" fill="#492FB2"/>
<path fill-rule="evenodd" clip-rule="evenodd" d="M367.513 21.1467C367.811 21.3547 369.39 20.8396 366.897 19.4728C367.086 20.0472 367.115 20.8693 367.513 21.1467Z" fill="#492FB2"/>
<path fill-rule="evenodd" clip-rule="evenodd" d="M194.909 44.9772C195.743 49.4046 199.647 43.3628 199.935 46.6907C200.134 49.0084 195.565 48.1764 195.634 50.8507C195.684 52.4453 200.67 54.4956 201.773 56.0011C196.945 62.1023 212.45 59.1607 214.904 58.9725C218.013 58.6852 226.208 58.8635 226.188 53.6339C226.188 50.6625 223.208 51.9105 222.056 49.3253C221.46 47.9783 223.297 44.4325 221.877 43.65C216.553 40.6786 218.063 52.8613 212.45 52.4453C212.351 48.0476 209.381 44.7494 209.471 40.6786C209.639 33.7454 217.894 31.2692 207.216 29.7043C204.117 30.8829 201.584 32.7846 198.852 34.6071C186.615 37.1426 190.449 38.2024 194.909 44.9772Z" fill="#492FB2"/>
<path fill-rule="evenodd" clip-rule="evenodd" d="M217.407 31.1603C217.486 31.9229 218.51 35.4193 219.88 35.4193C222.046 37.4893 234.283 32.9728 235.048 28.8426C235.882 24.336 232.286 22.6621 228.403 23.6228C223.486 24.8411 225.721 29.8132 219.672 27.9809C217.099 28.1492 217.407 29.1397 217.407 31.1603Z" fill="#492FB2"/>
<path fill-rule="evenodd" clip-rule="evenodd" d="M212.272 38.5392C213.563 37.1129 211.04 39.9853 212.272 38.5392Z" fill="#492FB2"/>
<path fill-rule="evenodd" clip-rule="evenodd" d="M242.935 33.0124C246.034 34.1217 246.53 40.7479 248.219 40.7677C250.285 40.7677 252.192 35.5381 252.371 33.9534C252.659 31.8338 252.371 23.1276 248.398 22.9097C244.961 22.7116 246.272 24.8906 244.941 26.4357C245.03 26.3268 241.474 31.4574 241.752 30.8829C241.634 31.0958 241.572 31.3351 241.572 31.5784C241.572 31.8217 241.634 32.061 241.752 32.2738C241.871 32.4867 242.041 32.6661 242.248 32.7953C242.455 32.9245 242.691 32.9992 242.935 33.0124Z" fill="#492FB2"/>
<path fill-rule="evenodd" clip-rule="evenodd" d="M860.68 231.759C857.243 231.442 857.005 237.474 859.588 238.504C862.17 239.534 863.243 236.335 865.041 235.196C867.147 233.859 871.537 236.78 873.215 232.155C875.202 226.618 871.438 229.332 867.435 226.519C866.114 224.627 863.461 222.161 860.988 222.052C861.276 223.696 864.296 231.818 860.68 231.759Z" fill="#492FB2"/>
<path fill-rule="evenodd" clip-rule="evenodd" d="M419.223 33.0025C417.366 32.1903 417.763 33.7553 417.555 34.6665C419.124 35.1815 419.174 34.092 419.223 33.0025Z" fill="#492FB2"/>
<path fill-rule="evenodd" clip-rule="evenodd" d="M421.716 32.9926C421.16 32.1903 420.604 31.3286 420.028 32.9926C420.126 33.1237 420.253 33.2303 420.4 33.3036C420.546 33.377 420.708 33.4152 420.872 33.4152C421.036 33.4152 421.198 33.377 421.344 33.3036C421.491 33.2303 421.618 33.1237 421.716 32.9926Z" fill="#492FB2"/>
<path fill-rule="evenodd" clip-rule="evenodd" d="M233.101 48.1863C231.949 45.5022 229.883 50.2366 229.734 50.8903C229.158 53.3664 231.72 55.5554 232.197 57.665C232.505 58.913 232.574 63.6772 233.816 64.4497C235.356 65.4402 238.663 63.697 239.269 63.9644C240.908 64.7072 241.345 68.5898 243.938 68.8573C244.554 68.9266 248.378 68.679 247.196 66.9754C249.123 66.9754 248.805 63.796 247.841 62.7461C247.841 60.2105 244.126 60.8246 243.739 56.625C243.292 51.8411 248.07 50.4248 240.66 48.8499C237.183 48.1269 235.078 54.2975 233.101 48.1863Z" fill="#492FB2"/>
<path fill-rule="evenodd" clip-rule="evenodd" d="M257.923 47.8198C260.992 48.6122 258.619 44.6008 257.218 43.9669C262.184 42.2534 264.221 35.4787 258.42 33.26C252.967 31.1701 251.397 46.1162 257.923 47.8198Z" fill="#492FB2"/>
<path fill-rule="evenodd" clip-rule="evenodd" d="M829.898 425.325C829.898 423.622 818.098 423.453 819.717 426.236C823.074 427.583 826.72 426.573 829.898 425.325Z" fill="#492FB2"/>
<path fill-rule="evenodd" clip-rule="evenodd" d="M814.9 426.989C815.893 426.543 817.879 426.533 817.144 424.681L810.559 425.88C811.126 426.42 811.824 426.806 812.584 427C813.344 427.194 814.141 427.191 814.9 426.989Z" fill="#492FB2"/>
<path fill-rule="evenodd" clip-rule="evenodd" d="M853.846 277.508C857.929 275.319 865.319 274.289 867.176 268.238C872.044 271.209 869.729 263.285 869.56 260.542C869.501 259.65 868.041 257.877 868.041 257.719C868.041 255.946 869.938 255.887 869.769 253.757C869.511 250.578 867.931 238.9 861.962 242.753C858.048 245.249 863.551 254.193 862.409 257.263C861.925 258.318 861.385 259.347 860.79 260.344C860.501 260.71 856.588 259.749 855.704 260.482C853.33 262.463 852.724 265.593 850.002 267.723C847.023 270.02 836.623 275.924 841.48 281.242C844.639 287.185 841.857 289.374 846.446 283.223C847.306 281.818 848.344 280.53 849.536 279.39C850.32 278.786 853.608 277.855 853.846 277.508Z" fill="#492FB2"/>
<path fill-rule="evenodd" clip-rule="evenodd" d="M831.686 397.186C834.358 397.335 836.057 396.196 836.653 393.284C830.315 400.375 823.134 389.401 818.684 401.663C817.8 404.109 816.846 407.14 817.015 409.587C817.075 410.31 818.843 410.29 819.25 411.241C819.916 412.796 818.535 414.153 819.161 415.757C820.015 415.926 826.531 408.032 826.531 413.657C826.531 417.887 830.703 411.389 830.703 411.627C830.703 409.983 827.902 408.765 827.574 406.675C826.839 401.94 829.263 404.307 829.789 400.623C828.855 400.692 822.985 401.376 822.548 401.019C817.144 396.552 829.789 396.859 831.686 397.186ZM822.399 407.556C822.451 407.615 822.497 407.678 822.538 407.744C822.486 407.689 822.44 407.63 822.399 407.566V408.22C822.071 407.982 822.041 407.695 822.399 407.556Z" fill="#492FB2"/>
<path fill-rule="evenodd" clip-rule="evenodd" d="M800.517 424.602C801.391 424.602 801.441 426.732 802.831 425.513C804.818 423.73 799.047 420.016 797.865 419.57C793.345 417.728 790.912 420.095 786.601 420.095C788.081 417.669 777.393 412.548 777.423 418.937C777.492 423.423 797.388 424.731 800.517 424.602Z" fill="#492FB2"/>
<path fill-rule="evenodd" clip-rule="evenodd" d="M825.856 338.798C823.611 331.291 815.098 344.86 820.323 350.684C827.167 358.211 827.167 343.186 825.856 338.798Z" fill="#492FB2"/>
<path fill-rule="evenodd" clip-rule="evenodd" d="M826.581 376.832C828.458 376.426 829.272 375.168 829.024 373.039C837.815 374.118 831.348 376.545 834.269 377.258C836.881 377.912 835.838 379.239 838.848 377.793C839.593 377.436 843.089 368.68 839.116 367.433C836.702 366.68 835.818 370.156 833.971 370.899C832.58 371.454 831.408 369.285 829.133 371.216C828.337 371.921 827.698 372.786 827.258 373.753C826.818 374.721 826.588 375.77 826.581 376.832Z" fill="#492FB2"/>
<path fill-rule="evenodd" clip-rule="evenodd" d="M790.743 401.504C790.077 408.071 798.898 410.102 804.023 409.864C809.377 409.626 807.221 410.775 810.201 405.09C812.367 400.94 813.062 396.938 817.154 393.947C811.761 390.976 814.969 386.826 815.396 383.518C818.207 381.765 818.207 380.289 815.396 379.09C814.524 377.955 813.466 376.974 812.267 376.188C808.97 376.059 801.272 386.202 798.361 388.836C795.62 390.332 780.721 397.988 790.743 401.504Z" fill="#492FB2"/>
<path fill-rule="evenodd" clip-rule="evenodd" d="M750.346 348.554C751.895 355.547 754.259 360.093 754.677 367.373C755.054 374.069 758.57 373.534 761.202 379.07C764.093 385.162 762.941 390.57 772.407 393.303C775.526 390.193 768.434 379.298 766.556 377.882C762.583 374.742 758.689 369.958 757.786 364.729C757.577 363.53 759.653 356.805 760.368 356.379C761.878 358.895 765.623 359.915 767.987 361.717C769.973 363.203 773.47 369.364 774.463 369.423C776.698 369.582 785.26 362.153 786.382 360.509C788.786 356.795 787.038 349.763 784.793 346.197C782.806 343.077 777.989 341.364 776.598 337.996C774.84 333.717 778.972 331.984 778.585 328.19C777.701 327.418 787.525 330.013 786.283 330.171C789.451 329.864 789.898 328.844 793.236 327.022C801.113 322.723 808.443 322.753 813.578 314.274C818.426 306.281 821.217 298.546 818.217 289.721C816.976 286.076 814.423 274.438 809.009 275.24C805.235 268.307 821.455 266.673 812.913 261.859C809.436 259.878 804.847 263.84 802.384 260.869C800.119 258.194 804.788 252.509 807.44 251.499C811.731 259.185 814.88 251.875 819.469 256.283C819.335 257.922 819.573 259.571 820.164 261.106C820.387 261.601 820.79 261.993 821.292 262.202C821.793 262.412 822.356 262.424 822.866 262.235C823.311 262.332 823.776 262.289 824.196 262.112C824.615 261.934 824.97 261.631 825.21 261.245C827.15 262.348 827.458 263.85 826.134 265.752C826.551 267.307 825.587 272.487 826.988 273.675C830.474 276.597 829.839 273.725 832.024 272.685C834.209 271.645 835.153 273.873 836.394 271.011C838.063 267.188 835.083 268.406 837.01 268.337C836.225 266.356 835.083 263.82 834.676 262.513C834.719 261.537 834.425 260.575 833.843 259.789C833.261 259.003 832.426 258.44 831.478 258.194C827.445 253.797 829.878 251.954 831.478 247.715C832.113 246.041 832.471 240.94 833.891 239.603C836.285 237.345 839.851 238.553 842.443 236.464C846.208 233.383 849.257 222.706 850.449 218.061C853.022 208.008 851.79 199.876 848.661 190.407C853.151 197.033 853.399 203.372 855.674 211.207C857.661 217.892 860.184 217.516 864.614 217.06C866.451 215.079 861.862 212.504 861.336 211.474C859.814 208.592 858.806 205.469 858.356 202.243C864.316 200.668 855.019 190.853 853.28 187.386C851.542 183.919 850.668 180.364 848.155 177.392C843.854 172.281 846.635 177.561 846.804 177.571C846.198 178.244 845.394 178.779 845.175 179.72C840.725 174.659 838.331 178.066 834.13 176.818C833.037 176.501 829.66 179.789 830.007 174.669C830.31 174.79 830.646 174.804 830.958 174.706C831.269 174.609 831.537 174.406 831.716 174.134C832.709 171.806 829.143 173.916 828.736 174.322C825.846 171.826 832.163 153.78 833.583 150.61C835.659 145.945 840.536 144.35 844.619 142.32C846.407 141.438 850.161 139.398 852.158 139.111C855.724 138.616 857.243 141.26 859.568 141.349C859.846 141.349 867.345 139.17 865.855 137.308C862.875 133.594 863.213 135.743 862.875 131.445C862.597 128.354 863.173 122.372 866.392 121.015C871.567 118.836 872.351 125.532 875.719 124.7C878.42 124.046 877.814 118.291 880.685 118.291C881.43 134.258 873.216 147.282 879.116 161.872C880.496 165.289 888.463 182.82 892.028 184.197C897.462 186.326 895.654 172.381 896.002 170.509C895.654 169.034 895.604 167.506 895.853 166.012C896.78 164.757 897.884 163.643 899.13 162.704C899.13 159.841 896.151 157.93 895.723 154.938C895.197 151.135 898.703 153.849 898.207 151.056C897.869 150.491 897.521 150.293 897.213 150.481C897.203 150.12 897.107 149.766 896.935 149.448C896.762 149.129 896.518 148.856 896.22 148.649C894.978 142.439 891.403 143.38 888.999 138.616C886.754 134.159 888.363 124.066 893.071 124.125C892.961 124.451 892.969 124.805 893.095 125.126C893.22 125.446 893.454 125.713 893.757 125.878C893.959 125.841 894.149 125.757 894.312 125.633C894.476 125.509 894.608 125.349 894.698 125.165C894.787 124.981 894.833 124.778 894.83 124.574C894.827 124.369 894.776 124.168 894.68 123.986C899.051 117.113 899.965 123.986 905.408 122.897C904.286 115.488 906.789 105.584 912.5 100.245C914.487 98.4226 917.069 102.226 917.467 97.7788C917.745 94.3617 913.295 93.1335 911.437 91.0833C910.099 89.5685 908.899 87.9377 907.851 86.2102C906.252 82.5059 907.961 84.1104 907.196 80.0198C906.884 77.8022 906.303 75.6305 905.468 73.5521C906.024 74.9189 898.932 66.0543 903.481 67.5301C906.65 68.5205 900.759 70.4123 908.05 70.3034C910.096 63.1027 913.722 71.066 918.251 68.0154C923.684 72.5913 919.413 63.2414 919.642 64.2813C919.195 62.2311 917.814 60.9633 917.417 59.329C916.712 56.4963 919.572 54.5946 917.417 52.3958C918.013 49.0183 916.215 49.365 914.04 48.216C910.434 46.3242 909.639 48.424 906.948 48.7806C906.242 50.8804 905.179 51.4449 903.739 50.4941C902.838 50.2074 901.972 49.822 901.157 49.3452C897.025 49.2164 902.796 48.1269 898.316 49.771C895.425 45.8092 872.173 44.5315 867.365 45.3932C865.13 45.7993 857.184 47.2057 856.975 49.573C856.677 53.0792 864.763 53.6537 862.756 58.1306C860.77 56.1001 853.082 50.4446 850.837 51.0983C853.032 56.6746 844.678 55.2384 842.513 56.9717H842.443C833.434 60.8642 835.798 59.3587 828.637 54.6837C821.267 49.88 818.704 55.7832 812.178 57.0906C809.456 57.6353 808.433 56.3675 806.169 56.1001C804.708 55.9218 801.093 56.4666 799.315 55.5058C793.872 52.5344 796.782 48.2259 789.114 51.6727C786.67 51.6727 782.399 51.3063 780.174 52.3562C776.201 51.3657 775.605 52.8712 773.897 55.4563C774.155 55.0601 770.053 60.0323 773.241 58.1504C773.241 63.4791 779.787 63.8951 768.781 65.6185C762.067 67.1636 756.375 67.124 759.742 75.424C757.1 75.216 747.972 70.967 747.704 68.3323C751.528 69.3822 744.128 60.5473 742.737 59.7747C742.608 59.6955 733.798 58.7843 733.559 58.9229C729.427 61.2307 733.122 62.8848 731.155 64.8657C726.01 69.9765 719.822 64.8657 716.485 64.1922C713.435 63.5979 705.717 66.292 702.767 67.1636C700.095 67.9758 696.45 64.628 698.655 70.4519C697.255 71.1849 695.188 77.2564 692.745 74.0572C694.592 69.194 698.089 61.0128 697.9 55.6841C697.761 51.6529 695.516 49.365 692.109 46.5917C690.729 45.4724 687.908 43.4816 686.15 43.2241C684.014 42.917 683.11 44.2145 681.183 44.0462C681.183 44.0462 679.385 45.3041 679.365 45.3041C677.836 44.9673 678.044 43.5807 676.932 43.3231C670.843 45.3635 670.446 36.8752 665.827 39.3019C662.847 40.847 663.691 53.416 665.598 53.416C663.731 54.347 663.9 55.6742 662.052 56.7241C658.487 58.7546 658.288 56.9321 654.493 58.7546C650.232 60.8048 636.664 75.5924 643.021 77.821L644.779 78.8114C645.148 79.1156 645.42 79.5199 645.563 79.9752C645.705 80.4305 645.713 80.9174 645.584 81.3767C642.991 81.6541 635.402 84.259 634.489 86.5569C632.78 90.8456 638.78 92.4006 640.131 95.0055C644.014 102.484 633.406 94.5598 629.691 94.2825C628.928 95.8603 628.354 97.5227 627.983 99.2348C627.983 100.077 624.913 97.3232 624.526 96.7289C623.96 101.533 620.861 104.375 624.645 109.03C620.116 104.395 615.278 87.5671 610.252 100.037C607.372 107.168 609.368 117.925 615.08 122.639C608.544 119.668 596.793 121.382 592.234 115.964C587.615 118.321 596.009 121.025 596.297 122.471C597.379 127.869 597.002 123.828 593.794 125.67C589.403 128.186 584.04 126.175 579.659 127.602C576.957 128.473 572.498 132.118 570.62 134.05C569.845 134.852 567.64 138.774 567.144 138.834C564.482 139.091 564.849 135.674 565.485 135.674C565.693 133.089 563.916 130.088 560.826 130.722C555.641 131.712 560.3 137.08 559.565 140.121C557.976 146.747 556.188 141.765 553.675 138.972C548.791 133.73 542.509 129.985 535.567 128.176C529.22 126.383 514.072 113.943 507.477 121.382C501.763 123.91 496.444 127.246 491.684 131.286C487.055 135.248 488.704 134.337 487.333 139.507C486.479 142.776 484.919 145.499 483.737 148.273C481.983 152.69 479.491 156.779 476.367 160.366C473.447 163.714 467.11 167.418 465.143 171.152C460.494 179.928 467.735 200.638 479.953 188.099C479.317 195.24 490.879 198.549 481.314 201.807C482.228 197.538 481.93 190.209 475.692 194.379C472.503 196.518 473.794 201.817 473.417 204.64C472.801 209.265 474.331 207.106 469.851 210.523C468.103 211.851 465.878 212.395 464.13 213.94C461.041 216.654 461.647 219.705 456.779 220.765C455.607 218.734 458.379 216.704 457.346 214.961C456.69 213.861 454.366 213.069 454.038 212.415C453.045 210.503 451.684 207.75 450.164 204.888C448.644 202.025 441.642 177.6 435.017 191.922C433.189 195.884 436.109 198.142 433.03 202.114C429.454 206.69 426.385 205.541 425.392 212.296C423.157 227.43 439.884 217.041 437.698 213.287C440.678 213.425 441.503 201.877 444.989 208.988C441.801 208.929 440.341 214.465 439.943 217.417C439.943 217.605 440.112 220.685 440.639 219.071C440.996 217.981 438.384 228.094 437.539 224.905C438.791 229.619 444.224 227.015 447.472 225.677C444.87 229.104 437.112 229.134 440.847 235.948C442.526 239.029 452.926 240.812 448.307 247.834C444.999 252.875 439.178 248.824 433.825 249.557C424.686 250.845 428.093 254.044 427.05 262.126C426.444 266.871 423.941 268.297 426.186 272.853C427.895 276.32 433.884 276.003 435.126 280.113C436.586 285.125 431.56 285.729 429.027 288.364C424.557 293.009 425.421 299.18 421.19 303.825C419.412 305.806 416.502 306.073 414.624 307.935C414.008 308.54 411.843 313.066 410.721 314.571C408.665 317.365 407.224 320.801 405.327 323.783C401.632 329.587 403.152 339.769 402.159 347.277C401.99 348.495 400.728 355.299 401.702 357.102C403.966 361.282 408.009 359.865 411.774 364.699C413.85 367.363 414.157 370.77 416.462 373.326C418.766 375.881 422.104 376.069 424.269 378.645C425.467 380.022 426.921 381.155 428.55 381.982C431.292 384.399 438.245 380.427 441.463 380.309C445.744 380.16 447.909 381.299 452.171 380.309C457.216 379.14 467.765 372.504 469.543 381.784C472.861 386.261 478.066 380.923 481.403 385.924C482.972 388.282 482.079 391.481 481.93 393.076C481.512 397.513 480.817 402.079 484.274 406.704C484.611 407.15 488.724 411.776 489.29 411.776C487.879 411.776 490.939 415.163 490.939 414.242C490.939 419.67 494.375 425.424 494.425 431.139C494.495 438.27 487.84 442.926 488.376 450.82C488.843 457.555 493.938 463.309 495.538 470.074C497.385 477.929 497.325 485.397 503.146 491.864L503.226 491.419C505.888 492.31 504.219 506.553 507.785 509.019C512.116 511.991 530.134 506.85 533.898 504.513C540.911 500.145 547.367 491.339 550.347 484.069C551.033 482.396 550.923 480.345 552.066 478.671C553.208 476.998 554.966 477.314 556.287 475.7C559.267 472.025 561.055 468.767 558.274 464.032C558.274 462.051 554.747 463.161 558.731 459.397C561.502 457.159 564.621 455.237 566.975 452.761C567.75 452.543 568.137 452.157 568.137 451.612C578.557 448.641 577.077 437.894 575.428 429.584C574.583 425.414 572.378 420.175 572.786 415.579C573.302 409.636 578.427 406.348 581.099 401.544C586.761 395.126 593.843 390.837 599.088 385.043C601.988 381.834 614.812 364.322 609.299 359.657C607.729 358.32 579.103 366.085 588.191 357.795C591.618 354.675 602.962 357.082 602.962 350.545C605.385 355.042 620.374 341.155 623.284 339.392C627.486 336.847 629.492 335.856 631.618 330.835C632.293 329.23 634.707 328.002 634.538 325.962C634.538 325.348 631.558 320.752 631.012 321.158C627.238 320.445 623.791 321 622.818 315.889C622.818 314.958 623.622 312.303 622.063 311.927C622.063 311.927 616.927 319.286 617.096 319.187C612.527 321.435 608.395 319.494 607.263 314.908C608.623 314.066 608.256 313.264 606.269 312.482C605.077 317.028 602.296 308.52 599.843 307.153C598.666 305.306 597.693 303.336 596.942 301.279C598.184 293.881 606.239 305.33 607.928 306.687C612.686 310.501 617.99 310.283 623.473 312.283C629.929 314.641 636.316 316.642 642.653 317.058C645.345 317.236 648.405 315.582 651.126 316.542C653.421 317.345 656.51 322.485 659.003 320.683C659.311 325.962 665.33 329.379 668.817 330.855C670.426 329.494 671.84 329.524 673.058 330.944C673.187 332.439 673.257 333.915 673.247 335.441C674.319 339.076 675.233 342.661 676.684 346.217C678.67 351.169 683.974 369.602 688.98 371.751C694.881 374.277 697.92 364.966 699.102 361.084C702.082 351.347 702.36 346.157 709.363 338.184C713.942 332.974 719.395 324.644 727.321 326.209C732.208 327.2 729.477 326.853 732.715 330.785C735.198 333.757 737.234 336.253 738.734 339.858C740.721 344.533 738.307 344.81 743.154 346.791C745.836 347.742 749.164 343.265 750.346 348.554ZM545.391 255.451C538.835 258.373 534.554 260.987 533.928 252.113C533.769 249.825 534.971 246.556 536.054 244.516C539.202 238.652 542.54 240.029 545.689 242.733C550.307 246.695 546.453 245.031 551.44 245.566C557.121 246.19 558.085 245.1 563.359 248.825C584.208 263.563 551.966 252.559 545.391 255.451ZM607.173 274.012C601.75 275.329 598.283 270.605 597.34 266.613C596.714 263.988 598.005 261.542 596.903 258.69C596.048 256.481 594.409 255.54 593.406 253.836C591.867 251.231 588.44 245.249 589.87 242.307C590.863 240.168 595.889 237.87 598.005 238.672C592.84 247.21 597.578 249.072 602.286 256.501C603.846 258.957 612.984 272.566 607.173 273.982V274.012ZM552.076 242.178L551.499 239.801C554.563 239.073 557.485 237.848 560.151 236.176C559.475 236.683 558.907 237.319 558.481 238.046C558.055 238.774 557.778 239.58 557.668 240.415C555.67 240.441 553.725 241.054 552.076 242.178ZM517.648 258.422L517.42 258.343C517.956 258.174 518.234 258.254 517.648 258.422ZM565.445 297.189C565.445 297.189 565.445 297.189 565.515 297.189H565.445C565.445 297.189 565.475 297.169 565.445 297.149V297.189ZM566.369 297.119C566.319 297.05 566.438 297.05 566.369 297.05V297.119ZM560.29 236.137C560.396 236.078 560.506 236.025 560.618 235.978C560.507 236.012 560.397 236.052 560.29 236.097V236.137ZM514.788 479.632V479.682C514.788 479.682 514.778 479.593 514.807 479.593L514.788 479.632ZM490.641 201.342C494.346 199.648 495.418 198.321 496.819 194.815C497.623 192.834 497.087 190.199 497.882 188.129C498.676 186.059 501.269 185.157 501.398 182.671C501.597 178.828 496.879 176.313 497.355 171.558C497.713 168.102 500.921 162.357 503.941 160.327C504.547 160.683 508.907 152.244 510.308 151.095C512.294 159.564 503.722 163.704 505.699 172.886C507.755 182.473 518.363 184.108 525.565 178.056C528.713 184.732 520.33 180.502 516.754 181.81C515.294 182.345 511.639 185.544 510.794 186.861C509.742 188.446 508.272 194.29 507.636 196.835C507.278 198.291 507.388 201.451 508.699 202.53C506.106 204.947 499.918 202.352 496.571 203.372C494.584 203.986 492.826 206.096 490.939 206.552C488.267 207.205 488.128 206.086 484.979 206.165C486.191 203.6 489.975 203.313 490.641 201.342ZM441.691 278.35C444.899 278.405 448.024 277.336 450.522 275.329C454.773 271.853 452.796 269.387 454.922 265.286C456.124 262.929 460.584 259.175 462.789 257.253C463.693 256.471 463.434 253.925 464.646 253.292C466.454 252.36 468.49 254.203 470.546 253.698C478.413 251.776 476.357 246.111 482.585 253.034C485.565 256.303 485.942 257.382 489.965 259.779C491.466 260.608 492.918 261.521 494.316 262.513C493.144 264.276 495.478 265.652 494.634 267.406C493.938 268.842 491.713 268.505 491.306 269.327C489.379 273.15 486.479 274.854 493.034 275.438C499.987 276.072 501.974 269.733 501.616 263.216C508.649 261.374 483.191 250.855 488.227 245.031C492.796 251.528 500.027 253.153 504.884 257.372C508.52 260.532 510.347 263.513 512.274 268.168C506.315 268.555 512.274 272.011 513.844 273.249C518.135 276.597 517.946 277.33 521.79 272.398C526.359 266.534 519.923 271.358 519.923 264.83C519.923 264.117 526.757 261.285 527.651 261.364C520.976 271.734 535.12 278.093 542.49 278.816C544.527 279.014 554.261 277.181 555.751 277.825C558.731 279.222 557.926 283.867 557.221 286.739C554.728 297.139 547.953 295.485 537.583 295.099C531.246 294.871 526.657 292.841 521.025 291.137C509.106 287.542 514.668 299.11 508.401 298.536C509.046 296.852 494.276 290.018 492.587 289.463C491.594 289.117 485.793 288.72 485.724 288.661C481.234 284.927 485.098 289.434 484.79 284.184C484.482 278.935 488.356 276.132 481.81 273.665C479.287 272.675 472.603 274.794 469.891 274.953C460.196 275.478 450.343 282.56 440.936 280.896L439.685 279.519C440.18 278.889 440.898 278.47 441.691 278.35ZM579.57 351.526C573.61 347.564 574.832 346.573 571.623 341.859C570.282 339.878 568.385 338.313 567.154 336.134C565.167 332.638 566.041 328.349 563.032 325.239C560.717 323.733 561.78 322.832 560.747 320.851C559.823 319.078 558.999 317.622 557.847 315.512C556.853 313.779 551.629 307.816 556.665 306.945C560.638 314.779 566.28 323.783 570.968 331.201C573.471 335.163 577.822 338.243 579.907 342.592C581.546 345.929 581.894 349.04 583.473 353.2C582.121 352.769 580.813 352.209 579.57 351.526ZM627.963 118.608C630.029 122.521 632.711 118.549 634.757 119.341C633.336 119.688 631.111 121.5 631.568 123.224C628.112 118.272 628.698 123.679 627.337 117.39C627.536 117.819 627.744 118.235 627.963 118.638V118.608ZM636.575 298.665C636.753 299.229 636.575 299.556 635.949 299.655C636.133 299.31 636.342 298.979 636.575 298.665ZM643.329 77.6328L642.892 77.8111C643.024 77.716 643.177 77.6548 643.339 77.6328H643.329ZM624.337 112.547C624.706 112.086 624.934 111.529 624.994 110.942C625.054 110.355 624.943 109.764 624.675 109.238C625.463 111.149 626.029 113.143 626.364 115.181C623.682 114.105 623.01 113.227 624.347 112.547H624.337Z" fill="#492FB2"/>
<path fill-rule="evenodd" clip-rule="evenodd" d="M417.525 58.5664C417.069 58.8002 416.682 59.1473 416.4 59.5742C416.118 60.001 415.951 60.4931 415.916 61.0029C417.187 60.6959 417.555 59.7648 417.525 58.5664Z" fill="#492FB2"/>
<path fill-rule="evenodd" clip-rule="evenodd" d="M393.219 132.227C403.321 128.978 402.705 120.035 401.682 111.942C401.841 109.159 404.115 104.583 406.767 103.434C410.621 99.5319 417.396 90.7762 410.274 87.0917C409.35 85.5268 407.612 81.5154 408.367 79.6236C415.737 79.8514 412.906 79.0591 412.707 75.0279C412.469 70.0756 411.933 69.0851 413.611 63.9644C415.707 57.5561 418.17 49.8602 423.236 46.4035C425.352 44.4226 429.683 41.7483 429.573 38.7373C429.275 30.8136 416.819 36.4691 414.148 38.9453C412.985 38.3411 413.244 36.4394 413.373 35.439C414.813 28.9515 406.946 34.1118 403.738 34.9735C404.619 33.2738 405.614 31.6357 406.718 30.0707C409.906 27.7927 417.535 29.6151 415.816 24.326C415.687 23.91 405.883 16.1844 406.688 16.1844C411.068 9.54833 383.584 10.8458 384.24 11.9948C381.468 14.0549 376.82 13.8866 372.827 15.3029C372.932 15.9651 373.192 16.5933 373.585 17.1369C373.978 17.6806 374.494 18.1245 375.091 18.4328C370.721 18.4328 370.383 22.3946 370.383 25.3165C369.739 26.4061 369.396 27.6469 369.39 28.9119C369.39 26.931 364.195 20.3048 362.844 20.3543C362.655 22.2461 362.576 29.8528 358.444 27.6837C358.633 26.2872 359.874 20.4038 357.759 20.2057C357.016 19.4437 356.034 18.9591 354.976 18.8329C353.919 18.7066 352.849 18.9465 351.948 19.5124C344.25 21.107 345.929 13.8767 342.651 9.87519C339.025 5.45772 330.135 2.26842 324.493 1.54538C323.321 -0.673254 313.567 -0.0591565 310.677 0.921402C308.839 1.54539 308.313 3.67488 307.011 4.10078C305.71 4.52668 301.111 4.15031 300.317 4.88326C295.926 8.84511 290.513 4.64553 286.222 8.36968C284.345 9.46909 287.801 21.2457 283.699 22.0579C277.531 23.2563 285.914 2.49623 273.905 16.1151C271.412 18.9379 266.793 23.0484 266.326 27.1093C266.078 29.2982 268.373 30.9721 268.065 32.5667C267.757 34.1614 265.512 33.4779 265.224 35.9937C264.807 39.5098 265.343 41.4809 267.916 43.6005C269.972 45.3041 275.047 42.4218 273.041 47.4831C270.627 48.2656 270.518 52.5543 266.316 54.2381C257.864 57.6254 257.486 49.2857 251.824 49.3848C245.517 49.4937 253.881 58.1603 254.089 59.4182C254.765 63.7069 249.262 66.3514 250.563 70.3133C251.665 73.6313 257.079 74.5723 259.8 75.3943C262.87 76.3848 266.982 77.821 270.081 77.9002C274.054 78.0092 272.614 78.128 275.455 76.573C279.1 74.5921 281.832 72.3437 277.978 67.6588C274.124 62.9739 266.932 66.3217 262.016 63.8059C262.562 59.9035 266.883 63.2711 267.975 61.1317C268.8 62.5381 276.011 64.3606 278.027 65.2619C281.514 66.8268 281.206 68.1838 284.543 66.9061C287.662 65.7274 290.871 59.2993 289.728 56.2487C293.86 58.7447 303.028 47.2157 304.787 45.0267C308.233 40.738 310.617 40.7777 315.524 38.1727C318.116 36.8059 325.179 32.8737 326.013 29.8825C326.152 30.0896 326.335 30.2629 326.55 30.3897C326.765 30.5166 327.006 30.5937 327.255 30.6155C323.282 31.6555 318.931 41.7879 324.444 39.5297C322.258 46.6709 317.024 43.4915 309.703 46.2747C304.111 48.3646 299.065 54.9215 306.872 59.4875C302.323 60.1313 302.532 62.5381 303.177 66.4802C304.171 72.423 305.81 71.9773 310.687 73.1856C319.507 75.3646 321.812 71.8584 324.275 81.8323C325.572 86.6491 326.184 91.6236 326.093 96.6101C325.894 100.087 323.182 104.861 324.295 108.169C325.139 110.675 331.794 110.338 329.5 116.092C325.814 112.923 320.56 116.855 319.924 120.48C319.289 124.105 322.904 125.264 322.904 127.899C322.845 131.781 317.431 135.605 317.083 140.468C316.537 148.084 320.063 155.761 321.672 162.922C322.666 167.379 327.245 176.927 333.433 175.392C331.844 179.581 337.565 179.433 339.74 178.363C342.72 176.907 342.899 173.886 344.091 171.004C346.605 164.609 350.49 158.839 355.474 154.097C356.378 153.284 360.54 148.599 360.44 148.629C363.778 146.876 366.519 148.421 370.105 145.44C374.744 141.577 375.876 139.378 381.876 137.605C386.544 136.248 389.613 133.812 393.219 132.227ZM333.8 27.6441C335.161 26.307 336.939 24.0883 339.055 24.0982C337.595 26.9211 336.602 27.7035 333.8 27.6441ZM404.97 79.8118C405.012 79.7614 405.052 79.7085 405.089 79.6533V79.9307L404.97 79.8118ZM307.111 4.18002C307.061 4.24935 306.803 3.87299 307.111 4.21965V4.18002Z" fill="#492FB2"/>
<path fill-rule="evenodd" clip-rule="evenodd" d="M779.131 407.477C778.982 406.675 779.658 405.05 779.131 403.218C773.38 405.357 773.023 396.671 769.506 393.472C766.963 391.154 763.338 390.778 760.716 388.718C758.272 386.806 756.087 382.557 752.63 381.259C748.866 379.843 746.532 378.744 746.343 382.418C746.154 386.093 752.71 389.153 754.349 391.223C755.988 393.294 758.828 399.226 760.497 402.029C762.484 405.427 763.318 407.754 766.209 410.557C767.728 412.013 771.801 415.846 774.393 415.678C780.313 415.312 777.671 413.113 779.131 407.477Z" fill="#492FB2"/>
<path fill-rule="evenodd" clip-rule="evenodd" d="M829.163 351.209L827.564 349.951C826.799 350.882 833.683 361.916 836.792 360.222C841.073 357.875 833.047 356.428 833.236 356.636C832.848 354.636 831.348 351.714 829.163 351.209Z" fill="#492FB2"/>
<path fill-rule="evenodd" clip-rule="evenodd" d="M826.601 363.243L828.458 363.906C826.908 367.205 830.683 367.413 830.683 367.413C835.232 360.826 827.286 357.577 826.601 363.243Z" fill="#492FB2"/>
<path fill-rule="evenodd" clip-rule="evenodd" d="M346.376 412.38C340.237 410.468 336.582 405.585 329.917 404.357C323.252 403.129 318.573 401.108 312.425 398.741C308.958 397.404 308.372 398.097 305.949 395.156C305.571 394.7 302.035 383.369 299.582 385.31C300.515 382.171 293.185 380.001 292.033 379.368C291.533 378.568 290.844 377.903 290.027 377.43C289.209 376.957 288.289 376.69 287.344 376.654C286.505 376.351 285.598 376.283 284.722 376.457C283.847 376.632 283.036 377.042 282.378 377.644C280.223 376.862 276.786 369.047 273.776 370.77C275.326 360.262 244.196 360.578 238.564 360.252C241.355 358.697 237.779 356.716 236.647 356.448C235.515 356.181 230.757 359.707 229.942 360.202C228.393 361.193 222.572 366.482 221.35 366.799C218.529 367.532 214.556 365.372 210.99 366.085C208.914 366.501 210.593 368.789 206.948 368.264C204.782 367.948 203.769 366.026 202.23 364.709C198.256 351.397 208.736 344.662 188.045 346.454C186.118 343.047 190.032 336.173 191.164 332.192C192.356 327.943 195.823 327.329 188.84 327.14C185.721 327.051 184.41 328.369 182.254 329.973C180.268 331.429 180.387 333.479 178.182 334.925C176.521 336.019 174.575 336.601 172.585 336.601C170.595 336.601 168.649 336.019 166.988 334.925C159.727 330.151 161.664 319.454 162.607 312.68C164.594 298.367 177.318 300.972 187.439 298.536C192.734 297.268 202.1 294.97 206.312 300.844C206.312 300.844 210.672 319.187 213.821 313.115C218.48 305.311 205.646 292.365 218.788 287.562C221.668 287.334 226.734 283.174 228.899 281.054C230.508 279.46 231.867 277.633 232.932 275.636L232.187 272.734C234.055 272.264 235.681 271.116 236.746 269.515C239.001 266.732 240.719 263.325 243.62 261.037C246.52 258.749 249.957 258.353 252.132 255.609C254.119 253.113 253.622 250.261 256.105 248.032C257.814 246.467 262.443 245.457 264.489 244.496C267.747 249.716 268.899 245.744 273.18 243.278C275.494 241.941 282.765 240.713 283.51 237.335C284.384 233.314 277.183 237.137 274.908 235.859C268.412 232.214 278.345 221.557 268.224 222.577C273.409 217.625 274.511 225.212 279.15 224.994C280.143 224.112 280.083 223.013 279.08 221.725C281.474 221.626 285.259 222.171 287.523 221.072C288.586 220.547 291.794 217.11 291.784 217.11C295.172 224.697 285.626 223.459 286.441 229.194C286.937 232.71 298.698 236.028 302.154 235.74C306.038 235.81 305.551 230.65 304.618 228.094C303.316 224.519 299.651 224.41 298.509 221.23C297.267 217.843 300.923 214.356 300.714 211.058C300.406 206.195 298.38 205.838 296.165 201.877C294.734 199.896 292.758 199.301 291.198 197.538C287.623 193.418 289.341 193.656 288.348 188.981C287.583 185.385 286.361 172.767 282.984 170.499C280.67 176.788 271.561 186.257 270.071 173.995C269.704 171.113 271.452 169.37 270.548 166.646C270.28 165.853 264.181 159.247 263.128 158.494C255.698 153.482 251.526 156.513 249.927 163.447C248.934 167.656 246.639 170.964 245.557 174.56C244.474 178.155 246.659 179.967 246.659 183.771C246.659 192.408 240.958 191.199 236.726 195.954C235.634 197.192 236.726 213.93 230.876 210.563C231.343 208.275 229.187 206.769 229.118 204.62C232.098 205.492 229.317 202.045 229.366 201.114C229.734 192.883 231.77 194.369 224.588 190.724C220.883 188.852 202.736 177.402 205.646 171.816C201.783 173.034 207.266 161.228 207.504 160.921C210.841 156.107 215.132 153.988 219.423 150.491C220.764 149.402 219.066 147.52 219.94 146.955C223.089 145.054 234.015 146.619 233.627 139.349C237.173 142.498 234.909 139.349 234.909 140.725C233.816 142.924 231.79 152.938 237.183 148.451C242.368 144.489 242.885 151.204 247.116 150.036C252.649 148.53 248.427 140.696 244.931 138.378C247.682 135.327 253.046 132.99 255.043 129.464C256.215 127.394 254.904 125.789 255.539 123.63C256.731 120.619 258.264 117.755 260.108 115.092C261.718 113.309 265.075 113.785 266.763 111.13C265.115 114.102 268.492 117.796 267.35 121.193C266.356 124.095 262.383 123.402 264.28 127.057C266.267 130.93 277.849 122.105 272.902 132.138C267.816 135.506 267.717 139.319 262.045 141.161C259.642 141.944 252.003 143.142 258.261 146.817C262.711 149.431 265.154 146.133 268.929 151.145C271.323 154.324 271.77 156.949 275.435 159.534C276.706 160.436 279.269 162.506 280.848 162.506C282.428 162.506 281.583 159.534 281.931 159.465C278.603 160.188 288.377 155.503 284.156 158.9C285.149 158.098 287.891 159.653 289.559 155.83C291.546 151.214 286.292 146.916 286.917 142.379C290.94 144.667 289.788 146.589 294.287 144.737C297.267 143.518 300.863 139.111 300.178 136.437C299.552 134.01 293.225 130.316 291.705 127.899C288.209 122.313 291.864 123.154 292.023 117.687C296.592 112.636 282.328 101.909 280.62 98.2443C277.253 91.0239 281.146 87.8445 273.826 84.6651C270.985 83.4369 268.541 83.744 265.74 83.0308C264.449 82.704 262.155 81.347 261.271 81.3965C253.93 77.0088 246.093 86.1508 242.954 93.2029C239.11 101.8 241.633 104.098 248.249 110.229C246.401 110.952 246.808 114.082 245.974 115.548C245.14 117.014 240.104 121.193 238.266 121.877C237.362 119.648 238.723 113.626 238.723 112.824C237.39 111.821 236.134 110.718 234.968 109.526C234.303 107.961 234.621 102.503 234.76 101.265C235.197 97.5114 234.76 92.9156 235.922 89.4886C237.511 85.0018 240.372 86.7054 243.491 84.3976C247.275 81.6045 251.993 77.4644 245.835 74.7604C240.292 72.3041 235.058 82.0998 233.548 81.139C230.737 79.3661 235.634 74.6119 235.385 73.7304C234.492 70.5213 227.161 71.482 225.562 72.8786C223.963 74.2751 225.721 77.9497 224.211 79.0591C221.539 81.04 219.682 75.5924 218.142 81.1588C217.665 82.8426 221.489 89.9145 222.066 91.9054C223.059 95.4215 224.747 94.6489 223.178 99.007C221.509 103.662 216.881 103.187 213.891 106.069C213.732 106.218 211.169 108.05 211.398 107.624C210.841 108.674 211.914 111.437 212.272 110.754C210.593 113.933 210.434 116.934 205.319 115.33C204.971 115.221 198.048 108.525 198.048 109.209C200.213 108.08 211.417 107.782 206.6 102.909C216.086 103.474 211.626 94.4212 207.762 89.558C208.517 89.7264 218.738 72.3437 218.003 71.175C214.099 64.945 205.885 75.84 204.733 78.8412C203.583 78.0615 202.748 76.8994 202.379 75.5627C202.379 76.3254 197.412 76.1471 197.571 76.2065C196.127 74.1536 194.565 72.1859 192.893 70.3132C191.621 66.8466 193.449 62.7164 191.413 59.4875C189.357 57.7938 182.622 53.624 179.791 53.9409C175.58 54.4064 169.084 63.1324 166.769 66.6287C164.167 70.5906 161.743 77.9398 169.62 76.8206C173.116 76.3155 175.004 70.1548 177.407 74.5623C176.254 76.8364 175.348 79.2271 174.706 81.6937L172.719 82.8129C172.443 83.4613 172.42 84.1888 172.653 84.8536C172.886 85.5183 173.36 86.0726 173.98 86.4083C173.831 87.4681 176.732 87.27 176.96 88.6071C175.654 88.7016 174.397 89.139 173.315 89.8749C171.328 91.6181 170.951 93.6089 172.52 94.8272C173.583 96.0851 176.493 97.3529 177.189 98.6801C179.255 102.721 174.964 102.642 179.513 105.415C181.45 106.584 187.221 104.633 188.165 106.752C189.863 110.595 187.598 107.693 186.178 111.517C184.479 110.576 184.44 108.406 182.404 108.08C181.539 107.931 178.371 108.298 177.775 107.872C173.543 104.781 176.434 103.91 173.275 100.205C171.994 98.7099 168.915 98.492 167.315 97.2935C165.468 95.9564 164.266 93.5 162.518 92.3412C161.475 91.6181 159.538 90.3107 158.694 89.6372C155.714 87.2601 156.28 92.4006 155.187 86.9531C153.459 87.3195 152.098 90.6871 150.837 88.934C149.714 87.4087 151.622 83.3181 150.281 82.288C150.718 82.6247 142.821 81.9413 142.434 81.9314C138.888 81.8621 133.881 84.6651 131.507 82.3177L131.805 82.0998C128.826 79.1284 125.19 84.1996 122.578 82.9912C120.661 82.1097 121.684 79.0789 120.452 77.9299C115.545 73.3144 108.145 71.2443 102.285 66.8466C101.258 64.929 99.5564 63.4579 97.5072 62.7164C93.6433 60.8741 92.7394 53.2278 88.5676 51.6826C84.1077 50.0484 74.8801 53.1287 70.3904 54.9215C67.5695 56.0506 65.424 57.665 62.8017 59.0913C60.9627 60.6815 58.7642 61.8031 56.395 62.3598C54.7663 61.8266 53.0182 61.7716 51.359 62.2014C47.1475 65.0242 46.6508 80.4952 51.2398 84.467C43.7604 89.8848 46.0052 82.4861 42.3499 80.7627C39.7077 79.4949 32.417 84.1599 29.5861 84.8136C30.0629 91.42 26.8546 97.6897 36.9067 97.5114C40.6315 97.4619 47.6143 94.7876 41.0586 102.305C37.8205 106.019 35.4565 104.573 30.937 105.623C26.6758 106.614 25.5931 107.188 22.5239 110.962C17.6369 116.954 13.7233 125.918 23.09 129.781C19.1963 139.16 21.8286 134.396 26.6361 138.873C32.268 144.123 25.8116 145.985 21.8882 150.759C19.9612 151.749 17.1303 154.235 15.6106 154.83C15.6235 155.064 15.5709 155.297 15.4587 155.504C15.3465 155.71 15.1789 155.881 14.9749 155.998C14.2398 156.385 13.4551 156.137 12.6009 155.245C10.2468 156.345 0.32387 159.386 0.00601745 161.347C-0.311835 163.308 12.0645 158.148 12.9188 157.87C18.9282 156.008 22.3451 153.681 27.8876 151.026C32.0693 150.818 29.6457 147.589 34.3539 149.045C31.1158 156.068 40.9891 150.135 42.6876 149.124C41.6943 145.489 39.2409 148.669 37.5026 146.906C39.082 146.133 42.5386 142.845 43.6114 141.537C44.6841 140.23 42.8763 138.011 44.0285 137.11C45.1808 136.209 47.8626 138.744 49.3625 135.922C51.5577 137.189 47.8924 140.101 47.5646 140.597C52.7695 143.875 58.3518 136.367 62.3746 136.813C66.3974 137.259 73.8172 143.231 76.9163 145.777C80.7405 148.926 81.6841 154.126 83.8693 158.425C84.4057 159.504 86.1738 159.336 86.5413 160.406C87.3558 162.743 85.7764 165.556 86.9684 167.715C85.7764 171.182 92.0143 179.145 94.9147 179.601C92.4414 180.294 94.8253 197.211 96.494 198.232C90.4747 199.46 95.1332 207.086 96.4046 210.117C98.5303 215.129 99.2852 218.16 98.3117 223.924C97.0205 231.531 93.5638 238.91 91.9944 246.616C90.425 254.322 92.7096 259.72 94.7458 267.178C96.355 273.121 96.8019 274.557 101.033 279.212C105.503 284.164 106.655 288.79 109.615 295.287C110.197 296.688 111.032 297.97 112.079 299.071C113.44 300.844 113.251 302.508 111.513 304.082C112.178 305.449 113.718 305.707 114.612 307.321C115.357 308.658 121.982 322.614 124.395 320.821C125.389 320.108 117.75 304.053 116.668 301.834C115.863 300.17 110.271 292.306 113.549 290.84C117.691 288.978 116.638 292.474 117.691 294.584C118.595 296.406 117.929 298.843 118.922 300.933C120.244 303.686 122.896 304.815 124.395 307.192C125.895 309.57 125.498 311.283 126.869 313.274C128.855 316.176 132.292 318.038 133.822 321.485C135.659 325.447 133.911 329.577 135.481 333.153C136.901 336.381 142.235 338.828 145.205 340.314C151.77 343.602 157.82 345.038 164.783 346.811C171.249 348.465 177.815 352.595 184.221 355.725C189.903 358.548 192.565 360.895 195.743 365.432C199.885 367.324 201.147 371.622 206.242 370.959C206.848 372.088 211.209 376.208 211.209 371.771C211.531 371.415 211.92 371.126 212.355 370.921C212.79 370.716 213.261 370.599 213.742 370.577C214.222 370.554 214.702 370.628 215.154 370.792C215.606 370.956 216.02 371.208 216.374 371.533C221.926 379.249 220.109 386.519 214.695 392.838C210.812 397.384 209.947 398.028 209.401 404.357C209.103 407.784 206.928 413.033 207.911 416.351C208.805 419.382 213.811 422.294 215.55 425.157C217.705 428.673 219.235 432.952 221.271 436.616C223.496 440.638 225.244 444.382 228.86 447.333C230.399 448.561 239.647 455.742 241.454 455.742C245.904 461.546 244.563 478.295 243.948 485.298C243.093 494.984 243.888 505.008 242.239 514.378C241.693 517.488 239.875 521.826 239.726 524.758C239.587 527.323 241.166 525.164 241.494 529.482C241.713 532.394 239.607 547.122 242.954 547.231C243.501 544.379 242.686 542.596 244.722 540.843C243.223 544.201 245.418 550.797 244.573 553.283C244.077 554.729 240.094 557.483 240.183 559.959C240.183 559.642 247.682 570.359 244.772 570.359C242.895 570.359 252.867 585.513 252.867 582.749C255.47 585.344 250.99 585.998 254.854 589.93C256.552 591.654 259.026 593.833 260.406 590.752C260.665 590.752 262.393 593.228 263.247 593.308C262.81 593.308 262.77 593.734 263.128 594.595C261.579 593.803 260.436 594.216 259.701 595.833C260.416 597.161 266.893 600.786 268.323 599.894L268.551 598.369C270.538 598.825 275.345 597.081 275.097 595.11C274.948 593.922 269.137 591.604 268.025 590.673C269.283 590.673 268.717 589.561 266.326 587.335L264.628 585.503C264.628 584.047 263.635 583.859 263.337 582.185C262.016 575.113 266.823 573.35 267.747 567.209C268.631 561.375 263.654 562.99 263.217 558.067C262.959 555.096 266.247 554.65 267.191 552.402C268.402 549.43 268.621 545.934 269.545 542.814C269.725 543.09 269.984 543.307 270.288 543.438C270.592 543.568 270.928 543.606 271.253 543.547C274.303 542.121 268.452 541.764 268.979 541.903L267.25 541.219C267.876 540.308 266.634 538.892 266.922 538.089C267.995 535.187 269.018 538.337 270.677 536.93C271.362 536.356 273.011 536.703 274.014 535.712C275.425 534.316 273.468 531.334 274.64 529.977C277.213 527.006 281.712 529.116 284.99 526.877C290.95 522.846 287.722 518.587 286.043 513.466C289.023 512.268 292.301 514.794 295.162 512.575C295.49 512.458 295.776 512.248 295.985 511.969C296.193 511.691 296.315 511.357 296.334 511.01C297.485 510.268 298.444 509.267 299.135 508.086C299.825 506.906 300.226 505.58 300.307 504.215C302.403 501.739 304.449 500.065 306.346 497.282C309.793 492.142 309.962 485.001 313.001 480.118C316.875 473.878 326.579 473.759 331.874 469.054C334.564 466.869 336.599 463.987 337.754 460.724C340.406 454.068 337.863 445.867 340.565 439.925C342.839 435.002 359.825 416.569 346.376 412.38ZM148.314 112.091C149.873 112.16 156.379 116.32 156.459 116.944C154.045 117.717 146.526 120.599 144.182 119.846C149.377 115.716 144.063 114.171 148.314 112.091ZM160.72 146.292C157.442 147.896 154.76 147.649 151.145 149.095C152.267 148.134 159.419 143.33 160.67 146.292H160.72ZM145.016 318.771C145.121 318.939 145.164 319.139 145.135 319.336C145.097 319.149 145.071 318.961 145.056 318.771H145.016ZM267.379 110.348C267.479 110.536 267.379 110.685 267.081 110.803L267.379 110.348ZM291.844 114.032C291.88 113.911 291.937 113.797 292.013 113.696L291.844 114.032ZM222.314 113.715C221.837 114.191 221.321 114.706 220.854 115.102C217.288 112.665 223.367 113.745 222.373 113.715H222.314ZM184.569 71.3929C184.569 71.2245 184.658 71.1849 184.817 71.2542L184.569 71.3929ZM86.8094 163.932C86.988 164.094 87.101 164.316 87.1273 164.556C87.028 164.328 86.9187 164.14 86.8094 163.932ZM260.545 586.939C260.545 586.88 260.545 586.939 260.615 586.939H260.545ZM287.076 471.996C287.146 472.115 287.076 472.174 286.848 472.204C286.929 472.14 287.005 472.07 287.076 471.996ZM245.507 435.477C245.755 435.675 245.765 435.814 245.507 435.893C245.517 435.784 245.517 435.636 245.507 435.497V435.477Z" fill="#492FB2"/>
<path fill-rule="evenodd" clip-rule="evenodd" d="M235.465 338.798C237.591 340.571 247.742 338.353 248.725 336.996C245.745 335.084 239.21 330.835 235.306 332.954C234.76 333.252 235.415 336.916 235.306 337.768C233.538 337.198 231.669 337.009 229.823 337.213C229.863 339.006 234.531 338.65 235.465 338.798Z" fill="#492FB2"/>
<path fill-rule="evenodd" clip-rule="evenodd" d="M699.638 367.74C696.102 368.73 697.115 377.981 700.741 378.308C707.326 378.902 702.36 366.937 699.638 367.74Z" fill="#492FB2"/>
<path fill-rule="evenodd" clip-rule="evenodd" d="M227.121 333.123C235.127 330.875 220.446 324.823 218.798 327.566C218.212 330.468 223.764 334.054 227.121 333.123Z" fill="#492FB2"/>
<path fill-rule="evenodd" clip-rule="evenodd" d="M205.488 322.426C204.802 322.426 200.213 323.189 200.958 325.11C202.488 326.589 203.994 326.067 205.478 323.545C209.451 324.744 213.126 327.339 218.311 325.912C215.083 323.149 210.007 320.574 205.488 322.426Z" fill="#492FB2"/>
<path fill-rule="evenodd" clip-rule="evenodd" d="M590.297 447.937C587.367 448.532 586.106 451.186 586.394 453.949C589.622 460.209 579.441 468.806 584.685 475.482C594.956 488.645 598.84 455.782 603.687 455.871C604.779 451.246 606.667 440.469 603.031 436.438C599.694 441.242 596.545 446.67 590.297 447.937Z" fill="#492FB2"/>
<path fill-rule="evenodd" clip-rule="evenodd" d="M476.655 264.731C477.539 272.506 481.562 259.125 479.983 256.392C476.615 250.588 477.996 258.036 477.718 259.214C477.648 259.63 476.486 263.444 476.655 264.731Z" fill="#492FB2"/>
<path fill-rule="evenodd" clip-rule="evenodd" d="M267.677 364.144L269.664 365.075C269.574 360.489 267.29 362.738 267.677 364.144Z" fill="#492FB2"/>
</svg>
