<svg width="20" height="16" viewBox="0 0 20 16" fill="none" xmlns="http://www.w3.org/2000/svg">
<path d="M19.388 14.6599C19.1437 13.1001 16.255 14.3029 16.0767 12.5939C15.8243 10.1689 19.431 4.94266 19.1464 2.91375C18.8908 1.08721 17.6596 0.704521 16.5884 0.685722C15.5478 0.666922 15.2729 0.832812 14.9212 1.0373C14.7182 1.15485 14.4267 1.38782 14.0218 1.00295C13.7528 0.74693 13.5751 0.567674 13.2906 0.340637C13.1456 0.224651 12.9147 0.0786854 12.5281 0.0217854C12.1409 -0.0351146 11.64 0.0217854 11.3216 0.158133C11.0026 0.29498 10.7524 0.533821 10.4904 0.761421C10.2289 0.98902 9.56471 1.7324 8.94562 1.45808C8.67717 1.33954 7.76809 0.885402 7.11196 0.601464C5.84536 0.0534525 4.01863 0.941239 3.36094 2.11028C2.38209 3.84932 0.449616 10.682 0.156997 11.5833C-0.499131 13.6068 0.988696 15.2562 2.99524 15.1612C3.84362 15.1209 4.40794 14.8112 4.94383 13.837C5.25363 13.2745 8.16276 5.67798 8.37912 5.31353C8.53595 5.04946 9.05942 4.70057 9.5035 4.92816C9.94702 5.15576 10.0356 5.6302 9.97013 6.07734C9.86376 6.8003 7.81212 11.4345 7.73324 11.959C7.59951 12.8505 8.02317 13.3465 8.94887 13.3948C9.58351 13.4286 10.2155 13.2004 10.7175 12.2542C10.9983 11.7249 14.2339 5.24695 14.5201 4.81436C14.8348 4.33987 15.0877 4.18372 15.4082 4.20033C15.6568 4.2127 16.0547 4.27653 15.9554 5.02154C15.8577 5.75206 13.2562 10.5055 12.9834 11.6696C12.6183 13.2257 13.4726 14.8016 14.8799 15.4913C15.7777 15.9309 19.7048 16.6845 19.388 14.6599Z" fill="white"/>
</svg>
