<svg width="77" height="67" viewBox="0 0 77 67" fill="none" xmlns="http://www.w3.org/2000/svg">
<circle cx="32.0001" cy="34" r="32" fill="#300886"/>
<path d="M25.929 65.4248C11.1591 62.5883 6.10352e-05 49.5973 6.10352e-05 34C6.10352e-05 25.0127 3.70501 16.8908 9.67089 11.0782C17.5986 13.938 27.4289 19.9882 30.2085 30.3603C31.1889 34.0184 29.8319 41.4374 28.3608 49.4798C27.3828 54.8266 26.3544 60.449 25.929 65.4248Z" fill="#FFAE16"/>
<path d="M13.9393 60.4197C5.52243 54.6548 0.00012207 44.9723 0.00012207 34C0.00012207 25.5753 3.25574 17.911 8.57751 12.1966C17.2987 19.4551 15.4907 26.3293 13.3511 34.4636C12.1406 39.0659 10.824 44.0716 11.2483 49.7786C11.592 54.4028 12.5864 57.7659 13.9393 60.4197Z" fill="#FFE01A"/>
<path d="M63.9773 35.2184C63.3981 50.6894 51.8358 63.3512 36.8607 65.6332C34.0316 64.8846 32.0871 64.1843 32.0871 64.1843L30.9013 57.0014C30.9013 57.0014 45.8154 37.1775 53.7931 35.4264C56.7348 34.7807 60.4454 34.7753 63.9773 35.2184Z" fill="#FF8F96"/>
<path d="M55.4024 55.8252C55.3735 55.821 55.3446 55.8168 55.3157 55.8127C52.8271 55.4549 50.6072 55.1357 49.9202 56.032C49.1958 56.977 50.3218 58.1189 51.5817 59.3112C50.8642 59.8671 50.1223 60.3932 49.3581 60.8876C49.2378 59.936 48.3446 58.9342 47.4794 57.964C46.3497 56.697 45.2679 55.4837 46.0174 54.5059C46.793 53.494 48.9284 53.4095 51.1307 53.3224C54.3361 53.1955 57.6833 53.0631 57.1872 50.0577C56.6701 46.9256 58.0795 46.2911 59.3021 45.7407C60.0588 45.4 60.7439 45.0916 60.8567 44.2433C61.1517 42.0244 56.9935 42.8753 52.9219 44.2511C48.8503 45.627 31.302 59.2006 31.302 59.2006L31.6313 61.1955C32.4606 60.4998 40.8258 53.4959 45.3198 50.2806C50.0517 46.8952 54.1666 45.7818 53.8715 48.0008C53.4988 50.8046 51.3949 51.3274 49.137 51.8885C47.3843 52.324 45.5389 52.7827 44.3381 54.3491C43.5953 55.3182 44.2939 56.1815 44.9764 57.0249C46.0438 58.3438 47.0719 59.6142 42.4874 61.1653C35.6546 63.4771 32.4487 63.0537 31.9222 62.9576L31.9298 63.0032C31.9298 63.0032 36.2592 64.8881 41.7438 64.4895C40.5882 64.8585 39.4041 65.1636 38.1956 65.4007C34.6735 64.9007 32.0872 64.1843 32.0872 64.1843L31.8834 62.9502C31.8568 62.9448 31.8437 62.9416 31.8437 62.9416L31.5647 61.2515L31.5983 61.2232L30.9014 57.0014C30.9014 57.0014 48.4452 43.2543 53.4691 41.5567C55.9965 40.7026 60.0335 39.929 63.4853 39.7474C62.3697 45.899 59.4955 51.4381 55.4024 55.8252Z" fill="#FF505F"/>
<path fill-rule="evenodd" clip-rule="evenodd" d="M22.4903 8.60906C26.4363 4.3262 30.5042 1.92215 35.0063 0.951352C31.9492 9.47314 32.7076 16.6105 34.8584 16.6061C35.7131 16.6044 36.0616 15.1794 36.5894 13.0212C37.3898 9.74866 38.6025 4.79036 42.6175 0.552673C44.0456 0.674102 45.5217 0.891043 47.0528 1.19344C45.278 3.24629 44.0715 8.37364 45.5761 9.28911C46.4947 9.84806 47.6909 8.0192 49.0334 5.96653C49.8897 4.6572 50.8056 3.2568 51.7471 2.32697C52.7752 2.61489 53.8274 2.93226 54.9055 3.27664C51.972 6.17402 50.0434 13.9267 51.4498 14.6282C52.254 15.0293 53.7657 12.7535 55.4831 10.1678C56.7687 8.23234 58.1696 6.1233 59.4753 4.83367C64.0059 6.46028 68.9731 8.45282 74.4813 10.6624C75.1372 10.9255 75.8009 11.1917 76.4723 11.4607C73.3335 14.725 71.0303 18.1388 69.2312 21.5547C67.5606 22.3214 65.9623 22.476 64.7638 22.5918C63.69 22.6957 62.937 22.7685 62.7401 23.2226C62.3235 24.1838 64.7401 25.9905 67.1453 25.9943C66.2585 28.1057 65.5113 30.1932 64.8236 32.2212C58.5902 33.2568 53.2282 32.028 49.75 31.2309C47.4405 30.7016 45.9615 30.3627 45.6093 31.0033C44.7268 32.6088 58.2929 36.8208 63.208 37.0695C60.3995 45.3843 57.4733 52.0131 47.7825 54.0061C28.9307 57.883 29.7674 31.1736 29.7674 31.1736C29.7674 31.1736 9.51564 22.6914 22.4903 8.60906ZM45.6967 14.0116C45.7123 14.4967 45.727 14.9554 45.7737 15.2977C45.9343 16.4733 45.5603 17.2429 44.3197 17.0674C43.079 16.8919 42.5482 15.8819 42.7575 14.6078C42.9668 13.3338 44.3571 11.0267 45.0938 11.2997C45.6159 11.4933 45.6588 12.8305 45.6967 14.0116ZM25.8574 14.0407C25.8759 12.8497 25.8932 11.734 25.2572 11.6131C24.181 11.4086 22.2831 14.9508 22.5104 16.194C22.5205 16.2494 22.5311 16.3083 22.5422 16.3702C22.7803 17.6944 23.2626 20.3773 24.8358 20.0343C26.4825 19.6754 26.5279 17.7627 26.0335 16.3165C25.8313 15.725 25.8446 14.8648 25.8574 14.0407Z" fill="#01A64B"/>
<path fill-rule="evenodd" clip-rule="evenodd" d="M22.4903 8.60912C26.4363 4.32626 30.5041 1.92221 35.0062 0.951413C23.5992 7.45809 29.4195 20.9363 31.5703 20.9319C32.425 20.9302 36.0615 15.1794 36.5894 13.0213C37.3897 9.74872 38.6024 4.79042 42.6175 0.552734C44.0456 0.674164 45.5216 0.891103 47.0527 1.1935C41.9729 3.09712 41.2304 7.38828 45.576 9.28918C46.4947 9.84812 47.6908 8.01926 49.0333 5.96659C49.8897 4.65726 50.8056 3.25687 51.747 2.32704C52.7751 2.61495 53.8273 2.93232 54.9055 3.2767C45.7555 6.47668 50.0434 13.9267 51.4497 14.6282C52.254 15.0294 53.7657 12.7535 55.4831 10.1679C56.7686 8.23241 58.1695 6.12335 59.4752 4.83373C64.0059 6.46037 55.9862 16.3847 74.4815 10.6625C75.1374 10.9256 75.8009 11.1918 76.4722 11.4608C74.7907 14.7113 65.4016 14.6607 55.9751 18.1745C57.6808 20.9371 62.3943 16.7264 69.2311 21.5548C67.5605 22.3215 65.9623 22.476 64.7637 22.5919C63.6899 22.6957 50.758 24.8465 50.5611 25.3007C50.1445 26.2618 57.8958 33.177 67.1452 25.9943C66.2584 28.1058 65.5112 30.1933 64.8235 32.2213C58.5901 33.2568 53.2282 32.028 49.75 31.2309C48.5203 30.9491 45.3844 30.1399 42.2084 29.548C38.2235 29.4801 41.7736 37.8297 51.8739 42.5894C52.3381 42.8082 52.1386 43.5473 51.6364 43.4422C38.0496 40.601 35.6015 30.9586 35.012 28.9955C33.1771 50.4756 50.3337 61.9927 63.208 37.0695C60.3995 45.3844 57.4732 52.0132 47.7824 54.0061C28.9306 57.883 29.7674 31.1736 29.7674 31.1736C29.7674 31.1736 9.51558 22.6915 22.4903 8.60912ZM45.0937 11.2998C45.6159 11.4934 45.6588 12.8306 45.6967 14.0117C45.7123 14.4968 45.727 14.9555 45.7737 15.2978C45.9342 16.4734 45.5603 17.243 44.3196 17.0675C43.079 16.892 41.4367 17.4132 41.231 14.5033C41.0253 11.5934 44.3571 11.0268 45.0937 11.2998ZM25.8575 14.0407C25.8759 12.8498 25.8933 11.7341 25.2572 11.6132C24.181 11.4086 21.1006 13.4836 20.6056 15.7514C20.6157 15.8069 20.6263 15.8658 20.6375 15.9276C20.6227 18.4029 23.2626 20.3774 24.8358 20.0344C26.4826 19.6754 26.528 17.7627 26.0335 16.3165C25.8313 15.7251 25.8447 14.8649 25.8575 14.0407Z" fill="#0A9150"/>
<path d="M16.3763 29.2705C13.5419 26.2769 11.0119 23.5637 9.7425 19.7091C8.47308 15.8546 6.36746 10.7186 5.56984 9.21682C4.77221 7.71505 2.39237 6.16316 1.26892 5.51236C3.65294 5.02188 8.58831 6.11334 11.9972 7.84548C15.4062 9.57763 20.672 16.8563 23.618 21.2315C26.564 25.6066 30.376 26.0473 33.3605 30.2022C36.3451 34.3572 46.2383 37.6607 46.5 40.2036C46.7617 42.7466 44 42.2036 42 41.2036C40 40.2036 38.5617 44.9181 35.5 41.2036C32.4383 37.4892 32.0963 42.4664 28.25 40.2036C24.4037 37.9409 19.2108 32.2641 16.3763 29.2705Z" fill="#1C6670"/>
<path d="M22.1321 24.669C19.2977 21.6754 17.7884 23.2271 14.808 17.0298C11.8276 10.8325 7.2353 9.80113 6.43768 8.29936C5.64005 6.79758 2.39237 6.16322 1.26892 5.51242C3.65294 5.02194 8.58831 6.1134 11.9972 7.84555C15.4062 9.57769 20.672 16.8563 23.618 21.2315C26.564 25.6067 30.376 26.0474 33.3605 30.2023C36.3451 34.3572 46.137 40.7569 46.3987 43.2999C46.6604 45.8429 43.5 43.7999 42 43.2999C40.5 42.7999 40.5617 44.7144 37.5 41C34.4383 37.2856 35.6912 41.1186 31.7974 34.0802C27.9037 27.0419 24.9665 27.6625 22.1321 24.669Z" fill="#224A77"/>
<path d="M42.5 64.5179C40.8779 64.8329 39.9367 63.8284 39.9367 62.9747C39.9367 62.6243 39.9408 62.0103 39.9463 61.1894V61.1878C39.9573 59.5333 39.9738 57.0394 39.9738 54.1715C39.9738 51.1787 38.9511 49.2265 37.8033 48.231C44.929 47.4369 52.4151 44.724 52.4151 32.4032C52.4151 28.9009 51.1735 26.0393 49.1217 23.7928C49.4539 22.9849 50.5498 19.7222 48.808 15.3036C48.808 15.3036 46.1245 14.4414 40.0168 18.5918C37.4594 17.881 34.7198 17.5246 32.0003 17.5123C29.2808 17.5246 26.5432 17.881 23.9907 18.5918C17.8755 14.4414 15.1883 15.3036 15.1883 15.3036C13.4507 19.7222 14.5461 22.9849 14.8783 23.7928C12.8313 26.0393 11.5812 28.9009 11.5812 32.4032C11.5812 44.6948 19.053 47.4454 26.1606 48.2565C25.2455 49.0576 24.4162 50.4727 24.129 52.546C22.3029 53.3657 17.6709 54.7835 14.8168 49.8794C14.8168 49.8794 13.1248 46.8 9.91146 46.5737C9.91146 46.5737 6.78922 46.5328 9.6926 48.5237C9.6926 48.5237 11.79 49.5097 13.2457 53.2175C13.2457 53.2175 15.1242 58.9428 24.0267 57.0023C24.0342 58.4579 24.0463 59.8682 24.0559 60.9756L24.0559 60.9776L24.0559 60.9788L24.0559 60.9801L24.056 60.9846L24.056 60.9868C24.064 61.9134 24.0701 62.6266 24.0701 62.9747C24.0701 63.822 23.1109 64.8148 21.5117 64.5179C29 67 35 67 42.5 64.5179Z" fill="white"/>
<path fill-rule="evenodd" clip-rule="evenodd" d="M11.4366 47.7945C11.6645 47.9039 11.9146 47.8561 11.9851 47.6967C12.0656 47.5368 11.9331 47.3174 11.7005 47.2128C11.4689 47.1028 11.2183 47.1485 11.1494 47.3127C11.0741 47.4725 11.2045 47.6898 11.4366 47.7945ZM13.5593 49.1046C13.4067 49.2465 13.1084 49.1806 12.9059 48.9564C12.6966 48.7328 12.6574 48.4337 12.8121 48.2897C12.9695 48.1479 13.2588 48.2143 13.4687 48.438C13.678 48.6643 13.7188 48.9612 13.5593 49.1046ZM13.9243 50.6293C14.1225 50.9146 14.4431 51.0426 14.6391 50.9061C14.8395 50.7664 14.8395 50.4243 14.6439 50.1343C14.4431 49.8511 14.1273 49.7279 13.9285 49.8649C13.7282 50.002 13.7282 50.3441 13.9243 50.6293ZM16.4654 52.9924C16.29 53.1863 15.9164 53.1342 15.643 52.8697C15.3632 52.611 15.2853 52.2439 15.4612 52.05C15.6387 51.8556 16.0144 51.9103 16.29 52.1727C16.5677 52.4309 16.6524 52.8006 16.4654 52.9924ZM18.026 53.9554C18.3885 54.0621 18.7483 53.9479 18.8257 53.6967C18.9009 53.4411 18.6635 53.149 18.3021 53.0395C17.937 52.9253 17.5756 53.0443 17.5004 53.2972C17.4272 53.5511 17.6641 53.8454 18.026 53.9554ZM21.5117 53.9954C21.5207 54.26 21.2134 54.4794 20.8329 54.4842C20.4503 54.4927 20.1408 54.2786 20.1366 54.0183C20.1366 53.7511 20.4371 53.5338 20.8196 53.5274C21.2001 53.52 21.5117 53.7325 21.5117 53.9954ZM23.5541 54.4879C23.9319 54.4173 24.1963 54.1522 24.1507 53.894C24.1025 53.6316 23.7639 53.4765 23.3855 53.5424C23.0146 53.6109 22.7454 53.876 22.7915 54.1405C22.8387 54.3966 23.1826 54.5559 23.5541 54.4879Z" fill="#BDBAC3"/>
<path d="M16.0001 38C16.0001 33.5817 19.5818 31 24.0001 31C24.0001 31 28.0001 31.5 32.0001 31.5C36.0001 31.5 40.0001 31 40.0001 31C44.4183 31 48.0001 33.5817 48.0001 38C48.0001 42.4183 44.4183 46 40.0001 46C40.0001 46 36.0001 46.5 32.0001 46.5C28.0001 46.5 24.0001 46 24.0001 46C19.5818 46 16.0001 42.4183 16.0001 38Z" fill="#DAD5E5"/>
<ellipse cx="24.0001" cy="38" rx="3" ry="5" fill="white"/>
<ellipse cx="24.0001" cy="38" rx="2" ry="3" fill="#300886"/>
<ellipse cx="41.0001" cy="38" rx="3" ry="5" fill="white"/>
<ellipse cx="41.0001" cy="38" rx="2" ry="3" fill="#300886"/>
<circle cx="23.0001" cy="37" r="1" fill="white"/>
<circle cx="40.0001" cy="37" r="1" fill="white"/>
</svg>
