<svg width="19" height="16" viewBox="0 0 19 16" fill="none" xmlns="http://www.w3.org/2000/svg">
<path d="M19 1.89405C18.3009 2.2153 17.5497 2.43243 16.7611 2.53008C17.566 2.03016 18.184 1.23857 18.4751 0.295403C17.7219 0.758239 16.8877 1.0944 15.9998 1.27559C15.2887 0.490562 14.2756 0 13.1545 0C11.0016 0 9.25627 1.8085 9.25627 4.03914C9.25627 4.35571 9.29081 4.66401 9.35725 4.95963C6.11754 4.79119 3.24527 3.18311 1.32268 0.739371C0.987147 1.33594 0.794916 2.0298 0.794916 2.77003C0.794916 4.17136 1.48315 5.4077 2.52909 6.13202C1.89006 6.11106 1.28904 5.92937 0.763433 5.62684C0.763155 5.64369 0.763155 5.66061 0.763155 5.67761C0.763155 7.63467 2.10683 9.26724 3.89007 9.63825C3.56294 9.73058 3.21858 9.77991 2.86303 9.77991C2.61187 9.77991 2.36765 9.75463 2.12969 9.70746C2.6257 11.3122 4.06527 12.48 5.77103 12.5126C4.43695 13.5959 2.75614 14.2417 0.92988 14.2417C0.615264 14.2417 0.304956 14.2226 0 14.1853C1.72507 15.3313 3.77408 16 5.97542 16C13.1454 16 17.0662 9.84515 17.0662 4.50752C17.0662 4.33238 17.0624 4.15818 17.0549 3.98499C17.8165 3.4155 18.4774 2.70407 19 1.89405Z" fill="white"/>
</svg>
